<?xml version="1.0" standalone="no"?>
<!DOCTYPE svg PUBLIC "-//W3C//DTD SVG 1.1//EN" "http://www.w3.org/Graphics/SVG/1.1/DTD/svg11.dtd" >
<svg xmlns="http://www.w3.org/2000/svg">
<metadata>
Created by FontPrep 20130207 at Thu Sep 14 14:02:49 2017
 By Benjamin Hollway
Copyright (c) 2016 Christopher Simpkins / Copyright (c) 2003 by Bitstream, Inc. All Rights Reserved.
</metadata>
<defs>
<font id="60a555ae2862f148bff8d0a5227f8b59" horiz-adv-x='1024' >
  <font-face 
    font-family="Hack-Italic"
    font-weight="400"
    font-style="italic"
    font-stretch="normal"
    units-per-em="2048"
    panose-1="2 11 6 9 3 2 2 9 2 4"
    ascent="1556"
    descent="-492"
    x-height="1120"
    cap-height="1493"
    bbox="-1500 -767 1522 2001"
    underline-thickness="90"
    underline-position="-175"
    slope="-11"
    unicode-range="U+000D-FEFF"
  />
<missing-glyph 
d="M1014 -248v1577h-795v-1577h795zM104 1444h1024v-1806h-1024v1806z" />
    <glyph glyph-name=".notdef" 
d="M1014 -248v1577h-795v-1577h795zM104 1444h1024v-1806h-1024v1806z" />
    <glyph glyph-name=".null" horiz-adv-x="0" 
 />
    <glyph glyph-name="nonmarkingreturn" unicode="&#xd;" 
 />
    <glyph glyph-name="NULL" horiz-adv-x="0" 
 />
    <glyph glyph-name="NULL" horiz-adv-x="0" 
 />
    <glyph glyph-name="space" unicode=" " 
 />
    <glyph glyph-name="exclam" unicode="!" 
d="M802 148q0 -94 -79 -168q-43 -40 -96 -40q-54 0 -79.5 9.5t-51.5 41.5t-26 85q0 92 59 150t130 58t107 -38q36 -39 36 -98zM647 1053l70 445h265l-70 -445l-157 -567h-121z" />
    <glyph glyph-name="quotedbl" unicode="&#x22;" 
d="M721 1493h174v-555h-174v555zM338 1493h174v-555h-174v555z" />
    <glyph glyph-name="numbersign" unicode="#" 
d="M694 567l84 334h-246l-83 -334h245zM250 414h-256l39 153h256l84 334h-258l39 154h258l104 415h160l-105 -415h246l105 415h159l-104 -415h256l-39 -154h-256l-84 -334h258l-39 -153h-258l-104 -414h-160l104 414h-245l-105 -414h-160z" />
    <glyph glyph-name="dollar" unicode="$" 
d="M752 218q79 73 79 170q-1 98 -47 139t-145 61l-86 -443q120 0 199 73zM373 955q0 -84 40 -120t140 -61l80 410q-108 -7 -184 -76t-76 -153zM195 920q0 165 100 251.5t187.5 116.5t146.5 33l48 235h180l-47 -235q5 -3 49.5 -9t66.5 -10q92 -18 157 -42l-32 -173
q-120 75 -298 95l-81 -426q254 -54 298 -159t44 -185q0 -171 -137 -290q-137 -120 -353 -120h30l-59 -303h-181l59 301q-160 9 -342 92l35 180q165 -122 364 -131l90 465q-75 17 -200 68.5t-125 245.5z" />
    <glyph glyph-name="percent" unicode="%" 
d="M879 134.5q77 -0.5 131 53.5t53.5 131t-55 131t-130.5 54t-129 -53t-53 -131t53 -131.5t130 -54zM651 92q-90 92 -90 228t91.5 227.5t224.5 91.5t228 -95t95 -227t-93 -225q-94 -92 -229 -92t-227 92zM42 560l1150 436v-113l-1150 -430v107zM348 928q122 0 155.5 71.5
t33.5 113.5q0 76 -54 130q-55 53 -131 53t-130 -52t-54 -131q0 -81 52 -133t128 -52zM580 885q-92 -92 -228 -92q-136 -1 -228 91t-91 228q0 136 91.5 228t227.5 92q170 0 245 -110.5t75 -192.5q0 -152 -92 -244z" />
    <glyph glyph-name="ampersand" unicode="&#x26;" 
d="M158 411q0 -124 86 -203t218 -79q133 0 279 111l-309 555q-274 -150 -274 -384zM-20 362q0 344 387 558q-58 109 -58 204q0 187 123 291q123 105 329 105q126 0 247 -47l-35 -183q-83 76 -219 76q-199 0 -235 -82t-36 -116q0 -111 84 -261l307 -557q125 133 148 410h168
q-31 -332 -246 -539l123 -221h-199l-59 113q-193 -142 -395 -142q-201 0 -317 105q-117 106 -117 286z" />
    <glyph glyph-name="quotesingle" unicode="'" 
d="M528 1493h174v-555h-174v555z" />
    <glyph glyph-name="parenleft" unicode="(" 
d="M273 381q0 611 510 1173h159q-475 -612 -475 -1214q0 -289 119 -610h-160q-153 363 -153 651z" />
    <glyph glyph-name="parenright" unicode=")" 
d="M795 940q0 293 -119 614h160q153 -368 153 -650q0 -611 -510 -1174h-159q475 605 475 1210z" />
    <glyph glyph-name="asterisk" unicode="*" 
d="M250 486l242 371l-364 158l36 103l376 -123l20 425h108l20 -425l376 123l36 -103l-364 -158l242 -371l-94 -67l-270 357l-270 -357z" />
    <glyph glyph-name="plus" unicode="+" 
d="M532 557h-444v170h444v444h168v-444h445v-170h-445v-444h-168v444z" />
    <glyph glyph-name="comma" unicode="," 
d="M604 47q-59 0 -103 39q-43 38 -43 110q0 103 61.5 128t99.5 25q87 1 133 -67t46 -189q0 -171 -92 -295t-260 -185l-46 104q244 109 252 334q-24 -4 -48 -4z" />
    <glyph glyph-name="hyphen" unicode="-" 
d="M226 683h822l-33 -164h-822z" />
    <glyph glyph-name="period" unicode="." 
d="M613 -27q-68 0 -115 47t-47 122t47 122t115 47t115 -47t47 -122t-47 -122t-115 -47z" />
    <glyph glyph-name="slash" unicode="/" 
d="M947 1493h191l-854 -1683h-189z" />
    <glyph glyph-name="zero" unicode="0" 
d="M550 401q-53 0 -53 122t13 187t17 82t8.5 36.5t29.5 101.5t62 120.5t49 38.5h32q33 0 33 -120q-1 -6 -1 -7v-21q-7 -135 -17 -174q-95 -366 -173 -366zM757.5 307q63.5 92 119.5 335q55 243 55 410t-49 235.5t-151 68.5q-170 0 -271 -198q-71 -137 -116 -347
q-46 -210 -46 -340q0 -129 25.5 -232.5t194.5 -103.5q67 0 121 40t117.5 132zM749 1520q386 0 386 -492q0 -207 -54 -415t-145 -364q-162 -278 -456 -278q-382 0 -382 493q0 201 55 417.5t144 362.5q163 276 452 276z" />
    <glyph glyph-name="one" unicode="1" 
d="M156 170h313l221 1141l-352 -76l35 184l352 74h203l-258 -1323h309l-33 -170h-823z" />
    <glyph glyph-name="two" unicode="2" 
d="M926 1151q0 94 -63.5 147.5t-178.5 53.5q-180 0 -430 -135l41 204q228 99 417 99q188 0 301 -96t113 -261q0 -222 -190 -407t-348 -312l-330 -274h694l-32 -170h-914l26 136q7 35 33 57l324 286q408 364 472.5 492.5t64.5 179.5z" />
    <glyph glyph-name="three" unicode="3" 
d="M805 475q0 240 -281 240h-153l32 166h154q157 0 251 73t93 188q0 114 -62 161t-205 47t-374 -80l37 186l128 32q128 32 247 32q316 0 373 -126t57 -202q0 -229 -127.5 -302.5t-212.5 -90.5q113 -19 178 -102q64 -85 64 -205q0 -236 -167 -378q-167 -143 -454 -143
q-209 0 -401 74l38 201q184 -105 372 -105t300.5 94t112.5 240z" />
    <glyph glyph-name="four" unicode="4" 
d="M690 520l152 762l-625 -762h473zM659 356h-634l36 191l785 946h233l-190 -973h198l-30 -164h-199l-70 -356h-198z" />
    <glyph glyph-name="five" unicode="5" 
d="M615 987q186 0 300 -111q115 -111 115 -302q0 -124 -52 -240q-76 -170 -233 -266.5t-377 -96.5t-364 64l41 205q166 -101 354 -101q189 0 309 116t121 290q0 130 -80 203t-233 73t-309 -78l145 750h756l-33 -170h-571l-72 -367q90 31 183 31z" />
    <glyph glyph-name="six" unicode="6" 
d="M530 129q58 0 121 32.5t111 100.5q98 136 98 321q0 186 -86 216t-148 30t-125 -32.5t-111 -94.5q-97 -124 -97 -308q0 -66 31 -165.5t206 -99.5zM696 987q176 0 272 -98q95 -98 95 -286q0 -251 -151 -441q-151 -191 -397 -191q-201 0 -312 115t-111 353q0 237 139 659
t615 422q114 0 182 -23t100 -37l-36 -186q-121 76 -244 76t-281.5 -71.5t-242.5 -498.5q138 207 372 207z" />
    <glyph glyph-name="seven" unicode="7" 
d="M952 1323h-708l32 170h936l-16 -94l-805 -1399h-217z" />
    <glyph glyph-name="eight" unicode="8" 
d="M731 219q90 92 90 225t-66 199q-67 66 -197 66t-221 -99t-91 -228t67 -192t196 -63q130 0 222 92zM416 1092q0 -226 230 -226q112 0 196 88t84 194q0 108 -60 162t-143 54q-145 0 -226 -80t-81 -192zM1026 455q0 -213 -151 -349q-151 -135 -392 -135q-310 0 -376 144.5
t-66 234.5q0 171 105 288.5t284 154.5q-215 75 -215 288q0 186 148 312q148 127 345 127q198 0 308 -90t110 -236t-99 -260t-255 -152q254 -61 254 -327z" />
    <glyph glyph-name="nine" unicode="9" 
d="M824.5 820.5q72.5 92.5 72.5 281.5t-87.5 224.5t-149.5 35.5t-124 -34.5t-108 -98.5q-98 -136 -98 -322q0 -57 25.5 -151t208.5 -94q62 0 125 33t135.5 125.5zM224 604q-97 100 -97 285t120.5 408t428.5 223q203 0 314 -116q110 -116 110 -345q0 -339 -146 -658
q-200 -430 -611 -430q-156 0 -280 60l35 186q116 -76 268 -76q388 0 500 570q-137 -207 -374 -207q-170 0 -268 100z" />
    <glyph glyph-name="colon" unicode=":" 
d="M812 254q0 -83 -60 -139t-130 -55q-70 0 -105 40t-35 91q0 141 78.5 174t111.5 33q99 0 119.5 -54.5t20.5 -89.5zM595 909q0 95 60 150t145 55t105 -54.5t20 -89.5q0 -85 -59 -139q-59 -55 -129 -55q-69 0 -105 40q-37 40 -37 93z" />
    <glyph glyph-name="semicolon" unicode=";" 
d="M478 120v9q0 85 61.5 134t142.5 49t120 -71q25 -44 25 -85q-1 -256 -153 -422q-120 -131 -303 -194l-32 109q275 114 320 351q-95 -20 -151 36q-30 31 -30 84zM579 856q0 101 73 163q55 49 127 49t110 -43q37 -43 37 -99q0 -98 -65 -156q-65 -57 -137 -57t-108 44t-37 99
z" />
    <glyph glyph-name="less" unicode="&#x3c;" 
d="M88 559v166l1057 418v-182l-850 -320l850 -317v-183z" />
    <glyph glyph-name="equal" unicode="=" 
d="M88 524h1057v-172h-1057v172zM88 930h1057v-170h-1057v170z" />
    <glyph glyph-name="greater" unicode="&#x3e;" 
d="M88 324l850 317l-850 320v182l1057 -418v-166l-1057 -418v183z" />
    <glyph glyph-name="question" unicode="?" 
d="M718 134q0 -75 -67 -136q-41 -37 -88 -38q-47 0 -69 8.5t-48 37.5t-25 78q0 82 53.5 131t131.5 49t95 -51t17 -79zM986 1207q0 58 -36 93q-67 64 -161 64t-185 -33t-206 -104l30 188q205 113 399 113q193 0 289 -96q76 -76 76 -192t-54 -194q-54 -79 -160 -170l-102 -86
q-76 -64 -103 -106t-34 -85l-20 -127h-190l17 111q19 120 78.5 185.5t113.5 111.5l104 89q128 106 139 181q5 33 5 57z" />
    <glyph glyph-name="at" unicode="@" 
d="M698 260q137 0 224 106q86 106 86 252q0 100 -50 156q-50 55 -124 55q-139 0 -224.5 -103.5t-85.5 -251.5q0 -103 50 -159q50 -55 124 -55zM612 -317q-297 0 -469 188t-172 501q0 312 147.5 578t376.5 376q146 71 321 71t286 -104q112 -104 112 -278q0 -74 -18 -157
l-137 -723h-144l21 111q-106 -131 -274 -131q-131 0 -214 91t-83 245q0 212 132 369t313 157q85 0 150 -36t93 -97l8 43q2 12 4.5 30t5 34.5t2.5 58.5t-18 91t-55 84q-73 70 -208 70t-268 -78q-251 -151 -355 -495q-44 -151 -44 -292q0 -274 128 -420t350 -146q115 0 249 51
l45 -131q-129 -61 -285 -61z" />
    <glyph glyph-name="A" unicode="A" 
d="M801 551l-66 774l-364 -774h430zM639 1493h246l166 -1493h-201l-35 389h-520l-184 -389h-217z" />
    <glyph glyph-name="B" unicode="B" 
d="M506 166q281 0 330 128.5t49 196.5q0 119 -68 171t-211 51h-241l-107 -547h248zM639 877q152 1 238 73t86 182t-55 153q-56 42 -181 42h-244l-88 -450h244zM756 1493q411 0 411 -315q0 -152 -92 -256t-248 -123q258 -48 258 -313q0 -225 -159 -355q-159 -131 -451 -131
h-452l290 1493h443z" />
    <glyph glyph-name="C" unicode="C" 
d="M884 1356q-259 0 -384.5 -236t-149.5 -385t-24 -232q0 -187 79 -277t238 -91q160 0 340 125l-39 -207q-172 -82 -347 -82q-228 0 -355 131t-127 390q0 205 70 421q129 406 421 545q130 62 292 62t314 -82l-41 -207q-129 125 -287 125z" />
    <glyph glyph-name="D" unicode="D" 
d="M324 166q184 0 297 62t189 222q76 159 95 320.5t19 239.5q0 166 -82 242q-82 75 -275 75h-114l-226 -1161h97zM586 1493q413 0 478.5 -188.5t65.5 -290.5q0 -370 -155 -660q-102 -188 -258 -271t-422 -83h-303l291 1493h303z" />
    <glyph glyph-name="E" unicode="E" 
d="M344 1493h885l-33 -170h-684l-86 -442h653l-32 -170h-654l-104 -541h702l-33 -170h-905z" />
    <glyph glyph-name="F" unicode="F" 
d="M383 1493h879l-33 -170h-676l-86 -450h612l-32 -170h-613l-139 -703h-203z" />
    <glyph glyph-name="G" unicode="G" 
d="M287 494q0 -264 114.5 -311.5t170.5 -47.5q150 0 231 72l76 393h-217l30 166h410l-133 -670q-176 -125 -409 -125t-358 135q-124 136 -124 382q0 310 147 617q126 252 341 353q130 62 288 62q168 0 322 -82l-41 -207q-129 125 -289 125q-382 0 -470.5 -371.5
t-88.5 -490.5z" />
    <glyph glyph-name="H" unicode="H" 
d="M283 1493h202l-118 -612h553l118 612h203l-291 -1493h-202l139 711h-555l-137 -711h-203z" />
    <glyph glyph-name="I" unicode="I" 
d="M90 170h313l224 1153h-314l33 170h830l-33 -170h-314l-223 -1153h314l-33 -170h-830z" />
    <glyph glyph-name="J" unicode="J" 
d="M380 135q142 0 212 72t110 280l164 836h-381l33 170h584l-197 -1006q-56 -289 -177 -402q-121 -114 -335 -114q-213 0 -418 90l45 236q147 -162 360 -162z" />
    <glyph glyph-name="K" unicode="K" 
d="M283 1493h202l-127 -647l742 647h254l-703 -619l428 -874h-219l-360 741l-193 -168l-112 -573h-203z" />
    <glyph glyph-name="L" unicode="L" 
d="M369 1493h202l-258 -1323h721l-33 -170h-923z" />
    <glyph glyph-name="M" unicode="M" 
d="M229 1493h269l110 -756l414 756h270l-291 -1493h-186l258 1327l-434 -795h-141l-115 795l-256 -1327h-186z" />
    <glyph glyph-name="N" unicode="N" 
d="M285 1493h256l264 -1229l239 1229h195l-291 -1493h-256l-264 1229l-240 -1229h-194z" />
    <glyph glyph-name="O" unicode="O" 
d="M944 1067q0 157 -53 223q-53 67 -157 66q-179 0 -279 -196q-75 -141 -121 -347q-47 -205 -47 -384q0 -44 12.5 -169t196.5 -125q92 0 148 40t84.5 78t48.5 76q38 73 102.5 270t64.5 468zM82 473q0 335 149 668q176 379 522 379q204 0 301 -122t97 -389q0 -266 -145 -652
t-528 -386q-202 1 -299 123t-97 379z" />
    <glyph glyph-name="P" unicode="P" 
d="M616 766q165 0 264 96q98 96 98 249q0 114 -62 165t-192 51h-233l-109 -561h234zM761 1493q422 0 422 -367q0 -241 -161 -383.5t-439 -142.5h-233l-117 -600h-203l291 1493h440z" />
    <glyph glyph-name="Q" unicode="Q" 
d="M944 1067q0 157 -53 223q-53 67 -157 66q-179 0 -279 -196q-75 -141 -121 -347q-47 -205 -47 -384q0 -44 12.5 -169t196.5 -125q92 0 148 40t84.5 78t48.5 76q38 73 102.5 270t64.5 468zM494 -27q-412 0 -412 465q0 370 149 703q39 83 74 135q165 244 448 244
q398 0 398 -491q0 -177 -57 -399q-94 -366 -255 -519q-74 -71 -149 -101l236 -280h-236l-186 243h-10z" />
    <glyph glyph-name="R" unicode="R" 
d="M570 797q162 -1 260 85t98 213t-62 179t-200 53h-213l-102 -530h219zM697 1493q206 0 320 -89t114 -263q0 -175 -104 -294q-104 -120 -281 -142q72 -13 117 -68q45 -56 96 -229l121 -408h-201l-106 377q-44 155 -97 205t-166 49h-192l-123 -631h-203l289 1493h416z" />
    <glyph glyph-name="S" unicode="S" 
d="M1108 1237q-165 119 -340 119t-278 -82t-103 -206q0 -75 49 -118t178 -84l121 -39q166 -53 240 -134q74 -82 74 -206q0 -242 -167 -379t-447 -137q-210 0 -410 90l41 209q193 -135 409 -135q168 0 271 88q102 88 102 221q0 83 -35 119t-77.5 55.5t-108.5 40.5l-101 33
q-184 59 -258 133q-73 73 -73 187q-1 229 165 368q166 140 423 140q169 0 364 -78z" />
    <glyph glyph-name="T" unicode="T" 
d="M629 1323h-469l33 170h1140l-33 -170h-469l-256 -1323h-204z" />
    <glyph glyph-name="U" unicode="U" 
d="M477 -29q-189 0 -293 90t-104 254q0 83 35 258l178 920h203l-179 -920q-2 -11 -20 -99t-18 -146q0 -100 54 -147q54 -46 168 -46q206 0 255.5 111.5t93.5 326.5l178 920h203l-178 -920q-34 -180 -56.5 -238.5t-40.5 -96.5q-77 -170 -280 -237q-92 -30 -199 -30z" />
    <glyph glyph-name="V" unicode="V" 
d="M199 1493h198l113 -1303l598 1303h215l-719 -1493h-258z" />
    <glyph glyph-name="W" unicode="W" 
d="M145 1493h191l-90 -1210l329 800h211l15 -802l377 1212h198l-510 -1493h-194l-31 870l-371 -870h-188z" />
    <glyph glyph-name="X" unicode="X" 
d="M546 797l-288 696h200l224 -532l440 532h231l-596 -719l324 -774h-201l-254 612l-506 -612h-231z" />
    <glyph glyph-name="Y" unicode="Y" 
d="M508 670l-313 823h202l236 -651l497 651h218l-635 -823l-129 -670h-207z" />
    <glyph glyph-name="Z" unicode="Z" 
d="M32 154l976 1169h-727l33 170h969l-29 -154l-979 -1169h774l-34 -170h-1012z" />
    <glyph glyph-name="bracketleft" unicode="[" 
d="M682 1636h424l-23 -143h-240l-256 -1620h240l-23 -143h-424z" />
    <glyph glyph-name="backslash" unicode="\" 
d="M102 1493h191l786 -1683h-190z" />
    <glyph glyph-name="bracketright" unicode="]" 
d="M366 -127h240l256 1619h-240l23 143h424l-302 -1905h-424z" />
    <glyph glyph-name="asciicircum" unicode="^" 
d="M528 1493h177l456 -557h-178l-367 395l-366 -395h-178z" />
    <glyph glyph-name="underscore" unicode="_" 
d="M94 -190h1044v-120h-1044v120z" />
    <glyph glyph-name="grave" unicode="`" 
d="M453 1638h198l197 -376h-143z" />
    <glyph glyph-name="a" unicode="a" 
d="M692 563q-165 0 -211.5 -12.5t-69.5 -22.5q-67 -28 -107 -88t-40 -120t32 -127.5t170 -67.5t246 108t144 289l8 41h-172zM72 280q0 192 153.5 309.5t419.5 117.5h246l12 61q4 25 4 26v10q0 187 -242 187q-177 0 -397 -102l35 180q211 78 390 78q285 0 339.5 -118.5
t54.5 -170.5q0 -85 -24 -219l-125 -639h-164l12 166q-150 -195 -388 -195q-144 0 -235 83q-91 82 -91 226z" />
    <glyph glyph-name="b" unicode="b" 
d="M911 733q0 260 -201 260q-167 0 -272 -181q-74 -131 -90 -252.5t-16 -177.5q0 -122 53 -188q53 -67 145 -67q180 0 281 186q100 186 100 420zM763 1147q164 -1 254 -103q91 -102 91 -305t-105.5 -444.5t-256 -282.5t-211.5 -41q-194 0 -265 170l-46 -141h-165l303 1556
h185l-113 -579q125 170 329 170z" />
    <glyph glyph-name="c" unicode="c" 
d="M340 434q0 -231 100.5 -269t185.5 -38q179 0 343 125l-39 -201q-150 -80 -333 -80q-335 0 -393 167.5t-58 257.5q0 172 79.5 383.5t323.5 318.5q109 49 221 49q200 0 357 -86l-37 -182q-126 112 -290 112q-110 0 -174 -33q-107 -56 -165 -141t-89 -192q-32 -107 -32 -191
z" />
    <glyph glyph-name="d" unicode="d" 
d="M315 388q0 -261 203 -261q171 0 273 182t102 418q0 192 -78.5 228t-126.5 36q-253 0 -313 -244t-60 -359zM119 374q0 298 149 535q149 238 400 238q202 0 286 -170l115 579h184l-303 -1556h-164l7 141q-131 -170 -331 -170q-161 0 -252 105t-91 298z" />
    <glyph glyph-name="e" unicode="e" 
d="M948 741q0 115 -64 183t-178 67q-192 0 -272 -127t-102 -205h606q10 47 10 82zM285 409q0 -135 76 -208t223 -74q181 0 413 113l-36 -183q-213 -86 -422 -86t-326 112q-115 112 -115 327q0 154 60 304t166 259q169 176 395 176q184 0 296 -114q111 -115 111 -306
q0 -81 -22 -213h-807q-12 -60 -12 -107z" />
    <glyph glyph-name="f" unicode="f" 
d="M984 1556h221l-31 -153h-208q-94 0 -132 -32t-53 -67.5t-26 -84.5l-21 -99h385l-26 -143h-385l-191 -977h-184l190 977h-299l29 143h297l16 78q40 194 136 276q97 82 282 82z" />
    <glyph glyph-name="g" unicode="g" 
d="M874 744q0 115 -56 181t-147 66q-165 0 -270 -169q-104 -169 -104 -401q0 -144 58 -210t147 -66q88 1 154 45q68 44 104 110q114 204 114 444zM102 398q0 132 40 268t96 221q56 84 147 172t263 88q99 0 176 -48q77 -50 110 -134l47 151h164l-203 -1044
q-52 -272 -186 -392t-380 -120q-166 0 -317 55l37 182q157 -90 307 -90q223 0 278 125t75 221l24 117q-121 -178 -337 -178q-160 0 -251 106q-90 107 -90 300z" />
    <glyph glyph-name="h" unicode="h" 
d="M807 1147q137 0 213 -71t76 -199q0 -78 -21 -183l-135 -694h-184l135 695q3 9 2 8t2 13q14 63 14 101q0 170 -179 170q-130 1 -218 -93t-121 -261l-123 -633h-184l303 1556h184l-116 -604q150 195 352 195z" />
    <glyph glyph-name="i" unicode="i" 
d="M596 297q0 -145 180 -145h211l-31 -156h-207q-342 0 -342 256q0 72 19 156l133 568h-246l29 144h430l-162 -716q-14 -56 -14 -107zM627 1323q-34 0 -27 33l34 173q4 27 32 27h124q34 0 27 -33l-34 -173q-5 -27 -32 -27h-124z" />
    <glyph glyph-name="j" unicode="j" 
d="M288 -270q95 0 149 58q55 58 81 192l192 997h-317l28 143h502l-221 -1140q-42 -213 -142 -310q-101 -96 -282 -96h-254l31 156h233zM811 1323q-34 0 -27 33l34 173q4 27 32 27h124q34 0 27 -33l-34 -173q-5 -27 -32 -27h-124z" />
    <glyph glyph-name="k" unicode="k" 
d="M393 1556h191l-170 -874l549 438h241l-520 -422l373 -698h-213l-307 582l-168 -133l-88 -449h-191z" />
    <glyph glyph-name="l" unicode="l" 
d="M739 -8q-342 0 -342 256q0 57 19 156l211 1008h-316l29 144h500l-240 -1156q-8 -36 -8 -39v-21q0 -5 -3 -12.5t-3 -32.5q0 -147 180 -147h211l-31 -156h-207z" />
    <glyph glyph-name="m" unicode="m" 
d="M1006 872q0 120 -92 121q-81 0 -122 -65t-85 -287l-125 -641h-168l125 641q3 13 6.5 33t7.5 41.5t13 69t9 96.5q0 112 -97 112q-91 0 -127.5 -86.5t-71.5 -265.5l-125 -641h-168l217 1120h148l1 -96q88 123 220 123q74 0 120 -37t56 -104q81 141 239 141q89 0 140 -53
q51 -54 51 -149t-39 -296l-127 -649h-168l125 641q10 52 15 79t13.5 73t8.5 79z" />
    <glyph glyph-name="n" unicode="n" 
d="M807 1147q137 0 213 -71t76 -199q0 -78 -21 -183l-135 -694h-184l135 695q3 9 2 8t2 13q14 63 14 101q0 170 -179 170q-130 1 -218 -93t-121 -261l-123 -633h-184l219 1120h164l-12 -168q150 195 352 195z" />
    <glyph glyph-name="o" unicode="o" 
d="M920 726q0 266 -218 265q-172 0 -281 -172q-108 -172 -108 -417q0 -72 24.5 -173.5t214.5 -101.5q68 0 195 81t150 267.5t23 250.5zM117 406q0 120 30 220q156 521 570 521q192 0 294 -107q103 -107 103 -314q0 -290 -159 -522q-159 -233 -444 -233t-339.5 157.5
t-54.5 277.5z" />
    <glyph glyph-name="p" unicode="p" 
d="M829 301q105 197 105 414t-78.5 246.5t-144.5 29.5q-66 -1 -119 -35t-126.5 -119.5t-92.5 -241.5t-19 -214q0 -122 56 -188t154 -66q172 0 265 174zM788 1147q163 0 252 -103q88 -103 88 -313t-90 -410t-236 -289q-101 -61 -224 -61q-199 0 -285 170l-111 -567h-184
l301 1546h164l-8 -143q126 170 333 170z" />
    <glyph glyph-name="q" unicode="q" 
d="M295 386q0 -259 201 -259q169 0 272 178q73 129 89.5 252.5t16.5 173.5q0 260 -207 260q-175 0 -266 -175q-46 -84 -76 -206q-30 -121 -30 -224zM446 -29q-251 0 -299.5 149.5t-48.5 233.5q0 227 122 510t443 283q205 0 273 -170l47 143h164l-299 -1546h-184l110 567
q-125 -170 -328 -170z" />
    <glyph glyph-name="r" unicode="r" 
d="M1154 889q-92 88 -249 88t-272.5 -113.5t-154.5 -314.5l-107 -549h-184l217 1120h164l-20 -219q68 120 174 183t244 63t223 -72z" />
    <glyph glyph-name="s" unicode="s" 
d="M449 808q0 -89 116 -129.5t119 -39t8 -0.5l72 -18q233 -59 233 -244q0 -184 -143 -295t-377 -111q-164 0 -362 70l37 190q196 -106 341 -106q146 0 230 60t84 142t-70.5 113.5t-125.5 46.5l-95 25q-250 66 -250 254q0 180 130 280q130 101 334 101t347 -66l-35 -180
q-140 92 -291 92t-227 -51q-75 -51 -75 -134z" />
    <glyph glyph-name="t" unicode="t" 
d="M727 143h207l-29 -147h-223q-245 0 -284.5 83t-39.5 140t17 146l119 612h-299l28 143h299l62 318h184l-61 -318h417l-28 -143h-418l-119 -612q-3 -17 -4.5 -26t-2.5 -14l-1 -5l-4 -57q0 -67 39 -93t141 -27z" />
    <glyph glyph-name="u" unicode="u" 
d="M311 293q-1 -160 187 -160q117 0 206 92q88 94 121 262l123 633h185l-218 -1120h-164l13 168q-147 -195 -355 -195q-133 0 -209 74q-75 74 -75 201q0 88 18 178l133 694h185l-135 -694q-2 -12 -4.5 -29.5t-6.5 -44.5t-4 -59z" />
    <glyph glyph-name="v" unicode="v" 
d="M182 1120h178l154 -956l502 956h198l-614 -1120h-238z" />
    <glyph glyph-name="w" unicode="w" 
d="M92 1120h176l15 -905l268 578h162l49 -578l362 905h191l-486 -1120h-165l-60 623l-297 -623h-166z" />
    <glyph glyph-name="x" unicode="x" 
d="M524 596l-293 524h196l217 -395l369 395h225l-512 -547l318 -573h-197l-244 444l-417 -444h-226z" />
    <glyph glyph-name="y" unicode="y" 
d="M128 -272q82 0 142 48t116 158l43 84l-217 1102h183l172 -862l483 862h205l-439 -760q-33 -58 -52 -90t-29.5 -50.5t-16 -28.5t-12.5 -22.5t-19.5 -33.5t-49.5 -87q-79 -140 -136.5 -235.5t-103 -139t-103.5 -71.5t-155 -28h-148l29 154h108z" />
    <glyph glyph-name="z" unicode="z" 
d="M111 168l784 805h-604l28 147h814l-33 -168l-785 -805h629l-29 -147h-837z" />
    <glyph glyph-name="braceleft" unicode="{" 
d="M708 -190h78l-29 -144h-72q-187 0 -269 54t-81 178v13q-2 33 14 123l45 236q2 5 2 7.5t6 27.5t5 70q0 88 -49 125t-162 37h-92l29 147h91q146 0 208 54t93 206l50 244q63 313 251 351q86 17 218 17h82l-29 -143h-85q-131 0 -178 -41t-75 -188l-51 -252q-31 -157 -92 -230
q-60 -73 -172 -96q72 -18 113 -69q40 -52 40 -127q1 -19 -2 -46t-4 -35.5t-2 -14.5t-2.5 -12.5t-3.5 -18.5l-47 -244q-10 -50 -10 -61l-1 -48q0 -64 43 -92t140 -28z" />
    <glyph glyph-name="bar" unicode="|" 
d="M530 627v938h172v-938h-172zM702 455v-938h-172v938h172z" />
    <glyph glyph-name="braceright" unicode="}" 
d="M636 1290q0 66 -42 95q-43 28 -141 28h-77l26 143h74q188 0 269 -54t81 -182q0 -59 -14 -132l-45 -236q-12 -72 -12 -103q0 -89 49 -126t161 -37h92l-29 -147h-91q-143 0 -209 -56t-94 -204l-47 -244q-52 -272 -170.5 -320.5t-298.5 -48.5h-82l28 144h78q137 0 183 40
t77 189l51 252q32 159 93 233q61 73 172 92q-154 42 -154 197q0 63 14 127l47 243l9 60q2 24 2 47z" />
    <glyph glyph-name="asciitilde" unicode="~" 
d="M846 354q-79 0 -137 34q-52 34 -128 138t-113 133q-40 29 -77 29q-77 0 -109 -72q-35 -84 -42 -255h-156q5 208 68 340q82 143 234 143q145 0 258 -157q100 -139 136.5 -158t61.5 -19q80 0 115.5 81.5t37.5 248.5h156q-4 -112 -17.5 -194t-50.5 -147q-72 -145 -237 -145z
" />
    <glyph glyph-name="uni00A0" unicode="&#xa0;" 
 />
    <glyph glyph-name="exclamdown" unicode="&#xa1;" 
d="M498 655l108 357h162l-39 -357l-127 -655h-233zM909 1378q0 -94 -79 -168q-43 -40 -96 -40q-54 0 -79 9.5t-51 41.5t-27 85q0 92 59 150t130 58t107 -38q36 -39 36 -98z" />
    <glyph glyph-name="cent" unicode="&#xa2;" 
d="M315 446q0 -292 226 -319l168 864q-165 -15 -279 -180t-115 -365zM123 425q0 192 81 353q122 245 370 334q76 27 163 33l56 287h102l-55 -287q128 -7 247 -68l-32 -172q-100 76 -244 88l-170 -870q123 8 279 90l-33 -172q-131 -59 -275 -68l-55 -286h-102l55 286
q-182 19 -284.5 139.5t-102.5 312.5z" />
    <glyph glyph-name="sterling" unicode="&#xa3;" 
d="M1192 1278q-111 88 -244 88t-209 -84t-116 -287l-43 -217h370l-28 -143h-371l-90 -465h536l-32 -170h-973l33 170h237l90 465h-198l26 143h199l47 238q51 260 182 382t349 122q127 0 272 -58z" />
    <glyph glyph-name="currency" unicode="&#xa4;" 
d="M500 489q64 -63 154 -63t152 63t62 154t-61 152t-153 61q-91 0 -153 -60q-63 -60 -63 -152q0 -91 62 -155zM311 645q0 96 62 184l-168 166l94 95l166 -168q91 61 184 61q94 0 195 -59l166 166l90 -93l-166 -166q59 -98 59 -194t-61 -182l168 -166l-94 -94l-166 167
q-91 -61 -186 -61q-96 0 -193 57l-164 -163l-92 90l166 166q-60 98 -60 194z" />
    <glyph glyph-name="yen" unicode="&#xa5;" 
d="M444 524h-397l23 111h397l6 35l-55 151h-309l22 111h246l-205 561h207l223 -664l459 664h211l-404 -561h252l-22 -111h-312l-110 -151l-10 -35h393l-23 -111h-393l-98 -524h-199z" />
    <glyph glyph-name="brokenbar" unicode="&#xa6;" 
d="M530 408h172v-758h-172v758zM530 1432h172v-758h-172v758z" />
    <glyph glyph-name="section" unicode="&#xa7;" 
d="M850 616q0 56 -54 112t-200 149l-80 51q-168 -108 -168 -189.5t45 -131.5t166 -128l119 -78q172 104 172 215zM848 148q0 -153 -121 -251t-293 -98t-334 58l33 161q154 -75 272 -75t185 46.5t67 110.5t-43.5 117.5t-139.5 119.5l-87 60q-125 86 -165 141t-40 115
q0 213 246 344q-78 72 -78 158q0 162 120 259t309 97q107 0 179.5 -21.5t110.5 -35.5l-33 -164q-147 78 -259 78q-111 0 -176.5 -50t-65.5 -104t32.5 -97t101.5 -88l134 -91q173 -118 191 -179t18 -102q0 -92 -66 -182t-180 -143q82 -70 82 -184z" />
    <glyph glyph-name="dieresis" unicode="&#xa8;" 
d="M860 1350q-34 0 -27 33l28 142q4 27 32 27h143q34 0 27 -33l-28 -142q-5 -27 -32 -27h-143zM469 1350q-34 0 -27 33l28 142q4 27 32 27h143q34 0 27 -33l-28 -142q-5 -27 -32 -27h-143z" />
    <glyph glyph-name="copyright" unicode="&#xa9;" 
d="M652 369q-195 0 -298.5 99.5t-103.5 272.5t104 275q104 100 284 100q122 0 226 -45v-108q-112 55 -223 55q-183 0 -219.5 -107t-36.5 -171q0 -132 70.5 -202.5t192.5 -70.5t216 51v-104q-106 -45 -212 -45zM1130 741q0 214 -150 364t-364 150t-362 -149
q-76 -76 -114 -168t-38 -171q0 -193 94 -320t246 -191q69 -29 174 -29t174 29q162 68 251 196.5t89 288.5zM646 125q-353 0 -499.5 213t-146.5 403q0 126 34 208q114 270 347 364q109 45 235 45t210 -34q200 -81 303.5 -240.5t103.5 -341.5q0 -128 -45 -234
q-100 -237 -362 -348q-84 -35 -180 -35z" />
    <glyph glyph-name="ordfeminine" unicode="&#xaa;" 
d="M246 592h676l-23 -123h-676zM729 1104q-287 0 -287 -163q0 -124 139 -124q106 0 182 67t101 191l6 29h-141zM745 1520q291 0 291 -248q0 -57 -10 -107l-86 -448h-143l22 112q-106 -131 -285 -131q-111 0 -176 60q-63 60 -63 147q0 155 111 235q112 79 311 79h174l4 54
q0 132 -184 132q-133 0 -277 -68l23 127q145 56 288 56z" />
    <glyph glyph-name="guillemotleft" unicode="&#xab;" 
d="M541 559l16 82l549 418l-43 -211l-350 -264l250 -267l-35 -176zM74 559l16 82l549 418l-43 -211l-350 -264l250 -267l-35 -176z" />
    <glyph glyph-name="logicalnot" unicode="&#xac;" 
d="M977 690h-889v172h1057v-491h-168v319z" />
    <glyph glyph-name="uni00AD" unicode="&#xad;" 
d="M336 643h522l-33 -164h-522z" />
    <glyph glyph-name="registered" unicode="&#xae;" 
d="M594 784q164 0 164 100q0 81 -38 106q-38 26 -126 26h-102v-232h102zM600 1100q291 0 291 -197q0 -73 -44 -119t-124 -61q18 -4 36 -25t27 -32t18 -24l18 -26t16 -24l114 -186h-143l-107 174q-49 80 -78 101q-30 21 -77 21h-55v-296h-130v694h238zM1130 741
q0 214 -150 364t-364 150t-362 -149q-76 -76 -114 -168t-38 -171q0 -193 94 -320t246 -191q69 -29 174 -29t174 29q162 68 251 196.5t89 288.5zM646 125q-357 0 -484 189t-144.5 275t-17.5 183t34 178q115 270 347 363q109 45 235 45t210 -34q200 -81 303.5 -240.5
t103.5 -341.5q0 -128 -45 -234q-100 -237 -362 -348q-84 -35 -180 -35z" />
    <glyph glyph-name="macron" unicode="&#xaf;" 
d="M469 1526h598l-29 -148h-598z" />
    <glyph glyph-name="degree" unicode="&#xb0;" 
d="M481 1065q55 -53 136 -53q80 0 135 55t55 134q1 79 -55 135t-136 55q-80 0 -135 -55q-55 -56 -55 -136t55 -135zM299 1199q0 135 91 228t224 93q134 0 227 -95t93 -227t-93 -223q-93 -90 -228 -90q-135 -1 -225 89t-89 225z" />
    <glyph glyph-name="plusminus" unicode="&#xb1;" 
d="M88 170h1057v-170h-1057v170zM532 672h-444v170h444v329h168v-329h445v-170h-445v-332h-168v332z" />
    <glyph glyph-name="twosuperior" unicode="&#xb2;" 
d="M699 1867q-90 0 -248 -78l24 127q164 56 245 56q136 0 203.5 -57t67.5 -135q0 -163 -309 -395l-190 -151h395l-23 -114h-557l21 110l203 167q157 128 235 215t78 152t-51 84t-94 19z" />
    <glyph glyph-name="threesuperior" unicode="&#xb3;" 
d="M922 1388q0 -129 -105 -207t-256 -78t-274 41l24 121q127 -55 230.5 -55t168 47t64.5 127q0 127 -174 127h-72l21 106h72q149 0 182 56t33 87q0 103 -165 103q-92 0 -210 -43l22 115q145 35 257 35t177.5 -49t65.5 -135t-56 -143.5t-155 -76.5q150 -26 150 -178z" />
    <glyph glyph-name="acute" unicode="&#xb4;" 
d="M907 1638h219l-395 -376h-156z" />
    <glyph glyph-name="mu" unicode="&#xb5;" 
d="M291 318q0 -187 228 -187q183 0 241.5 123t75.5 213l127 653h186l-168 -862q-6 -24 -6 -56q0 -61 47 -61q25 0 74 23l-29 -148q-78 -45 -146 -45t-107 43q-40 43 -40 115q-100 -158 -287.5 -158t-250.5 166l-109 -563h-176l301 1546h187l-136 -696q-12 -67 -12 -106z" />
    <glyph glyph-name="paragraph" unicode="&#xb6;" 
d="M125 1004q0 209 173 349t437 140h406l-328 -1690h-139l303 1567h-191l-303 -1567h-141l164 846q-177 5 -279 99t-102 256z" />
    <glyph glyph-name="periodcentered" unicode="&#xb7;" 
d="M616 576q-68 0 -115 47t-47 122t47 122t115 47t115 -47t47 -122t-47 -122t-115 -47z" />
    <glyph glyph-name="cedilla" unicode="&#xb8;" 
d="M555 0q72 -121 72.5 -203t-69.5 -137t-177 -55t-199 30l25 129q76 -38 144 -38q67 0 105 30t38 82q0 53 -58 162h119z" />
    <glyph glyph-name="onesuperior" unicode="&#xb9;" 
d="M369 1230h206l117 611l-231 -41l22 116l238 39h137l-141 -725h205l-21 -110h-553z" />
    <glyph glyph-name="ordmasculine" unicode="&#xba;" 
d="M246 592h676l-23 -123h-676zM911 1157q-1 248 -193 248q-103 0 -179 -108t-76 -265q0 -156 71.5 -187.5t117.5 -31.5q107 0 183 107q76 108 76 237zM638 698q-156 0 -243 90q-88 90 -88 242q0 193 121 338q122 152 316 152q148 0 234 -91t87 -245q0 -91 -32 -181
q-68 -187 -248 -275q-61 -30 -147 -30z" />
    <glyph glyph-name="guillemotright" unicode="&#xbb;" 
d="M612 352l350 262l-250 269l35 176l387 -418l-14 -82l-551 -418zM145 352l350 262l-250 269l35 176l387 -418l-14 -82l-551 -418z" />
    <glyph glyph-name="onequarter" unicode="&#xbc;" 
d="M821 25l76 391l-342 -391h266zM799 -86h-386l23 121l465 530h162l-105 -540h117l-20 -111h-119l-33 -184h-139zM47 612l1059 258l27 -108l-1063 -258zM111 934h206l117 611l-231 -41l22 116l238 39h137l-141 -725h205l-21 -110h-553z" />
    <glyph glyph-name="onehalf" unicode="&#xbd;" 
d="M962 446q-36 31 -96 31q-59 0 -112 -16t-149 -62l24 127q137 46 187 51t94 5q100 0 167 -56q68 -56 68 -139q0 -160 -309 -392l-190 -151h395l-23 -114h-557l21 110l203 167q313 256 313 355q0 53 -36 84zM47 612l1059 258l27 -108l-1063 -258zM111 934h206l117 611
l-231 -41l22 116l238 39h137l-141 -725h205l-21 -110h-553z" />
    <glyph glyph-name="threequarters" unicode="&#xbe;" 
d="M821 25l76 391l-342 -391h266zM799 -86h-386l23 121l465 530h162l-105 -540h117l-20 -111h-119l-33 -184h-139zM47 612l1059 258l27 -108l-1063 -258zM695 1095q1 -127 -103 -207t-258 -79q-154 0 -274 41l24 121q131 -55 264.5 -55t166 66.5t32.5 104.5q0 130 -174 130
h-72l21 106h72q98 1 156 41t59 102q0 103 -169 103q-89 0 -206 -43l22 115q153 35 229 35q139 0 205 -50t66 -135q0 -128 -80 -169t-131 -50q150 -25 150 -177z" />
    <glyph glyph-name="questiondown" unicode="&#xbf;" 
d="M143 267q-1 89 37 151q63 103 191 207l104 86q82 67 114 120t46 138l20 123h191l-29 -154q-17 -92 -58 -159q-41 -66 -151 -158l-106 -89q-84 -71 -120 -127t-36 -121t56 -106t153 -41q160 0 383 137l-37 -188q-215 -113 -420 -113q-146 0 -242 81q-96 82 -96 213z
M928 1426q0 -74 -67 -136q-41 -38 -88 -38t-69 8.5t-48 37.5t-25 78q0 82 53.5 131t131.5 49t95 -51t17 -79z" />
    <glyph glyph-name="Agrave" unicode="&#xc0;" 
d="M801 551l-66 774l-364 -774h430zM639 1493h246l166 -1493h-201l-35 389h-520l-184 -389h-217zM551 1853h182l147 -264h-139z" />
    <glyph glyph-name="Aacute" unicode="&#xc1;" 
d="M801 551l-66 774l-364 -774h430zM639 1493h246l166 -1493h-201l-35 389h-520l-184 -389h-217zM885 1852h208l-307 -264h-160z" />
    <glyph glyph-name="Acircumflex" unicode="&#xc2;" 
d="M801 551l-66 774l-364 -774h430zM639 1493h246l166 -1493h-201l-35 389h-520l-184 -389h-217zM704 1854h213l158 -266h-133l-139 178l-209 -178h-152z" />
    <glyph glyph-name="Atilde" unicode="&#xc3;" 
d="M801 551l-66 774l-364 -774h430zM639 1493h246l166 -1493h-201l-35 389h-520l-184 -389h-217zM684 1846q71 0 133 -47l35 -26q37 -27 66 -27q92 0 114 100h125q-63 -219 -246 -219q-47 0 -76 16t-45 27l-34 25l-2 1q-43 32 -81 32q-67 0 -106 -101h-125q70 219 242 219z
" />
    <glyph glyph-name="Adieresis" unicode="&#xc4;" 
d="M801 551l-66 774l-364 -774h430zM639 1493h246l166 -1493h-201l-35 389h-520l-184 -389h-217zM891 1620q-34 0 -27 33l28 143q4 27 32 27h143q34 0 27 -33l-28 -143q-5 -27 -32 -27h-143zM500 1620q-34 0 -27 33l28 143q4 27 32 27h144q27 0 27 -24q0 -6 -1 -9l-29 -143
q-6 -27 -32 -27h-142z" />
    <glyph glyph-name="Aring" unicode="&#xc5;" 
d="M801 551l-66 774l-364 -774h430zM880 1519q44 43 44 107t-44 108t-108 44t-108 -44t-43 -108q0 -100 59 -125.5t107.5 -25.5t92.5 44zM600 1415q-102 69 -102 198t78 209t195 79q116 0 196 -80t80 -197q-1 -79 -41 -143t-109 -95l154 -1386h-201l-35 389h-520l-184 -389
h-217z" />
    <glyph glyph-name="AE" unicode="&#xc6;" 
d="M600 551l150 772h-103l-356 -772h309zM555 1493h752l-33 -170h-338l-86 -442h307l-33 -170h-307l-106 -541h356l-33 -170h-542l75 383h-352l-176 -383h-184z" />
    <glyph glyph-name="Ccedilla" unicode="&#xc7;" 
d="M438 -274q160 0 160 111q0 55 -44 135q-317 22 -378 204t-61 298q0 222 70 439q129 406 421 545q130 62 292 62t314 -82l-41 -207q-129 125 -287 125q-259 0 -384.5 -236t-149.5 -385t-24 -232q0 -187 79 -277t238 -91q160 0 340 125l-39 -207q-145 -69 -271 -78
q58 -104 58.5 -182t-69.5 -133t-177 -55t-199 30l25 129q77 -38 127 -38z" />
    <glyph glyph-name="Egrave" unicode="&#xc8;" 
d="M344 1493h885l-33 -170h-684l-86 -442h653l-32 -170h-654l-104 -541h702l-33 -170h-905zM596 1849h182l147 -264h-139z" />
    <glyph glyph-name="Eacute" unicode="&#xc9;" 
d="M344 1493h885l-33 -170h-684l-86 -442h653l-32 -170h-654l-104 -541h702l-33 -170h-905zM930 1859h208l-307 -264h-160z" />
    <glyph glyph-name="Ecircumflex" unicode="&#xca;" 
d="M344 1493h885l-33 -170h-684l-86 -442h653l-32 -170h-654l-104 -541h702l-33 -170h-905zM749 1861h213l158 -266h-133l-139 178l-209 -178h-152z" />
    <glyph glyph-name="Edieresis" unicode="&#xcb;" 
d="M344 1493h885l-33 -170h-684l-86 -442h653l-32 -170h-654l-104 -541h702l-33 -170h-905zM936 1627q-34 0 -27 33l28 143q4 27 32 27h143q34 0 27 -33l-28 -143q-5 -27 -32 -27h-143zM545 1627q-34 0 -27 33l28 143q4 27 32 27h144q27 0 27 -24q0 -6 -1 -9l-29 -143
q-6 -27 -32 -27h-142z" />
    <glyph glyph-name="Igrave" unicode="&#xcc;" 
d="M90 170h313l224 1153h-314l33 170h830l-33 -170h-314l-223 -1153h314l-33 -170h-830zM557 1859h182l147 -264h-139z" />
    <glyph glyph-name="Iacute" unicode="&#xcd;" 
d="M90 170h313l224 1153h-314l33 170h830l-33 -170h-314l-223 -1153h314l-33 -170h-830zM891 1859h208l-307 -264h-160z" />
    <glyph glyph-name="Icircumflex" unicode="&#xce;" 
d="M90 170h313l224 1153h-314l33 170h830l-33 -170h-314l-223 -1153h314l-33 -170h-830zM710 1861h213l158 -266h-133l-139 178l-209 -178h-152z" />
    <glyph glyph-name="Idieresis" unicode="&#xcf;" 
d="M90 170h313l224 1153h-314l33 170h830l-33 -170h-314l-223 -1153h314l-33 -170h-830zM897 1627q-34 0 -27 33l28 143q4 27 32 27h143q34 0 27 -33l-28 -143q-5 -27 -32 -27h-143zM506 1627q-34 0 -27 33l28 143q4 27 32 27h144q27 0 27 -24q0 -6 -1 -9l-29 -143
q-6 -27 -32 -27h-142z" />
    <glyph glyph-name="Eth" unicode="&#xd0;" 
d="M324 166q278 0 394.5 139t171.5 402q34 161 34 271q0 199 -82 274t-275 75h-114l-91 -469h267l-29 -149h-266l-107 -543h97zM586 1493q413 0 478.5 -188.5t65.5 -290.5q0 -370 -155 -660q-102 -188 -258 -271t-422 -83h-303l137 709h-127l29 149h129l123 635h303z" />
    <glyph glyph-name="Ntilde" unicode="&#xd1;" 
d="M285 1493h256l264 -1229l239 1229h195l-291 -1493h-256l-264 1229l-240 -1229h-194zM680 1846q71 0 133 -47l35 -26q37 -27 66 -27q92 0 114 100h125q-63 -219 -246 -219q-47 0 -76 16t-45 27l-34 25l-2 1q-43 32 -81 32q-67 0 -106 -101h-125q70 219 242 219z" />
    <glyph glyph-name="Ograve" unicode="&#xd2;" 
d="M944 1067q0 157 -53 223q-53 67 -157 66q-179 0 -279 -196q-75 -141 -121 -347q-47 -205 -47 -384q0 -44 12.5 -169t196.5 -125q92 0 148 40t84.5 78t48.5 76q38 73 102.5 270t64.5 468zM82 473q0 335 149 668q176 379 522 379q204 0 301 -122t97 -389q0 -266 -145 -652
t-528 -386q-202 1 -299 123t-97 379zM543 1859h182l147 -264h-139z" />
    <glyph glyph-name="Oacute" unicode="&#xd3;" 
d="M944 1067q0 157 -53 223q-53 67 -157 66q-179 0 -279 -196q-75 -141 -121 -347q-47 -205 -47 -384q0 -44 12.5 -169t196.5 -125q92 0 148 40t84.5 78t48.5 76q38 73 102.5 270t64.5 468zM82 473q0 335 149 668q176 379 522 379q204 0 301 -122t97 -389q0 -266 -145 -652
t-528 -386q-202 1 -299 123t-97 379zM897 1859h208l-307 -264h-160z" />
    <glyph glyph-name="Ocircumflex" unicode="&#xd4;" 
d="M944 1067q0 157 -53 223q-53 67 -157 66q-179 0 -279 -196q-75 -141 -121 -347q-47 -205 -47 -384q0 -44 12.5 -169t196.5 -125q92 0 148 40t84.5 78t48.5 76q38 73 102.5 270t64.5 468zM82 473q0 335 149 668q176 379 522 379q204 0 301 -122t97 -389q0 -266 -145 -652
t-528 -386q-202 1 -299 123t-97 379zM696 1861h213l158 -266h-133l-139 178l-209 -178h-152z" />
    <glyph glyph-name="Otilde" unicode="&#xd5;" 
d="M944 1067q0 157 -53 223q-53 67 -157 66q-179 0 -279 -196q-75 -141 -121 -347q-47 -205 -47 -384q0 -44 12.5 -169t196.5 -125q92 0 148 40t84.5 78t48.5 76q38 73 102.5 270t64.5 468zM82 473q0 335 149 668q176 379 522 379q204 0 301 -122t97 -389q0 -266 -145 -652
t-528 -386q-202 1 -299 123t-97 379zM676 1846q71 0 133 -47l35 -26q37 -27 66 -27q92 0 114 100h125q-63 -219 -246 -219q-47 0 -76 16t-45 27l-34 25l-2 1q-43 32 -81 32q-67 0 -106 -101h-125q70 219 242 219z" />
    <glyph glyph-name="Odieresis" unicode="&#xd6;" 
d="M944 1067q0 157 -53 223q-53 67 -157 66q-179 0 -279 -196q-75 -141 -121 -347q-47 -205 -47 -384q0 -44 12.5 -169t196.5 -125q92 0 148 40t84.5 78t48.5 76q38 73 102.5 270t64.5 468zM82 473q0 335 149 668q176 379 522 379q204 0 301 -122t97 -389q0 -266 -145 -652
t-528 -386q-202 1 -299 123t-97 379zM883 1627q-34 0 -27 33l28 143q4 27 32 27h143q34 0 27 -33l-28 -143q-5 -27 -32 -27h-143zM492 1627q-34 0 -27 33l28 143q4 27 32 27h144q27 0 27 -24q0 -6 -1 -9l-29 -143q-6 -27 -32 -27h-142z" />
    <glyph glyph-name="multiply" unicode="&#xd7;" 
d="M150 293l350 348l-350 350l116 117l350 -350l351 350l116 -117l-350 -350l348 -348l-116 -119l-349 350l-348 -350z" />
    <glyph glyph-name="Oslash" unicode="&#xd8;" 
d="M940 1036v46q0 18 -2 34l-616 -887q42 -94 167 -94t206 82q125 128 185 394t60 425zM290 408v-8q0 -5 0.5 -6.5t0.5 -4.5l614 885q-59 82 -174 82t-195 -82q-139 -143 -220 -556q-29 -147 -29 -261l2 -38q1 -10 1 -11zM80 452q0 302 143.5 685t526.5 383q160 0 266 -86
l84 125l100 -64l-106 -158q57 -121 57 -305q-1 -184 -41 -349q-120 -489 -297.5 -600.5t-340.5 -111.5t-265 92l-94 -133l-99 64l119 170q-53 117 -53 288z" />
    <glyph glyph-name="Ugrave" unicode="&#xd9;" 
d="M477 -29q-189 0 -293 90t-104 254q0 83 35 258l178 920h203l-179 -920q-2 -11 -20 -99t-18 -146q0 -100 54 -147q54 -46 168 -46q206 0 255.5 111.5t93.5 326.5l178 920h203l-178 -920q-34 -180 -56.5 -238.5t-40.5 -96.5q-77 -170 -280 -237q-92 -30 -199 -30zM555 1859
h182l147 -264h-139z" />
    <glyph glyph-name="Uacute" unicode="&#xda;" 
d="M477 -29q-189 0 -293 90t-104 254q0 83 35 258l178 920h203l-179 -920q-2 -11 -20 -99t-18 -146q0 -100 54 -147q54 -46 168 -46q206 0 255.5 111.5t93.5 326.5l178 920h203l-178 -920q-34 -180 -56.5 -238.5t-40.5 -96.5q-77 -170 -280 -237q-92 -30 -199 -30zM889 1859
h208l-307 -264h-160z" />
    <glyph glyph-name="Ucircumflex" unicode="&#xdb;" 
d="M477 -29q-189 0 -293 90t-104 254q0 83 35 258l178 920h203l-179 -920q-2 -11 -20 -99t-18 -146q0 -100 54 -147q54 -46 168 -46q206 0 255.5 111.5t93.5 326.5l178 920h203l-178 -920q-34 -180 -56.5 -238.5t-40.5 -96.5q-77 -170 -280 -237q-92 -30 -199 -30zM708 1861
h213l158 -266h-133l-139 178l-209 -178h-152z" />
    <glyph glyph-name="Udieresis" unicode="&#xdc;" 
d="M477 -29q-189 0 -293 90t-104 254q0 83 35 258l178 920h203l-179 -920q-2 -11 -20 -99t-18 -146q0 -100 54 -147q54 -46 168 -46q206 0 255.5 111.5t93.5 326.5l178 920h203l-178 -920q-34 -180 -56.5 -238.5t-40.5 -96.5q-77 -170 -280 -237q-92 -30 -199 -30zM895 1627
q-34 0 -27 33l28 143q4 27 32 27h143q34 0 27 -33l-28 -143q-5 -27 -32 -27h-143zM504 1627q-34 0 -27 33l28 143q4 27 32 27h144q27 0 27 -24q0 -6 -1 -9l-29 -143q-6 -27 -32 -27h-142z" />
    <glyph glyph-name="Yacute" unicode="&#xdd;" 
d="M508 670l-313 823h202l236 -651l497 651h218l-635 -823l-129 -670h-207zM921 1859h208l-307 -264h-160z" />
    <glyph glyph-name="Thorn" unicode="&#xde;" 
d="M590 522q162 0 262 92t100 239q0 108 -62 157t-192 49h-237l-105 -537h234zM735 1217q424 0 424 -350q0 -228 -161 -365t-441 -137h-231l-72 -365h-203l291 1493l203 -2l-51 -274h241z" />
    <glyph glyph-name="germandbls" unicode="&#xdf;" 
d="M946 1227q0 178 -199 178q-235 0 -286 -272l-219 -1133h-187l221 1137q80 419 482 419q179 0 274 -80q94 -80 94 -232q0 -71 -18 -136q-174 -20 -274 -88t-101 -163q0 -58 35.5 -89.5t65.5 -54.5l51 -39q122 -95 159 -155q37 -61 37 -150q0 -182 -129 -290t-353 -108
q-110 0 -173 18.5t-96 30.5l30 164q118 -65 255 -65q207 0 248.5 88t41.5 144t-27 94q-27 39 -112 104l-61 47q-90 69 -118 115q-28 45 -28 109q0 130 102 226t279 132q6 24 6 27v22z" />
    <glyph glyph-name="agrave" unicode="&#xe0;" 
d="M692 563q-165 0 -211.5 -12.5t-69.5 -22.5q-67 -28 -107 -88t-40 -120t32 -127.5t170 -67.5t246 108t144 289l8 41h-172zM72 280q0 192 153.5 309.5t419.5 117.5h246l12 61q4 25 4 26v10q0 187 -242 187q-177 0 -397 -102l35 180q211 78 390 78q285 0 339.5 -118.5
t54.5 -170.5q0 -85 -24 -219l-125 -639h-164l12 166q-150 -195 -388 -195q-144 0 -235 83q-91 82 -91 226zM457 1673h198l197 -376h-143z" />
    <glyph glyph-name="aacute" unicode="&#xe1;" 
d="M692 563q-165 0 -211.5 -12.5t-69.5 -22.5q-67 -28 -107 -88t-40 -120t32 -127.5t170 -67.5t246 108t144 289l8 41h-172zM72 280q0 192 153.5 309.5t419.5 117.5h246l12 61q4 25 4 26v10q0 187 -242 187q-177 0 -397 -102l35 180q211 78 390 78q285 0 339.5 -118.5
t54.5 -170.5q0 -85 -24 -219l-125 -639h-164l12 166q-150 -195 -388 -195q-144 0 -235 83q-91 82 -91 226zM911 1673h219l-395 -376h-156z" />
    <glyph glyph-name="acircumflex" unicode="&#xe2;" 
d="M692 563q-165 0 -211.5 -12.5t-69.5 -22.5q-67 -28 -107 -88t-40 -120t32 -127.5t170 -67.5t246 108t144 289l8 41h-172zM72 280q0 192 153.5 309.5t419.5 117.5h246l12 61q4 25 4 26v10q0 187 -242 187q-177 0 -397 -102l35 180q211 78 390 78q285 0 339.5 -118.5
t54.5 -170.5q0 -85 -24 -219l-125 -639h-164l12 166q-150 -195 -388 -195q-144 0 -235 83q-91 82 -91 226zM721 1673h147l164 -376h-133l-117 241l-225 -241h-156z" />
    <glyph glyph-name="atilde" unicode="&#xe3;" 
d="M692 563q-165 0 -211.5 -12.5t-69.5 -22.5q-67 -28 -107 -88t-40 -120t32 -127.5t170 -67.5t246 108t144 289l8 41h-172zM72 280q0 192 153.5 309.5t419.5 117.5h246l12 61q4 25 4 26v10q0 187 -242 187q-177 0 -397 -102l35 180q211 78 390 78q285 0 339.5 -118.5
t54.5 -170.5q0 -85 -24 -219l-125 -639h-164l12 166q-150 -195 -388 -195q-144 0 -235 83q-91 82 -91 226zM892 1426q81 0 97 155h125q-27 -211 -101.5 -247.5t-118.5 -36.5q-84 0 -149 69l-47 49q-37 37 -73 37q-81 0 -95 -153h-125q15 135 73 209t142 73q84 0 154 -69
l47 -47q39 -39 71 -39z" />
    <glyph glyph-name="adieresis" unicode="&#xe4;" 
d="M692 563q-165 0 -211.5 -12.5t-69.5 -22.5q-67 -28 -107 -88t-40 -120t32 -127.5t170 -67.5t246 108t144 289l8 41h-172zM907 806q0 185 -244 185q-175 0 -395 -102l35 180q211 78 390 78q285 0 339.5 -118.5t54.5 -170.5q0 -85 -24 -219l-125 -639h-164l12 166
q-149 -195 -379 -195q-152 0 -244 83q-91 83 -91 226q0 192 153.5 309.5t419.5 117.5h246l12 61q4 25 4 26v12zM864 1350q-34 0 -27 33l28 142q4 27 32 27h143q34 0 27 -33l-28 -142q-5 -27 -32 -27h-143zM473 1350q-34 0 -27 33l28 142q4 27 32 27h143q34 0 27 -33
l-28 -142q-5 -27 -32 -27h-143z" />
    <glyph glyph-name="aring" unicode="&#xe5;" 
d="M692 563q-165 0 -211.5 -12.5t-69.5 -22.5q-67 -28 -107 -88t-40 -120t32 -127.5t170 -67.5t246 108t144 289l8 41h-172zM72 280q0 192 153.5 309.5t419.5 117.5h246l12 61q4 25 4 26v10q0 187 -242 187q-177 0 -397 -102l35 180q211 78 390 78q285 0 339.5 -118.5
t54.5 -170.5q0 -85 -24 -219l-125 -639h-164l12 166q-150 -195 -388 -195q-144 0 -235 83q-91 82 -91 226zM782 1444q64 0 108 44t44 108t-44 107.5t-108 44t-108 -43.5t-43 -108q0 -64 43.5 -108t107.5 -44zM782 1321q-114 0 -194 80t-80 195q0 114 80 194t194 80
q116 0 196 -80t79 -194q0 -115 -80.5 -195t-194.5 -80z" />
    <glyph glyph-name="ae" unicode="&#xe6;" 
d="M267 123q125 0 162 108t58 211l15 72h-49q-124 0 -178 -16q-55 -16 -80 -45q-72 -83 -72 -186q0 -65 38 -105q39 -39 106 -39zM1051 830q0 165 -128 165t-163 -96t-49 -160l-17 -82h330l16 74q11 46 11 99zM234 -29q-132 0 -206 71q-75 71 -75 210q1 188 121 296
q120 109 344 109h117l18 88q8 37 8 83q0 120 -60.5 143.5t-94.5 23.5q-110 0 -265 -84l35 168q157 68 274 68q164 0 230 -129q102 129 270 129q122 0 193 -77t71 -203q0 -49 -5 -83t-7.5 -54t-6.5 -42l-8 -44t-7 -40l-17 -90h-495q-35 -166 -35 -218q0 -90 49 -134
q50 -43 126 -43q159 0 273 108l-34 -172q-119 -84 -271 -84q-153 0 -201.5 61t-60.5 99q-94 -160 -280 -160z" />
    <glyph glyph-name="ccedilla" unicode="&#xe7;" 
d="M452 -274q160 0 161 111q0 42 -16.5 78t-26.5 57q-304 15 -359 174.5t-55 249.5q0 172 79.5 383.5t323.5 318.5q109 49 221 49q200 0 357 -86l-37 -182q-126 112 -290 112q-110 0 -174 -33q-107 -56 -165 -141t-89 -192q-32 -107 -32 -191q0 -231 100.5 -269t185.5 -38
q179 0 343 125l-39 -201q-109 -58 -252 -76q58 -99 58 -179.5t-70 -135.5t-176 -55q-107 0 -199 30l25 129q76 -38 126 -38z" />
    <glyph glyph-name="egrave" unicode="&#xe8;" 
d="M948 741q0 115 -64 183t-178 67q-192 0 -272 -127t-102 -205h606q10 47 10 82zM285 409q0 -135 76 -208t223 -74q181 0 413 113l-36 -183q-213 -86 -422 -86t-326 112q-115 112 -115 327q0 154 60 304t166 259q169 176 395 176q184 0 296 -114q111 -115 111 -306
q0 -81 -22 -213h-807q-12 -60 -12 -107zM453 1673h198l197 -376h-143z" />
    <glyph glyph-name="eacute" unicode="&#xe9;" 
d="M948 741q0 115 -64 183t-178 67q-192 0 -272 -127t-102 -205h606q10 47 10 82zM285 409q0 -135 76 -208t223 -74q181 0 413 113l-36 -183q-213 -86 -422 -86t-326 112q-115 112 -115 327q0 154 60 304t166 259q169 176 395 176q184 0 296 -114q111 -115 111 -306
q0 -81 -22 -213h-807q-12 -60 -12 -107zM907 1673h219l-395 -376h-156z" />
    <glyph glyph-name="ecircumflex" unicode="&#xea;" 
d="M948 741q0 115 -64 183t-178 67q-192 0 -272 -127t-102 -205h606q10 47 10 82zM285 409q0 -135 76 -208t223 -74q181 0 413 113l-36 -183q-213 -86 -422 -86t-326 112q-115 112 -115 327q0 154 60 304t166 259q169 176 395 176q184 0 296 -114q111 -115 111 -306
q0 -81 -22 -213h-807q-12 -60 -12 -107zM717 1673h147l164 -376h-133l-117 241l-225 -241h-156z" />
    <glyph glyph-name="edieresis" unicode="&#xeb;" 
d="M948 741q0 115 -64 183t-178 67q-192 0 -272 -127t-102 -205h606q10 47 10 82zM285 409q0 -135 76 -208t223 -74q181 0 413 113l-36 -183q-213 -86 -422 -86t-326 112q-115 112 -115 327q0 154 60 304t166 259q169 176 395 176q184 0 296 -114q111 -115 111 -306
q0 -81 -22 -213h-807q-12 -60 -12 -107zM860 1350q-34 0 -27 33l28 142q4 27 32 27h143q34 0 27 -33l-28 -142q-5 -27 -32 -27h-143zM469 1350q-34 0 -27 33l28 142q4 27 32 27h143q34 0 27 -33l-28 -142q-5 -27 -32 -27h-143z" />
    <glyph glyph-name="igrave" unicode="&#xec;" 
d="M596 297q0 -145 180 -145h211l-31 -156h-207q-342 0 -342 256q0 72 19 156l133 568h-246l29 144h430l-162 -716q-14 -56 -14 -107zM383 1646h198l197 -376h-143z" />
    <glyph glyph-name="iacute" unicode="&#xed;" 
d="M596 297q0 -145 180 -145h211l-31 -156h-207q-342 0 -342 256q0 72 19 156l133 568h-246l29 144h430l-162 -716q-14 -56 -14 -107zM828 1673h219l-395 -376h-156z" />
    <glyph glyph-name="icircumflex" unicode="&#xee;" 
d="M596 297q0 -145 180 -145h211l-31 -156h-207q-342 0 -342 256q0 72 19 156l133 568h-246l29 144h430l-162 -716q-14 -56 -14 -107zM688 1673h147l164 -376h-133l-117 241l-225 -241h-156z" />
    <glyph glyph-name="idieresis" unicode="&#xef;" 
d="M596 297q0 -145 180 -145h211l-31 -156h-207q-342 0 -342 256q0 72 19 156l133 568h-246l29 144h430l-162 -716q-14 -56 -14 -107zM771 1350q-34 0 -27 33l28 142q4 27 32 27h143q34 0 27 -33l-28 -142q-5 -27 -32 -27h-143zM380 1350q-34 0 -27 33l28 142q4 27 32 27
h143q34 0 27 -33l-28 -142q-5 -27 -32 -27h-143z" />
    <glyph glyph-name="eth" unicode="&#xf0;" 
d="M911 702q0 135 -37 205q-72 37 -163 37q-228 0 -313 -190.5t-85 -355.5q0 -67 24.5 -169t208.5 -102q67 0 137 40.5t123 120.5q105 160 105 414zM1106 701q0 -282 -145 -494q-162 -236 -445 -236q-193 0 -295 108t-102 310q0 262 147 475q119 172 247 203t165 31t54 -1.5
t40 -3.5l33 -3q-61 112 -113 182l-297 -94l-30 92l274 86l-141 200h213l104 -145l287 88l28 -92l-260 -80q122 -170 179 -318q57 -149 57 -308z" />
    <glyph glyph-name="ntilde" unicode="&#xf1;" 
d="M807 1147q137 0 213 -71t76 -199q0 -78 -21 -183l-135 -694h-184l135 695q3 9 2 8t2 13q14 63 14 101q0 170 -179 170q-130 1 -218 -93t-121 -261l-123 -633h-184l219 1120h164l-12 -168q150 195 352 195zM890 1297q-84 0 -149 69l-47 49q-37 37 -73 37q-81 0 -95 -153
h-125q15 135 73 209t142 73q84 0 154 -69l47 -47q39 -39 71 -39q81 0 97 155h125q-27 -211 -101.5 -247.5t-118.5 -36.5z" />
    <glyph glyph-name="ograve" unicode="&#xf2;" 
d="M920 726q0 266 -218 265q-172 0 -281 -172q-108 -172 -108 -417q0 -72 24.5 -173.5t214.5 -101.5q68 0 195 81t150 267.5t23 250.5zM117 406q0 120 30 220q156 521 570 521q192 0 294 -107q103 -107 103 -314q0 -290 -159 -522q-159 -233 -444 -233t-339.5 157.5
t-54.5 277.5zM453 1673h198l197 -376h-143z" />
    <glyph glyph-name="oacute" unicode="&#xf3;" 
d="M920 726q0 266 -218 265q-172 0 -281 -172q-108 -172 -108 -417q0 -72 24.5 -173.5t214.5 -101.5q68 0 195 81t150 267.5t23 250.5zM117 406q0 120 30 220q156 521 570 521q192 0 294 -107q103 -107 103 -314q0 -290 -159 -522q-159 -233 -444 -233t-339.5 157.5
t-54.5 277.5zM907 1673h219l-395 -376h-156z" />
    <glyph glyph-name="ocircumflex" unicode="&#xf4;" 
d="M920 726q0 266 -218 265q-172 0 -281 -172q-108 -172 -108 -417q0 -72 24.5 -173.5t214.5 -101.5q68 0 195 81t150 267.5t23 250.5zM117 406q0 120 30 220q156 521 570 521q192 0 294 -107q103 -107 103 -314q0 -290 -159 -522q-159 -233 -444 -233t-339.5 157.5
t-54.5 277.5zM717 1673h147l164 -376h-133l-117 241l-225 -241h-156z" />
    <glyph glyph-name="otilde" unicode="&#xf5;" 
d="M920 726q0 266 -218 265q-172 0 -281 -172q-108 -172 -108 -417q0 -72 24.5 -173.5t214.5 -101.5q68 0 195 81t150 267.5t23 250.5zM117 406q0 120 30 220q156 521 570 521q192 0 294 -107q103 -107 103 -314q0 -290 -159 -522q-159 -233 -444 -233t-339.5 157.5
t-54.5 277.5zM890 1297q-84 0 -149 69l-47 49q-37 37 -73 37q-81 0 -95 -153h-125q15 135 73 209t142 73q84 0 154 -69l47 -47q39 -39 71 -39q81 0 97 155h125q-27 -211 -101.5 -247.5t-118.5 -36.5z" />
    <glyph glyph-name="odieresis" unicode="&#xf6;" 
d="M920 726q0 266 -218 265q-172 0 -281 -172q-108 -172 -108 -417q0 -72 24.5 -173.5t214.5 -101.5q68 0 195 81t150 267.5t23 250.5zM117 406q0 120 30 220q156 521 570 521q192 0 294 -107q103 -107 103 -314q0 -290 -159 -522q-159 -233 -444 -233t-339.5 157.5
t-54.5 277.5zM860 1350q-34 0 -27 33l28 142q4 27 32 27h143q34 0 27 -33l-28 -142q-5 -27 -32 -27h-143zM469 1350q-34 0 -27 33l28 142q4 27 32 27h143q34 0 27 -33l-28 -142q-5 -27 -32 -27h-143z" />
    <glyph glyph-name="divide" unicode="&#xf7;" 
d="M524 150q-30 0 -30 30v185q0 30 30 30h185q30 0 30 -30v-185q0 -30 -30 -30h-185zM88 727h1057v-170h-1057v170zM524 889q-30 0 -30 30v186q0 30 30 30h185q30 0 30 -30v-186q0 -30 -30 -30h-185z" />
    <glyph glyph-name="oslash" unicode="&#xf8;" 
d="M526 127q176 0 286 172q108 172 108 426q0 67 -9 100l-534 -639q59 -59 149 -59zM313 388q0 -28 2 -48t2.5 -27t1.5 -11l533 636q-57 53 -148 53q-174 0 -282.5 -172t-108.5 -431zM176 133q-57 98 -57 282t124 458t481 274q151 0 245 -72l112 137l93 -77l-123 -146
q63 -96 63 -247t-41 -288t-99 -222q-58 -86 -151.5 -173.5t-315.5 -87.5q-147 0 -249 74l-119 -141l-92 76z" />
    <glyph glyph-name="ugrave" unicode="&#xf9;" 
d="M311 293q-1 -160 187 -160q117 0 206 92q88 94 121 262l123 633h185l-218 -1120h-164l13 168q-147 -195 -355 -195q-133 0 -209 74q-75 74 -75 201q0 88 18 178l133 694h185l-135 -694q-2 -12 -4.5 -29.5t-6.5 -44.5t-4 -59zM449 1648h198l197 -376h-143z" />
    <glyph glyph-name="uacute" unicode="&#xfa;" 
d="M311 293q-1 -160 187 -160q117 0 206 92q88 94 121 262l123 633h185l-218 -1120h-164l13 168q-147 -195 -355 -195q-133 0 -209 74q-75 74 -75 201q0 88 18 178l133 694h185l-135 -694q-2 -12 -4.5 -29.5t-6.5 -44.5t-4 -59zM903 1648h219l-395 -376h-156z" />
    <glyph glyph-name="ucircumflex" unicode="&#xfb;" 
d="M311 293q-1 -160 187 -160q117 0 206 92q88 94 121 262l123 633h185l-218 -1120h-164l13 168q-147 -195 -355 -195q-133 0 -209 74q-75 74 -75 201q0 88 18 178l133 694h185l-135 -694q-2 -12 -4.5 -29.5t-6.5 -44.5t-4 -59zM713 1648h147l164 -376h-133l-117 241
l-225 -241h-156z" />
    <glyph glyph-name="udieresis" unicode="&#xfc;" 
d="M311 293q-1 -160 187 -160q117 0 206 92q88 94 121 262l123 633h185l-218 -1120h-164l13 168q-147 -195 -355 -195q-133 0 -209 74q-75 74 -75 201q0 88 18 178l133 694h185l-135 -694q-2 -12 -4.5 -29.5t-6.5 -44.5t-4 -59zM856 1350q-34 0 -27 33l28 142q4 27 32 27
h143q34 0 27 -33l-28 -142q-5 -27 -32 -27h-143zM465 1350q-34 0 -27 33l28 142q4 27 32 27h143q34 0 27 -33l-28 -142q-5 -27 -32 -27h-143z" />
    <glyph glyph-name="yacute" unicode="&#xfd;" 
d="M128 -272q82 0 142 48t116 158l43 84l-217 1102h183l172 -862l483 862h205l-439 -760q-33 -58 -52 -90t-29.5 -50.5t-16 -28.5t-12.5 -22.5t-19.5 -33.5t-49.5 -87q-79 -140 -136.5 -235.5t-103 -139t-103.5 -71.5t-155 -28h-148l29 154h108zM947 1648h219l-395 -376
h-156z" />
    <glyph glyph-name="thorn" unicode="&#xfe;" 
d="M829 301q105 197 105 414t-78.5 246.5t-144.5 29.5q-66 -1 -119 -35t-126.5 -119.5t-92.5 -241.5t-19 -214q0 -122 56 -188t154 -66q172 0 265 174zM788 1147q163 0 252 -103q88 -103 88 -313t-90 -410t-236 -289q-101 -61 -224 -61q-199 0 -285 170l-111 -567h-184
l387 1993h184l-114 -590q126 170 333 170z" />
    <glyph glyph-name="ydieresis" unicode="&#xff;" 
d="M128 -272q82 0 142 48t116 158l43 84l-217 1102h183l172 -862l483 862h205l-439 -760q-33 -58 -52 -90t-29.5 -50.5t-16 -28.5t-12.5 -22.5t-19.5 -33.5t-49.5 -87q-79 -140 -136.5 -235.5t-103 -139t-103.5 -71.5t-155 -28h-148l29 154h108zM900 1320q-34 0 -27 33
l28 142q4 27 32 27h143q34 0 27 -33l-28 -142q-5 -27 -32 -27h-143zM509 1320q-34 0 -27 33l28 142q4 27 32 27h143q34 0 27 -33l-28 -142q-5 -27 -32 -27h-143z" />
    <glyph glyph-name="Amacron" unicode="&#x100;" 
d="M801 551l-66 774l-364 -774h430zM639 1493h246l166 -1493h-201l-35 389h-520l-184 -389h-217zM531 1800h598l-29 -148h-598z" />
    <glyph glyph-name="amacron" unicode="&#x101;" 
d="M447 125q152 0 262 106t147 291l8 41h-172q-163 0 -210 -12t-68 -21q-68 -29 -109 -87t-41 -139t51 -130t132 -49zM72 283q0 190 155.5 307t417.5 117h246l12 61q4 18 4 39q0 184 -242 184q-175 0 -397 -102l35 180q218 78 397 78t283 -81.5t104 -226.5q0 -74 -24 -200
l-125 -639h-164l12 166q-151 -195 -382 -195q-152 0 -242 84t-90 228zM469 1495h598l-29 -148h-598z" />
    <glyph glyph-name="Abreve" unicode="&#x102;" 
d="M801 551l-66 774l-364 -774h430zM639 1493h246l166 -1493h-201l-35 389h-520l-184 -389h-217zM527 1817q0 17 2 37h119q2 -111 170 -111q167 0 219 111h119q-71 -242 -362 -242q-267 0 -267 205z" />
    <glyph glyph-name="abreve" unicode="&#x103;" 
d="M447 125q152 0 262 106t147 291l8 41h-172q-163 0 -210 -12t-68 -21q-68 -29 -109 -87t-41 -139t51 -130t132 -49zM72 283q0 190 155.5 307t417.5 117h246l12 61q4 18 4 39q0 184 -242 184q-175 0 -397 -102l35 180q218 78 397 78t283 -81.5t104 -226.5q0 -74 -24 -200
l-125 -639h-164l12 166q-151 -195 -382 -195q-152 0 -242 84t-90 228zM469 1543q0 29 3 41h120v-17q0 -133 164 -133q165 0 223 150h119q-66 -287 -351 -287q-134 0 -206 64t-72 182z" />
    <glyph glyph-name="Aogonek" unicode="&#x104;" 
d="M801 551l-66 774l-364 -774h430zM847 -200q0 -72 96 -72q63 0 127 30l-25 -133q-69 -20 -153 -20t-137.5 40t-53.5 110q0 109 152 245h-3l-35 389h-520l-184 -389h-217l745 1493h246l166 -1493h-79q-125 -119 -125 -200z" />
    <glyph glyph-name="aogonek" unicode="&#x105;" 
d="M447 125q152 0 262 106t147 291l8 41h-172q-163 0 -210 -12t-68 -21q-68 -29 -109 -87t-41 -139t51 -130t132 -49zM743 -200q0 -72 96 -72q63 0 127 30l-25 -133q-69 -20 -153 -20t-137.5 40t-53.5 110q0 109 152 245h5l32 166q-151 -195 -382 -195q-152 0 -242 84
t-90 228q0 190 155.5 307t417.5 117h246l12 61q4 18 4 39q0 184 -242 184q-175 0 -397 -102l35 180q218 78 397 78t283 -81.5t104 -226.5q0 -74 -24 -200l-125 -639h-70q-125 -119 -125 -200z" />
    <glyph glyph-name="Cacute" unicode="&#x106;" 
d="M884 1356q-259 0 -384.5 -236t-149.5 -385t-24 -232q0 -187 79 -277t238 -91q160 0 340 125l-39 -207q-172 -82 -347 -82q-228 0 -355 131t-127 390q0 205 70 421q129 406 421 545q130 62 292 62t314 -82l-41 -207q-129 125 -287 125zM1008 1859h208l-307 -264h-160z" />
    <glyph glyph-name="cacute" unicode="&#x107;" 
d="M350 434q0 -231 100.5 -269t185.5 -38q179 0 343 125l-39 -201q-150 -80 -333 -80q-335 0 -393 167.5t-58 257.5q0 172 79.5 383.5t323.5 318.5q109 49 221 49q200 0 357 -86l-37 -182q-126 112 -290 112q-110 0 -174 -33q-107 -56 -165 -141t-89 -192q-32 -107 -32 -191
zM997 1673h219l-395 -376h-156z" />
    <glyph glyph-name="Ccircumflex" unicode="&#x108;" 
d="M884 1356q-186 0 -327 -164q-105 -126 -168 -314t-63 -375q0 -273 114.5 -320.5t187.5 -47.5q176 0 355 125l-39 -207q-168 -82 -347 -82q-230 0 -356 132q-126 127 -126 389q0 210 66 416t181 348q212 264 531 264q170 0 319 -82l-41 -207q-133 125 -287 125zM547 1595
l262 266h213l158 -266h-133l-139 178l-209 -178h-152z" />
    <glyph glyph-name="ccircumflex" unicode="&#x109;" 
d="M340 418q0 -291 275 -291q189 0 354 125l-39 -201q-150 -80 -352 -80t-317 113.5t-115 327.5q0 159 54 298q111 287 349 388q105 49 263 49t315 -86l-37 -182q-126 112 -290 112q-223 0 -341 -178q-55 -81 -87 -188t-32 -207zM447 1297l320 376h147l164 -376h-133
l-117 241l-225 -241h-156z" />
    <glyph glyph-name="Cdotaccent" unicode="&#x10a;" 
d="M326 508q0 -373 300 -373q177 0 357 125l-39 -207q-167 -82 -346 -82q-353 0 -418 197.5t-65 315.5q0 220 69.5 428t178.5 345q208 263 529 263q162 0 320 -82l-41 -207q-126 125 -287 125q-259 0 -382.5 -234t-149.5 -379t-26 -235zM808 1627q-16 0 -25.5 11t-6.5 28
l27 143q4 23 29 23h141q16 0 26 -11t7 -28l-28 -143q-4 -23 -29 -23h-141z" />
    <glyph glyph-name="cdotaccent" unicode="&#x10b;" 
d="M350 422q0 -153 68.5 -224t208.5 -71q185 0 352 125l-39 -201q-150 -80 -352 -80q-203 0 -317.5 111.5t-114.5 335.5t149 476.5t519 252.5q154 0 313 -86l-37 -182q-127 112 -292 112q-266 0 -362 -208t-96 -361zM739 1348q-27 0 -27 24q0 6 1 9l29 144q4 27 32 27h145
q27 0 27 -24q0 -6 -1 -9l-29 -144q-6 -27 -32 -27h-145z" />
    <glyph glyph-name="Ccaron" unicode="&#x10c;" 
d="M884 1356q-259 0 -384.5 -236t-149.5 -385t-24 -232q0 -187 79 -277t238 -91q160 0 340 125l-39 -207q-172 -82 -347 -82q-228 0 -355 131t-127 390q0 205 70 421q129 406 421 545q130 62 292 62t314 -82l-41 -207q-129 125 -287 125zM616 1861h136l139 -178l209 178h151
l-264 -266h-213z" />
    <glyph glyph-name="ccaron" unicode="&#x10d;" 
d="M350 434q0 -231 100.5 -269t185.5 -38q179 0 343 125l-39 -201q-150 -80 -333 -80q-335 0 -393 167.5t-58 257.5q0 172 79.5 383.5t323.5 318.5q109 49 221 49q200 0 357 -86l-37 -182q-126 112 -290 112q-110 0 -174 -33q-107 -56 -165 -141t-89 -192q-32 -107 -32 -191
zM561 1673h131l119 -243l225 243h156l-320 -376h-147z" />
    <glyph glyph-name="Dcaron" unicode="&#x10e;" 
d="M324 166q272 0 389 133t164 350t47 326q0 110 -19.5 173t-82.5 121t-255 58h-114l-226 -1161h97zM586 1493q277 0 410.5 -125.5t133.5 -373.5t-103 -527t-288 -373t-444 -94h-303l291 1493h303zM484 1861h136l139 -178l209 178h151l-264 -266h-213z" />
    <glyph glyph-name="dcaron" unicode="&#x10f;" 
d="M893 724q0 267 -212 267q-247 0 -306.5 -246t-59.5 -368q0 -250 202 -250q255 0 315.5 249.5t60.5 347.5zM1316 1552h196l-186 -373h-140zM460 -29q-161 0 -251 104t-90 307t87.5 409.5t213.5 281t246 74.5q203 0 288 -170l115 579h184l-303 -1556h-164l7 141
q-132 -170 -333 -170z" />
    <glyph glyph-name="Dcroat" unicode="&#x110;" 
d="M324 166q272 0 389 133t164 350t47 326q0 110 -19.5 173t-82.5 121t-255 58h-114l-91 -469h267l-29 -149h-266l-107 -543h97zM586 1493q277 0 410.5 -125.5t133.5 -373.5t-103 -527t-288 -373t-444 -94h-303l137 709h-127l29 149h129l123 635h303z" />
    <glyph glyph-name="dcroat" unicode="&#x111;" 
d="M315 388q0 -261 203 -261q171 0 273 182t102 418q0 192 -78.5 228t-126.5 36q-253 0 -313 -244t-60 -359zM119 374q0 298 149 535q149 238 400 238q202 0 286 -170l62 309h-332l25 121h329l31 149h184l-30 -149h192l-22 -121h-193l-250 -1286h-164l7 141
q-131 -170 -331 -170q-161 0 -252 105t-91 298z" />
    <glyph glyph-name="Emacron" unicode="&#x112;" 
d="M344 1493h885l-33 -170h-684l-86 -442h653l-32 -170h-654l-104 -541h702l-33 -170h-905zM549 1800h598l-29 -148h-598z" />
    <glyph glyph-name="emacron" unicode="&#x113;" 
d="M948 751q0 106 -65 173t-185 67t-220.5 -90t-145.5 -242h606q10 45 10 92zM285 406q0 -133 76 -206t242 -73t394 113l-36 -183q-212 -86 -422 -86t-325.5 111t-115.5 338t122 418.5t254.5 251t234.5 59.5q193 0 305 -114t112 -304q0 -72 -22 -215h-807q-12 -64 -12 -110z
M504 1486h598l-29 -148h-598z" />
    <glyph glyph-name="Edotaccent" unicode="&#x116;" 
d="M344 1493h885l-33 -170h-684l-86 -442h653l-32 -170h-654l-104 -541h702l-33 -170h-905zM751 1627q-16 0 -25.5 11t-6.5 28l27 143q4 23 29 23h141q16 0 26 -11t7 -28l-28 -143q-4 -23 -29 -23h-141z" />
    <glyph glyph-name="edotaccent" unicode="&#x117;" 
d="M948 751q0 106 -65 173t-185 67t-220.5 -90t-145.5 -242h606q10 45 10 92zM285 406q0 -133 76 -206t242 -73t394 113l-36 -183q-212 -86 -422 -86t-325.5 111t-115.5 338t122 418.5t254.5 251t234.5 59.5q193 0 305 -114t112 -304q0 -72 -22 -215h-807q-12 -64 -12 -110z
M678 1349q-27 0 -27 24q0 6 1 9l29 144q4 27 32 27h145q27 0 27 -24q0 -6 -1 -9l-29 -144q-6 -27 -32 -27h-145z" />
    <glyph glyph-name="Eogonek" unicode="&#x118;" 
d="M737 -200q0 -72 96 -72q63 0 127 30l-25 -133q-69 -20 -153 -20t-137.5 40t-53.5 110q0 109 152 245h-690l291 1493h885l-33 -170h-684l-86 -442h653l-32 -170h-654l-104 -541h702l-33 -170h-96q-125 -119 -125 -200z" />
    <glyph glyph-name="eogonek" unicode="&#x119;" 
d="M948 751q0 106 -65 173t-185 67t-220.5 -90t-145.5 -242h606q10 45 10 92zM285 406q0 -133 76 -206t242 -73t394 113l-36 -183q-89 -36 -174 -57q-125 -119 -125 -200q0 -72 96 -72q63 0 127 30l-25 -133q-69 -20 -153 -20t-137.5 40t-53.5 110q0 99 125 220
q-42 -4 -85 -4q-227 0 -342.5 111t-115.5 338t122 418.5t254.5 251t234.5 59.5q193 0 305 -114t112 -304q0 -72 -22 -215h-807q-12 -64 -12 -110z" />
    <glyph glyph-name="Ecaron" unicode="&#x11a;" 
d="M344 1493h885l-33 -170h-684l-86 -442h653l-32 -170h-654l-104 -541h702l-33 -170h-905zM586 1861h136l139 -178l209 178h151l-264 -266h-213z" />
    <glyph glyph-name="ecaron" unicode="&#x11b;" 
d="M948 751q0 106 -65 173t-185 67t-220.5 -90t-145.5 -242h606q10 45 10 92zM285 406q0 -133 76 -206t242 -73t394 113l-36 -183q-212 -86 -422 -86t-325.5 111t-115.5 338t122 418.5t254.5 251t234.5 59.5q193 0 305 -114t112 -304q0 -72 -22 -215h-807q-12 -64 -12 -110z
M526 1673h131l119 -243l225 243h156l-320 -376h-147z" />
    <glyph glyph-name="Gcircumflex" unicode="&#x11c;" 
d="M846 1356q-203 0 -330 -155q-178 -219 -224 -622q-5 -58 -5 -85q0 -264 115 -311.5t190 -47.5q133 0 211 72l76 393h-217l30 166h410l-133 -670q-174 -125 -408 -125q-233 0 -358 134t-125 383q0 82 20 203q101 593 465 766q134 63 291 63q178 0 322 -82l-41 -207
q-131 125 -289 125zM511 1595l262 266h213l158 -266h-133l-139 178l-209 -178h-152z" />
    <glyph glyph-name="gcircumflex" unicode="&#x11d;" 
d="M524 145q60 0 124 39.5t106 107.5q120 194 120 441q0 123 -55.5 190.5t-154.5 67.5q-138 0 -221 -107.5t-115 -229.5t-31 -214q0 -160 56 -228q60 -67 171 -67zM376 -440q-167 0 -317 55l37 182q154 -90 306 -90q222 0 277.5 123t76.5 223l24 117q-57 -86 -144.5 -132
t-179.5 -46q-173 0 -264 107q-90 107 -90 299q0 136 40 272t114 245t177 171q103 61 209 61t182.5 -49t109.5 -133l47 151h164l-203 -1044q-36 -183 -139.5 -347.5t-426.5 -164.5zM397 1297l320 376h147l164 -376h-133l-117 241l-225 -241h-156z" />
    <glyph glyph-name="Gbreve" unicode="&#x11e;" 
d="M287 494q0 -264 114.5 -311.5t170.5 -47.5q150 0 231 72l76 393h-217l30 166h410l-133 -670q-176 -125 -409 -125t-358 135q-124 136 -124 382q0 186 63 402t187 377q203 253 526 253q168 0 322 -82l-41 -207q-129 125 -289 125q-386 0 -472.5 -373.5t-86.5 -488.5z
M857 1746q103 0 156 115h121q-33 -112 -126 -177q-92 -65 -216 -65q-243 0 -284 242h114q25 -90 78.5 -102.5t156.5 -12.5z" />
    <glyph glyph-name="gbreve" unicode="&#x11f;" 
d="M874 744q0 115 -56 181t-147 66q-165 0 -270 -169q-104 -169 -104 -401q0 -144 58 -210t147 -66q88 1 154 45q68 44 104 110q114 204 114 444zM102 398q0 132 40 268t96 221q56 84 147 172t263 88q99 0 176 -48q77 -50 110 -134l47 151h164l-203 -1044
q-52 -272 -186 -392t-380 -120q-166 0 -317 55l37 182q157 -90 307 -90q223 0 278 125t75 221l24 117q-121 -178 -337 -178q-160 0 -251 106q-90 107 -90 300zM802 1434q122 0 177 150h119q-31 -140 -120 -213q-90 -74 -226 -74t-210 63q-73 64 -73 187l1 5v15q0 9 2 17h120
v-17q0 -65 44 -99t166 -34z" />
    <glyph glyph-name="Gdotaccent" unicode="&#x120;" 
d="M78 487q0 188 66 410t184 369q206 254 524 254q164 0 324 -82l-41 -207q-129 125 -290 125q-199 0 -341 -170t-179.5 -396.5t-37.5 -302.5q0 -168 79 -260t220 -92t217 72l76 393h-217l30 166h410l-133 -670q-173 -125 -408 -125q-234 0 -358.5 134t-124.5 382zM783 1627
q-16 0 -25.5 11t-6.5 28l27 143q4 23 29 23h141q16 0 26 -11t7 -28l-28 -143q-4 -23 -29 -23h-141z" />
    <glyph glyph-name="gdotaccent" unicode="&#x121;" 
d="M297 429q0 -284 210 -284q245 0 306 245.5t61 356.5t-55 177.5t-152 66.5q-165 0 -267.5 -174.5t-102.5 -387.5zM96 -203q146 -90 304 -90t237.5 80.5t118.5 265.5l24 117q-59 -90 -147.5 -134t-178.5 -44q-170 0 -261 106.5t-91 304.5t123.5 471t444.5 273
q79 0 154.5 -48.5t109.5 -133.5l47 151h164l-203 -1044q-52 -266 -185 -389t-379 -123q-166 0 -319 55zM664 1348q-27 0 -27 24q0 6 1 9l29 144q4 27 32 27h145q27 0 27 -24q0 -6 -1 -9l-29 -144q-6 -27 -32 -27h-145z" />
    <glyph glyph-name="uni0122" unicode="&#x122;" 
d="M463 -228h239l-254 -345h-146zM78 487q0 188 66 410t184 369q206 254 524 254q164 0 324 -82l-41 -207q-129 125 -290 125q-199 0 -341 -170t-179.5 -396.5t-37.5 -302.5q0 -168 79 -260t220 -92t217 72l76 393h-217l30 166h410l-133 -670q-173 -125 -408 -125
q-234 0 -358.5 134t-124.5 382z" />
    <glyph glyph-name="uni0123" unicode="&#x123;" 
d="M297 429q0 -284 210 -284q245 0 306 245.5t61 356.5t-55 177.5t-152 66.5q-165 0 -267.5 -174.5t-102.5 -387.5zM96 -203q146 -90 304 -90t237.5 80.5t118.5 265.5l24 117q-59 -90 -147.5 -134t-178.5 -44q-170 0 -261 106.5t-91 304.5t123.5 471t444.5 273
q79 0 154.5 -48.5t109.5 -133.5l47 151h164l-203 -1044q-52 -266 -185 -389t-379 -123q-166 0 -319 55zM804 1614h146l-161 -345h-239z" />
    <glyph glyph-name="Hcircumflex" unicode="&#x124;" 
d="M-8 0l291 1493h202l-118 -612h553l118 612h203l-291 -1493h-202l139 711h-555l-137 -711h-203zM467 1595l262 266h213l158 -266h-133l-139 178l-209 -178h-152z" />
    <glyph glyph-name="hcircumflex" unicode="&#x125;" 
d="M807 1147q137 0 213 -71t76 -199q0 -80 -21 -183l-135 -694h-184l135 695q3 9 2 9l12 67q4 17 4 46q0 170 -179 170q-129 0 -217.5 -93t-121.5 -261l-123 -633h-184l303 1556h184l-116 -604q150 195 352 195zM587 1595l262 266h213l158 -266h-133l-139 178l-209 -178
h-152z" />
    <glyph glyph-name="Hbar" unicode="&#x126;" 
d="M919 881l44 224h-554l-44 -224h554zM207 1105h-134l32 164h134l43 224h202l-43 -224h554l43 224h202l-43 -224h135l-32 -164h-135l-215 -1105h-202l138 711h-554l-138 -711h-202z" />
    <glyph glyph-name="hbar" unicode="&#x127;" 
d="M784 1147q153 0 211 -78.5t58 -206.5q0 -71 -19 -168l-134 -694h-185l135 695q12 63 12 105q0 88 -36.5 137.5t-136.5 49.5q-195 0 -258 -132.5t-80 -221.5l-123 -633h-184l247 1270h-125l32 164h125l23 122h184l-23 -122h353l-32 -164h-353l-62 -318q135 195 371 195z
" />
    <glyph glyph-name="Itilde" unicode="&#x128;" 
d="M90 170h313l224 1153h-314l33 170h830l-33 -170h-314l-223 -1153h314l-33 -170h-830zM688 1846q72 0 135 -47l35 -26q36 -27 72 -27q84 0 108 100h125q-32 -111 -97 -165t-138 -54t-132 43l-34 25l-2 1q-43 32 -80 32q-69 0 -107 -101h-125q70 219 240 219z" />
    <glyph glyph-name="itilde" unicode="&#x129;" 
d="M596 298q0 -146 180 -146h211l-31 -156h-207q-342 0 -342 256q0 69 19 156l133 568h-246l29 144h430l-162 -716q-6 -22 -9 -51q-3 -28 -4 -36.5t-1 -18.5zM551 1425q-77 0 -94 -153h-125q36 282 223 282q77 0 146 -69l47 -47q39 -39 70 -39q81 0 98 155h125
q-37 -284 -224 -284q-78 0 -145 69l-47 49q-36 37 -74 37z" />
    <glyph glyph-name="Imacron" unicode="&#x12a;" 
d="M90 170h313l224 1153h-314l33 170h830l-33 -170h-314l-223 -1153h314l-33 -170h-830zM531 1800h598l-29 -148h-598z" />
    <glyph glyph-name="imacron" unicode="&#x12b;" 
d="M596 297q0 -145 180 -145h211l-31 -156h-207q-342 0 -342 256q0 72 19 156l133 568h-246l29 144h430l-162 -716q-14 -56 -14 -107zM409 1468h598l-29 -148h-598z" />
    <glyph glyph-name="Iogonek" unicode="&#x12e;" 
d="M485 -200q0 -72 96 -72q63 0 127 30l-25 -133q-69 -20 -153 -20t-137.5 40t-53.5 110q0 109 152 245h-398l33 170h313l224 1153h-314l33 170h830l-33 -170h-314l-223 -1153h314l-33 -170h-313q-125 -119 -125 -200z" />
    <glyph glyph-name="iogonek" unicode="&#x12f;" 
d="M669 -184q0 -72 96 -72q63 0 127 30l-25 -133q-69 -20 -153 -20t-137.5 40t-53.5 110q0 104 136 230q-252 32 -252 251q0 69 19 156l133 568h-246l29 144h430l-162 -716q-6 -22 -9 -51q-3 -28 -4 -36.5t-1 -18.5q0 -146 180 -146h211l-31 -156h-182q-105 -108 -105 -180z
M631 1323q-34 0 -27 33l34 173q4 27 32 27h124q34 0 27 -33l-34 -173q-5 -27 -32 -27h-124z" />
    <glyph glyph-name="Idotaccent" unicode="&#x130;" 
d="M90 170h313l224 1153h-314l33 170h830l-33 -170h-314l-223 -1153h314l-33 -170h-830zM711 1627q-27 0 -27 24q0 6 1 9l29 145q4 27 32 27h142q34 0 27 -33l-28 -145q-5 -27 -32 -27h-144z" />
    <glyph glyph-name="dotlessi" unicode="&#x131;" 
d="M596 297q0 -145 180 -145h211l-31 -156h-207q-342 0 -342 256q0 72 19 156l133 568h-246l29 144h430l-162 -716q-14 -56 -14 -107z" />
    <glyph glyph-name="IJ" unicode="&#x132;" 
d="M316 1493h203l-211 -1087h-203zM623 203q116 0 174 74t69 129l177 917h-320l33 170l523 1l-210 -1088q-23 -111 -95 -204t-176 -147.5t-214 -54.5h-558l39 203h558z" />
    <glyph glyph-name="ij" unicode="&#x133;" 
d="M527 -270q180 0 228 250l194 997h-267l28 143h451l-222 -1140q-37 -195 -146.5 -300.5t-276.5 -105.5h-343l31 156h323zM290 1120h184l-218 -1120h-184zM1011 1344q0 7 1 9l34 173q6 30 36 30h144q25 0 25 -21q0 -7 -1 -9l-34 -173q-6 -30 -36 -30h-144q-25 0 -25 21z
M324 1344q0 7 1 9l34 173q6 30 36 30h144q25 0 25 -21q0 -7 -1 -9l-34 -173q-6 -30 -36 -30h-144q-25 0 -25 21z" />
    <glyph glyph-name="Jcircumflex" unicode="&#x134;" 
d="M380 135q98 0 158.5 31.5t98.5 107.5t65 213l164 836h-381l33 170h584l-197 -1006q-56 -289 -178 -403q-121 -113 -332 -113t-420 90l45 236q146 -162 360 -162zM688 1595l262 266h213l158 -266h-133l-139 178l-209 -178h-152z" />
    <glyph glyph-name="jcircumflex" unicode="&#x135;" 
d="M288 -270q96 0 150.5 59.5t79.5 190.5l192 997h-317l28 143h502l-221 -1140q-41 -212 -142 -309t-282 -97h-254l31 156h233zM518 1297l320 376h147l164 -376h-133l-117 241l-225 -241h-156z" />
    <glyph glyph-name="uni0136" unicode="&#x136;" 
d="M439 -199h239l-254 -345h-146zM283 1493h202l-127 -647l742 647h254l-703 -619l428 -874h-219l-360 741l-193 -168l-112 -573h-203z" />
    <glyph glyph-name="uni0137" unicode="&#x137;" 
d="M477 -199h239l-254 -345h-146zM393 1556h191l-170 -874l549 438h241l-520 -422l373 -698h-213l-307 582l-168 -133l-88 -449h-191z" />
    <glyph glyph-name="kgreenlandic" unicode="&#x138;" 
d="M315 1120h190l-91 -465l574 465h224l-523 -422l374 -698h-225l-302 578l-162 -129l-87 -449h-190z" />
    <glyph glyph-name="Lacute" unicode="&#x139;" 
d="M369 1493h202l-258 -1323h721l-33 -170h-923zM839 1860h208l-307 -264h-160z" />
    <glyph glyph-name="lacute" unicode="&#x13a;" 
d="M586 289q0 -141 180 -141h211l-31 -156h-207q-342 0 -342 253q0 62 19 159l211 1008h-316l29 144h500l-240 -1156q-14 -70 -14 -111zM889 1901h208l-307 -264h-160z" />
    <glyph glyph-name="uni013B" unicode="&#x13b;" 
d="M443 -199h239l-254 -345h-146zM369 1493h202l-258 -1323h721l-33 -170h-923z" />
    <glyph glyph-name="uni013C" unicode="&#x13c;" 
d="M512 -199h239l-254 -345h-146zM586 289q0 -141 180 -141h211l-31 -156h-207q-342 0 -342 253q0 62 19 159l211 1008h-316l29 144h500l-240 -1156q-14 -70 -14 -111z" />
    <glyph glyph-name="Lcaron" unicode="&#x13d;" 
d="M887 1492h219l-208 -376h-156zM369 1493h202l-258 -1323h721l-33 -170h-923z" />
    <glyph glyph-name="lcaron" unicode="&#x13e;" 
d="M1017 1556h219l-208 -376h-156zM586 289q0 -141 180 -141h211l-31 -156h-207q-342 0 -342 253q0 62 19 159l211 1008h-316l29 144h500l-240 -1156q-14 -70 -14 -111z" />
    <glyph glyph-name="Ldot" unicode="&#x13f;" 
d="M649 561q0 7 1 9l28 144q6 30 36 30h145q25 0 25 -21q0 -7 -1 -9l-28 -144q-6 -30 -36 -30h-145q-25 0 -25 21zM368 1493h203l-257 -1323h721l-33 -170h-924z" />
    <glyph glyph-name="ldot" unicode="&#x140;" 
d="M815 561q0 7 1 9l28 144q6 30 36 30h145q25 0 25 -21q0 -7 -1 -9l-28 -144q-6 -30 -36 -30h-145q-25 0 -25 21zM582 303q0 -155 142 -155h215l-30 -156h-233q-169 0 -225 91.5t-56 165.5t14 149l197 1014h-295l28 144h479l-225 -1158q-11 -58 -11 -95z" />
    <glyph glyph-name="Lslash" unicode="&#x141;" 
d="M195 563l-150 -104l-74 100l260 180l140 752h202l-114 -592l297 209l73 -100l-399 -279l-113 -561h721l-32 -168h-924z" />
    <glyph glyph-name="lslash" unicode="&#x142;" 
d="M586 291q0 -143 180 -143h211l-31 -156h-207q-342 0 -342 258q0 78 19 154l59 286l-313 -219l-74 99l424 292l115 550h-316l29 144h500l-115 -550l315 217l74 -98l-424 -293l-90 -432q-3 -15 -5.5 -33t-5.5 -39t-3 -37z" />
    <glyph glyph-name="Nacute" unicode="&#x143;" 
d="M285 1493h256l264 -1229l239 1229h195l-291 -1493h-256l-264 1229l-240 -1229h-194zM907 1866h208l-307 -264h-160z" />
    <glyph glyph-name="nacute" unicode="&#x144;" 
d="M809 1147q133 0 210 -73t77 -200q0 -71 -21 -180l-135 -694h-184l135 695q2 5 10 45t8 81q0 79 -45.5 122.5t-121.5 43.5q-138 0 -228.5 -93.5t-122.5 -260.5l-123 -633h-184l219 1120h164l-12 -168q152 195 354 195zM900 1685h219l-395 -376h-156z" />
    <glyph glyph-name="uni0145" unicode="&#x145;" 
d="M375 -199h239l-254 -345h-146zM285 1493h256l264 -1229l239 1229h195l-291 -1493h-256l-264 1229l-240 -1229h-194z" />
    <glyph glyph-name="uni0146" unicode="&#x146;" 
d="M416 -199h239l-254 -345h-146zM809 1147q133 0 210 -73t77 -200q0 -71 -21 -180l-135 -694h-184l135 695q2 5 10 45t8 81q0 79 -45.5 122.5t-121.5 43.5q-138 0 -228.5 -93.5t-122.5 -260.5l-123 -633h-184l219 1120h164l-12 -168q152 195 354 195z" />
    <glyph glyph-name="Ncaron" unicode="&#x147;" 
d="M285 1493h256l264 -1229l239 1229h195l-291 -1493h-256l-264 1229l-240 -1229h-194zM534 1861h136l139 -178l209 178h151l-264 -266h-213z" />
    <glyph glyph-name="ncaron" unicode="&#x148;" 
d="M809 1147q133 0 210 -73t77 -200q0 -71 -21 -180l-135 -694h-184l135 695q2 5 10 45t8 81q0 79 -45.5 122.5t-121.5 43.5q-138 0 -228.5 -93.5t-122.5 -260.5l-123 -633h-184l219 1120h164l-12 -168q152 195 354 195zM519 1673h131l119 -243l225 243h156l-320 -376h-147z
" />
    <glyph glyph-name="napostrophe" unicode="&#x149;" 
d="M1082 809q0 178 -176 178q-129 0 -215.5 -91t-120.5 -263l-123 -633h-184l218 1120h166l-15 -168q140 195 369 195q272 0 272 -283q0 -81 -19 -170l-135 -694h-185l135 694q13 68 13 115zM252 1350l40 206h252l-40 -206l-272 -383h-153z" />
    <glyph glyph-name="Eng" unicode="&#x14a;" 
d="M902 1522q293 0 293 -322q0 -91 -22 -201l-198 -1019q-57 -296 -199 -351t-224 -55h-205l30 156h167q93 0 148 63.5t83 206.5l197 1009q16 80 16 165t-46.5 134.5t-141.5 49.5q-140 0 -237 -105.5t-138 -315.5l-183 -937h-202l291 1493h182l-19 -198q154 227 408 227z
" />
    <glyph glyph-name="eng" unicode="&#x14b;" 
d="M494 952q139 195 366 195t250.5 -115.5t23.5 -179.5t-18 -158l-139 -714q-57 -296 -199 -351t-224 -55h-205l30 156h185q180 0 228 250l139 714q12 64 12 106q0 88 -35 137.5t-152 49.5t-204 -91t-120 -263l-123 -633h-184l218 1120h164z" />
    <glyph glyph-name="Omacron" unicode="&#x14c;" 
d="M491 135q144 0 241 124t154.5 375t57.5 372q0 120 -20 235t-190 115q-138 0 -235.5 -127t-154.5 -376t-57 -409t47 -234.5t157 -74.5zM751 1520q400 0 400 -483q0 -247 -87 -521q-118 -369 -281 -457t-303 -88q-398 0 -398 488q0 252 85 516q116 363 278.5 454t305.5 91z
M531 1800h598l-29 -148h-598z" />
    <glyph glyph-name="omacron" unicode="&#x14d;" 
d="M524 127q189 0 292.5 180t103.5 400q0 149 -52.5 216.5t-158.5 67.5q-189 0 -292.5 -180t-103.5 -400q0 -149 52.5 -216.5t158.5 -67.5zM117 392q-1 288 159 521q160 234 441 234q193 0 295 -106.5t102 -313.5t-125.5 -481.5t-474.5 -274.5q-196 0 -296.5 109t-100.5 312
zM469 1495h598l-29 -148h-598z" />
    <glyph glyph-name="Ohungarumlaut" unicode="&#x150;" 
d="M491 135q144 0 241 124t154.5 375t57.5 372q0 120 -20 235t-190 115q-138 0 -235.5 -127t-154.5 -376t-57 -409t47 -234.5t157 -74.5zM751 1520q400 0 400 -483q0 -247 -87 -521q-118 -369 -281 -457t-303 -88q-398 0 -398 488q0 252 85 516q116 363 278.5 454t305.5 91z
M1085 1859h186l-280 -264h-154zM766 1859h186l-280 -264h-154z" />
    <glyph glyph-name="ohungarumlaut" unicode="&#x151;" 
d="M524 127q189 0 292.5 180t103.5 400q0 149 -52.5 216.5t-158.5 67.5q-189 0 -292.5 -180t-103.5 -400q0 -149 52.5 -216.5t158.5 -67.5zM117 392q-1 288 159 521q160 234 441 234q193 0 295 -106.5t102 -313.5t-125.5 -481.5t-474.5 -274.5q-196 0 -296.5 109t-100.5 312
zM1028 1673h197l-324 -376h-135zM688 1673h189l-302 -376h-135z" />
    <glyph glyph-name="OE" unicode="&#x152;" 
d="M229 416q0 -246 248 -246h62l225 1153h-62q-186 0 -255.5 -94t-129.5 -274t-74 -346t-14 -193zM467 0q-333 0 -382.5 159t-49.5 243q0 163 63.5 503t280.5 491q137 97 379 97h594l-33 -170h-358l-87 -442h328l-33 -170h-327l-107 -541h369l-33 -170h-604z" />
    <glyph glyph-name="oe" unicode="&#x153;" 
d="M1110 840q0 151 -130 151q-122 0 -162.5 -101t-49.5 -155l-14 -82h329l15 76q12 64 12 111zM306 123q64 -1 103 27t56 54.5t26 46.5q71 158 112 484q9 67 9 121t-36 97q-36 42 -102 42q-131 0 -189 -139q-43 -102 -80 -298q-37 -197 -37 -273q0 -75 38 -119
q36 -44 100 -43zM-6 292q0 95 13.5 172t17.5 100q8 44 39 165t70 190t73.5 107.5t104.5 79.5t168 41q183 0 255 -127q117 127 273 127q124 0 194 -77t70 -189t-33 -277l-16 -90h-502q-35 -161 -35 -234t49 -117t126 -44q155 0 274 108l-35 -172q-124 -84 -261 -84
q-194 0 -266 133q-121 -133 -273 -133t-229 83t-77 238z" />
    <glyph glyph-name="Racute" unicode="&#x154;" 
d="M570 797q165 0 261.5 86.5t96.5 212.5q0 127 -63 179t-199 52h-213l-102 -530h219zM697 1493q207 0 320.5 -89t113.5 -262t-105 -294t-280 -143q72 -12 117 -70q45 -57 96 -227l121 -408h-201l-106 377q-43 153 -97.5 203.5t-165.5 50.5h-192l-123 -631h-203l289 1493
h416zM839 1860h208l-307 -264h-160z" />
    <glyph glyph-name="racute" unicode="&#x155;" 
d="M992 1147q146 0 227 -72l-35 -186q-88 88 -247 88t-275 -115.5t-154 -312.5l-107 -549h-184l217 1120h164l-20 -219q136 246 414 246zM1045 1673h219l-395 -376h-156z" />
    <glyph glyph-name="uni0156" unicode="&#x156;" 
d="M440 -199h239l-254 -345h-146zM570 797q165 0 261.5 86.5t96.5 212.5q0 127 -63 179t-199 52h-213l-102 -530h219zM697 1493q207 0 320.5 -89t113.5 -262t-105 -294t-280 -143q72 -12 117 -70q45 -57 96 -227l121 -408h-201l-106 377q-43 153 -97.5 203.5t-165.5 50.5
h-192l-123 -631h-203l289 1493h416z" />
    <glyph glyph-name="uni0157" unicode="&#x157;" 
d="M213 -199h239l-254 -345h-146zM992 1147q146 0 227 -72l-35 -186q-88 88 -247 88t-275 -115.5t-154 -312.5l-107 -549h-184l217 1120h164l-20 -219q136 246 414 246z" />
    <glyph glyph-name="Rcaron" unicode="&#x158;" 
d="M570 797q165 0 261.5 86.5t96.5 212.5q0 127 -63 179t-199 52h-213l-102 -530h219zM697 1493q207 0 320.5 -89t113.5 -262t-105 -294t-280 -143q72 -12 117 -70q45 -57 96 -227l121 -408h-201l-106 377q-43 153 -97.5 203.5t-165.5 50.5h-192l-123 -631h-203l289 1493
h416zM438 1861h136l139 -178l209 178h151l-264 -266h-213z" />
    <glyph glyph-name="rcaron" unicode="&#x159;" 
d="M992 1147q146 0 227 -72l-35 -186q-88 88 -247 88t-275 -115.5t-154 -312.5l-107 -549h-184l217 1120h164l-20 -219q136 246 414 246zM591 1673h131l119 -243l225 243h156l-320 -376h-147z" />
    <glyph glyph-name="Sacute" unicode="&#x15a;" 
d="M848 452q0 81 -46 123t-175 84l-101 33q-185 60 -258 132t-73 189q0 227 166.5 367t420.5 140q166 0 365 -78l-39 -205q-163 119 -337 119t-279 -81.5t-105 -208.5q0 -75 49 -116.5t178 -83.5l121 -39q172 -56 243 -137.5t71 -205.5q0 -237 -166.5 -375t-447.5 -138
q-210 0 -410 90l41 209q189 -135 383 -135t296.5 88t102.5 229zM907 1866h208l-307 -264h-160z" />
    <glyph glyph-name="sacute" unicode="&#x15b;" 
d="M1042 901q-147 92 -294 92t-223 -51.5t-76 -133.5q0 -83 96.5 -122t146.5 -47l72 -18q233 -58 233 -256q0 -170 -145 -282t-376 -112q-161 0 -361 70l37 190q187 -106 336 -106t234 58.5t85 141.5q0 114 -196 162l-95 25q-128 34 -189 96t-61 158q0 180 131.5 280.5
t332.5 100.5t347 -66zM900 1680h219l-395 -376h-156z" />
    <glyph glyph-name="Scircumflex" unicode="&#x15c;" 
d="M848 444q0 79 -44 129q-45 45 -177 86l-101 33q-187 62 -259 134t-72 188q0 225 165 366q168 140 423 140q168 0 364 -78l-39 -205q-164 119 -341 119t-278 -82q-102 -82 -102 -206q0 -75 49 -118t178 -84l121 -39q167 -54 240.5 -135t73.5 -206q0 -241 -167 -378
t-447 -137q-206 0 -410 90l41 209q194 -135 409 -135q168 0 271 88q102 88 102 221zM454 1595l262 266h213l158 -266h-133l-139 178l-209 -178h-152z" />
    <glyph glyph-name="scircumflex" unicode="&#x15d;" 
d="M752 993q-221 0 -262 -73.5t-41 -113.5q0 -76 96 -118q54 -24 140 -47h1l78 -20q114 -27 174 -89q59 -62 59 -155q0 -183 -144 -295q-146 -111 -376 -111q-165 0 -362 70l37 190q192 -106 339 -106q148 0 232 60t84 144q0 56 -44.5 92t-151.5 66l-95 25
q-131 34 -190.5 97.5t-59.5 157.5q0 179 130 280q130 100 334 100t347 -66l-35 -180q-136 92 -290 92zM417 1297l320 376h147l164 -376h-133l-117 241l-225 -241h-156z" />
    <glyph glyph-name="Scedilla" unicode="&#x15e;" 
d="M334 -274q160 0 160 113q0 54 -43 132h-16q-210 0 -410 90l41 209q193 -135 409 -135q168 0 271 88q102 88 102 221q0 83 -35 119t-77.5 55.5t-108.5 40.5l-101 33q-184 59 -258 133q-73 73 -73 187q-1 229 165 368q166 140 423 140q169 0 364 -78l-39 -205
q-165 119 -340 119t-278 -82t-103 -206q0 -75 49 -118t178 -84l121 -39q166 -53 240 -134q74 -82 74 -206q0 -242 -166 -378q-124 -102 -316 -129q60 -112 60 -166q1 -99 -69 -154t-177 -55t-199 30l25 129q77 -38 127 -38z" />
    <glyph glyph-name="scedilla" unicode="&#x15f;" 
d="M334 -274q160 0 160 111q0 42 -16.5 78t-26.5 56q-119 4 -203.5 28.5t-132.5 41.5l37 190q196 -106 341 -106q146 0 230 60t84 142t-70.5 113.5t-125.5 46.5l-95 25q-250 66 -250 254q0 180 130 280q130 101 334 101t347 -66l-35 -180q-140 92 -291 92t-227 -51
q-75 -51 -75 -134q0 -89 116 -129.5t119 -39t8 -0.5l72 -18q233 -59 233 -244q0 -184 -144 -295q-113 -87 -284 -106q58 -104 58.5 -182.5t-69.5 -133.5t-177 -55t-199 30l25 129q77 -38 127 -38z" />
    <glyph glyph-name="Scaron" unicode="&#x160;" 
d="M1108 1237q-165 119 -340 119t-278 -82t-103 -206q0 -75 49 -118t178 -84l121 -39q166 -53 240 -134q74 -82 74 -206q0 -242 -167 -379t-447 -137q-210 0 -410 90l41 209q193 -135 409 -135q168 0 271 88q102 88 102 221q0 83 -35 119t-77.5 55.5t-108.5 40.5l-101 33
q-184 59 -258 133q-73 73 -73 187q-1 229 165 368q166 140 423 140q169 0 364 -78zM489 1861h136l139 -178l209 178h151l-264 -266h-213z" />
    <glyph glyph-name="scaron" unicode="&#x161;" 
d="M449 808q0 -89 116 -129.5t119 -39t8 -0.5l72 -18q233 -59 233 -244q0 -184 -143 -295t-377 -111q-164 0 -362 70l37 190q196 -106 341 -106q146 0 230 60t84 142t-70.5 113.5t-125.5 46.5l-95 25q-250 66 -250 254q0 180 130 280q130 101 334 101t347 -66l-35 -180
q-140 92 -291 92t-227 -51q-75 -51 -75 -134zM471 1673h131l119 -243l225 243h156l-320 -376h-147z" />
    <glyph glyph-name="uni0162" unicode="&#x162;" 
d="M316 -272q125 0 142 92q5 26 5 64t-38 116h-53l257 1323h-469l33 170h1139l-33 -170h-467l-257 -1323h-72l32 -41q59 -68 59 -129q0 -24 -4 -49q-17 -83 -86 -131q-70 -45 -174 -45t-184 24l25 131q59 -32 145 -32z" />
    <glyph glyph-name="uni0163" unicode="&#x163;" 
d="M431 -255q124 0 141 92l2 21q0 48 -54 156q-162 50 -162 208q0 34 4 62l132 693h-299l28 143h299l62 318h184l-61 -318h417l-28 -143h-418l-119 -612l-4 -26q-4 -19 -4 -21l-4 -55q0 -87 73 -108q37 -12 107 -12h207l-29 -147h-223q-24 0 -31 1q57 -86 57 -153
q0 -114 -90 -177q-66 -45 -172 -45t-186 24l26 131q62 -32 145 -32z" />
    <glyph glyph-name="Tcaron" unicode="&#x164;" 
d="M629 1323h-469l33 170h1140l-33 -170h-469l-256 -1323h-204zM508 1861h136l139 -178l209 178h151l-264 -266h-213z" />
    <glyph glyph-name="tcaron" unicode="&#x165;" 
d="M727 143h207l-29 -147h-223q-245 0 -284.5 83t-39.5 140t17 146l119 612h-299l28 143h299l62 318h184l-61 -318h417l-28 -143h-418l-119 -612q-3 -17 -4.5 -26t-2.5 -14l-1 -5l-4 -57q0 -67 39 -93t141 -27zM1063 1680h219l-208 -376h-156z" />
    <glyph glyph-name="Tbar" unicode="&#x166;" 
d="M483 577h-265l33 170h265l112 576h-469l33 170h1139l-33 -170h-467l-112 -576h265l-33 -170h-265l-112 -577h-203z" />
    <glyph glyph-name="tbar" unicode="&#x167;" 
d="M667 -4q-270 0 -294.5 94t-24.5 148t14 127l45 237h-229l28 142h229l45 233h-299l28 143h299l62 318h184l-62 -318h418l-28 -143h-418l-45 -233h229l-28 -142h-229l-45 -237q-9 -50 -9 -97t22 -76q37 -49 155 -49h207l-29 -147h-225z" />
    <glyph glyph-name="Utilde" unicode="&#x168;" 
d="M135 101.5q-55 130.5 -55 209.5t35 262l178 920h203l-179 -920q-1 -6 -1.5 -8t-1.5 -8.5t-18 -89.5q-17 -82 -17 -161t54.5 -125t162.5 -46q185 0 260 118q36 58 58.5 156t35.5 164l178 920h203l-178 -920q-42 -212 -77.5 -293.5t-66.5 -121.5t-71 -72
q-145 -115 -356 -115q-292 0 -347 130.5zM686 1846q72 0 135 -47l35 -26q36 -27 72 -27q84 0 108 100h125q-32 -111 -97 -165t-138 -54t-132 43l-34 25l-2 1q-43 32 -80 32q-69 0 -107 -101h-125q70 219 240 219z" />
    <glyph glyph-name="utilde" unicode="&#x169;" 
d="M165 79.5q-40 106.5 -40 178.5t18 168l133 694h185l-135 -694q-15 -80 -15 -144t46.5 -106.5t131.5 -42.5q124 0 213 90.5t123 263.5l123 633h185l-218 -1120h-164l13 168q-144 -195 -352 -195q-207 0 -247 106.5zM616 1425q-77 0 -94 -153h-125q36 282 223 282
q77 0 146 -69l47 -47q39 -39 70 -39q81 0 98 155h125q-37 -284 -224 -284q-78 0 -145 69l-47 49q-36 37 -74 37z" />
    <glyph glyph-name="Umacron" unicode="&#x16a;" 
d="M135 101.5q-55 130.5 -55 209.5t35 262l178 920h203l-179 -920q-1 -6 -1.5 -8t-1.5 -8.5t-18 -89.5q-17 -82 -17 -161t54.5 -125t162.5 -46q185 0 260 118q36 58 58.5 156t35.5 164l178 920h203l-178 -920q-42 -212 -77.5 -293.5t-66.5 -121.5t-71 -72
q-145 -115 -356 -115q-292 0 -347 130.5zM531 1800h598l-29 -148h-598z" />
    <glyph glyph-name="umacron" unicode="&#x16b;" 
d="M165 79.5q-40 106.5 -40 178.5t18 168l133 694h185l-135 -694q-15 -80 -15 -144t46.5 -106.5t131.5 -42.5q124 0 213 90.5t123 263.5l123 633h185l-218 -1120h-164l13 168q-144 -195 -352 -195q-207 0 -247 106.5zM469 1469h598l-29 -148h-598z" />
    <glyph glyph-name="Ubreve" unicode="&#x16c;" 
d="M477 -29q-190 0 -293.5 90t-103.5 254q0 98 35 258l178 920h203l-179 -920l-2 -12l-6 -29q-30 -148 -30 -204q-1 -100 53 -147q54 -46 155 -46t164 30t95.5 73.5t52.5 113.5t51 221l178 920h203l-178 -920q-35 -194 -89 -320q-87 -187 -285 -251q-94 -31 -202 -31z
M800 1746q164 0 218 115h121q-33 -112 -126 -177t-217 -65t-193 61q-69 63 -90 181h114q25 -90 78.5 -102.5t94.5 -12.5z" />
    <glyph glyph-name="ubreve" unicode="&#x16d;" 
d="M125 222q0 121 18 204l133 694h185l-135 -694l-5 -36l-6 -35q-4 -25 -4 -57q0 -79 47.5 -122t119.5 -43q137 0 226 92q88 94 121 262l123 633h185l-218 -1120h-164l13 168q-147 -195 -355 -195q-176 0 -230 95.5t-54 153.5zM801.5 1434q122.5 0 177.5 150h119
q-31 -140 -119.5 -213.5t-226.5 -73.5t-210.5 64.5t-72.5 185.5q0 15 1 16v10l2 11h120v-17q0 -64 43.5 -98.5t166 -34.5z" />
    <glyph glyph-name="Uring" unicode="&#x16e;" 
d="M135 101.5q-55 130.5 -55 209.5t35 262l178 920h203l-179 -920q-1 -6 -1.5 -8t-1.5 -8.5t-18 -89.5q-17 -82 -17 -161t54.5 -125t162.5 -46q185 0 260 118q36 58 58.5 156t35.5 164l178 920h203l-178 -920q-42 -212 -77.5 -293.5t-66.5 -121.5t-71 -72
q-145 -115 -356 -115q-292 0 -347 130.5zM760 1475q32 0 59.5 12t48 32t32.5 47.5t12 59.5t-12 59.5t-32.5 48t-48 32.5t-59.5 12t-59.5 -11.5t-48 -32t-32 -48t-11.5 -59.5t11.5 -60t32 -48.5t48 -32t59.5 -11.5zM760 1352q-57 0 -107 21.5t-87 58.5t-58.5 87t-21.5 108
t21.5 108t58.5 87t87 58t107 21t107.5 -21t87.5 -58t58.5 -87t21.5 -108t-21.5 -108t-58.5 -87t-87.5 -58.5t-107.5 -21.5z" />
    <glyph glyph-name="uring" unicode="&#x16f;" 
d="M165 79.5q-40 106.5 -40 178.5t18 168l133 694h185l-135 -694q-15 -80 -15 -144t46.5 -106.5t131.5 -42.5q124 0 213 90.5t123 263.5l123 633h185l-218 -1120h-164l13 168q-144 -195 -352 -195q-207 0 -247 106.5zM738 1309q32 0 59.5 12t48 32t32.5 47.5t12 59.5
t-12 59.5t-32.5 48t-48 32.5t-59.5 12t-59.5 -11.5t-48 -32t-32 -48t-11.5 -59.5t11.5 -60t32 -48.5t48 -32t59.5 -11.5zM738 1186q-57 0 -107 21.5t-87 58.5t-58.5 87t-21.5 108t21.5 108t58.5 87t87 58t107 21t107.5 -21t87.5 -58t58.5 -87t21.5 -108t-21.5 -108
t-58.5 -87t-87.5 -58.5t-107.5 -21.5z" />
    <glyph glyph-name="Uhungarumlaut" unicode="&#x170;" 
d="M135 101.5q-55 130.5 -55 209.5t35 262l178 920h203l-179 -920q-1 -6 -1.5 -8t-1.5 -8.5t-18 -89.5q-17 -82 -17 -161t54.5 -125t162.5 -46q185 0 260 118q36 58 58.5 156t35.5 164l178 920h203l-178 -920q-42 -212 -77.5 -293.5t-66.5 -121.5t-71 -72
q-145 -115 -356 -115q-292 0 -347 130.5zM1085 1859h186l-280 -264h-154zM766 1859h186l-280 -264h-154z" />
    <glyph glyph-name="uhungarumlaut" unicode="&#x171;" 
d="M165 79.5q-40 106.5 -40 178.5t18 168l133 694h185l-135 -694q-15 -80 -15 -144t46.5 -106.5t131.5 -42.5q124 0 213 90.5t123 263.5l123 633h185l-218 -1120h-164l13 168q-144 -195 -352 -195q-207 0 -247 106.5zM1028 1648h197l-324 -376h-135zM688 1648h189l-302 -376
h-135z" />
    <glyph glyph-name="Uogonek" unicode="&#x172;" 
d="M197 -261q0 109 152 245q-131 28 -200 112.5t-69 214.5q0 79 35 262l178 920h203l-179 -920q-1 -6 -1.5 -8t-1.5 -8.5t-18 -89.5q-17 -82 -17 -161t54.5 -125t162.5 -46q185 0 260 118q36 58 58.5 156t35.5 164l178 920h203l-178 -920q-42 -212 -77.5 -293.5
t-66.5 -121.5t-87 -85t-148 -73.5t-196 -28.5h-23q-112 -110 -112 -187q0 -72 96 -72q63 0 127 30l-25 -133q-69 -20 -153 -20t-137.5 40t-53.5 110z" />
    <glyph glyph-name="uogonek" unicode="&#x173;" 
d="M791 -202q0 -72 96 -72q63 0 127 30l-25 -133q-69 -20 -153 -20t-137.5 40t-53.5 110q0 109 152 245h119q-125 -119 -125 -200zM165 79.5q-40 106.5 -40 178.5t18 168l133 694h185l-135 -694q-15 -80 -15 -144t46.5 -106.5t131.5 -42.5q124 0 213 90.5t123 263.5l123 633
h185l-218 -1120h-164l13 168q-144 -195 -352 -195q-207 0 -247 106.5z" />
    <glyph glyph-name="Wcircumflex" unicode="&#x174;" 
d="M145 1493h191l-90 -1210l329 800h211l15 -802l377 1212h198l-510 -1493h-194l-31 870l-371 -870h-188zM737 1868h213l158 -266h-133l-139 178l-209 -178h-152z" />
    <glyph glyph-name="wcircumflex" unicode="&#x175;" 
d="M92 1120h176l15 -905l268 578h162l49 -578l362 905h191l-486 -1120h-165l-60 623l-297 -623h-166zM737 1646h147l164 -376h-133l-117 241l-225 -241h-156z" />
    <glyph glyph-name="Ycircumflex" unicode="&#x176;" 
d="M508 670l-313 823h202l236 -651l497 651h218l-635 -823l-129 -670h-207zM735 1868h213l158 -266h-133l-139 178l-209 -178h-152z" />
    <glyph glyph-name="ycircumflex" unicode="&#x177;" 
d="M128 -272q119 0 175 76.5t83 129.5l43 84l-217 1102h183l172 -862l483 862h205l-439 -760q-25 -43 -49.5 -86t-30.5 -52l-126 -223q-122 -213 -175 -284q-106 -141 -296 -141h-148l29 154h108zM777 1646h147l164 -376h-133l-117 241l-225 -241h-156z" />
    <glyph glyph-name="Ydieresis" unicode="&#x178;" 
d="M508 670l-313 823h202l236 -651l497 651h218l-635 -823l-129 -670h-207zM897 1627q-34 0 -27 33l28 143q4 27 32 27h143q34 0 27 -33l-28 -143q-5 -27 -32 -27h-143zM506 1627q-34 0 -27 33l28 143q4 27 32 27h144q27 0 27 -24q0 -6 -1 -9l-29 -143q-6 -27 -32 -27h-142z
" />
    <glyph glyph-name="Zacute" unicode="&#x179;" 
d="M23 154l976 1169h-727l33 170h969l-29 -154l-979 -1169h774l-34 -170h-1012zM907 1866h208l-307 -264h-160z" />
    <glyph glyph-name="zacute" unicode="&#x17a;" 
d="M111 168l784 805h-604l28 147h814l-33 -168l-785 -805h629l-29 -147h-837zM940 1646h219l-395 -376h-156z" />
    <glyph glyph-name="Zdotaccent" unicode="&#x17b;" 
d="M23 154l976 1169h-727l33 170h969l-29 -154l-979 -1169h774l-34 -170h-1012zM783 1627q-16 0 -25.5 11t-6.5 28l27 143q4 23 29 23h141q16 0 26 -11t7 -28l-28 -143q-4 -23 -29 -23h-141z" />
    <glyph glyph-name="zdotaccent" unicode="&#x17c;" 
d="M111 168l784 805h-604l28 147h814l-33 -168l-785 -805h629l-29 -147h-837zM694 1320q-27 0 -27 24q0 6 1 9l29 144q4 27 32 27h145q27 0 27 -24q0 -6 -1 -9l-29 -144q-6 -27 -32 -27h-145z" />
    <glyph glyph-name="Zcaron" unicode="&#x17d;" 
d="M23 154l976 1169h-727l33 170h969l-29 -154l-979 -1169h774l-34 -170h-1012zM539 1861h136l139 -178l209 178h151l-264 -266h-213z" />
    <glyph glyph-name="zcaron" unicode="&#x17e;" 
d="M111 168l784 805h-604l28 147h814l-33 -168l-785 -805h629l-29 -147h-837zM501 1646h131l119 -243l225 243h156l-320 -376h-147z" />
    <glyph glyph-name="florin" unicode="&#x192;" 
d="M1035 1413q-149 0 -185.5 -93t-46.5 -161l-45 -311h303v-143h-328l-100 -635q-42 -264 -141 -380t-289 -116q-115 0 -203 43v164q102 -64 195 -64q192 0 245 301l117 687h-252v143h275l49 330q27 178 126 278q98 100 247 100q94 0 198 -36v-164q-71 57 -165 57z" />
    <glyph glyph-name="Ohorn" unicode="&#x1a0;" 
d="M891 1066q0 138 -46 214t-174 76t-225.5 -127t-154.5 -376t-57 -409t47 -234.5t163 -74.5q176 0 292.5 219t135.5 435.5t19 276.5zM1367 1557q2 -28 2 -58t-8 -78q-44 -237 -219 -237q-31 0 -56 7q12 -69 12 -141q0 -134 -42 -378.5t-182 -452.5q-165 -248 -447 -248
q-398 0 -398 488q0 252 85 516q116 363 278.5 454t305.5 91q227 0 326 -156q60 -41 104 -41q89 0 112 109q5 28 5 57t-11 68h133z" />
    <glyph glyph-name="ohorn" unicode="&#x1a1;" 
d="M418 127q189 0 292.5 180t103.5 400q0 149 -52.5 216.5t-158.5 67.5q-189 0 -292.5 -180t-103.5 -400q0 -149 52.5 -216.5t158.5 -67.5zM1218 1137q2 -28 2 -58q0 -31 -14 -109t-64 -139.5t-135 -66.5q1 -10 1 -12v-28q0 -204 -125.5 -478.5t-474.5 -274.5
q-196 0 -296.5 109t-100.5 312q-1 288 159 521q160 234 448 234t365 -244q86 2 108 109q5 28 5 57t-11 68h133z" />
    <glyph glyph-name="uni01A4" unicode="&#x1a4;" 
d="M760 766q142 0 233.5 74.5t118.5 206.5q7 35 7 67q0 104 -64.5 158.5t-185.5 54.5h-234l-109 -561h234zM465 1493h436q233 0 333 -90t100 -240q0 -54 -12 -117q-42 -220 -192 -333t-402 -113h-234l-117 -600h-202l258 1327q-54 0 -88.5 -50.5t-55.5 -156.5h-175l22 114
q24 121 112.5 190t216.5 69z" />
    <glyph glyph-name="Uhorn" unicode="&#x1af;" 
d="M1385 1557q2 -28 2 -58t-8 -78q-44 -237 -219 -237q-40 0 -73 13l-121 -624q-42 -212 -77.5 -293.5t-67 -121.5t-87.5 -85t-147.5 -73.5t-191.5 -28.5q-194 0 -298 90.5t-104 249.5q0 79 35 262l178 920h203l-179 -920q-1 -6 -1.5 -8t-1.5 -8.5t-18 -89.5
q-17 -82 -17 -161t54.5 -125t162.5 -46q185 0 260 118q36 58 58.5 156t35.5 164l178 920h203l-32 -165q25 -5 52 -5t63 35.5t36 124.5q0 35 -11 74h133z" />
    <glyph glyph-name="uhorn" unicode="&#x1b0;" 
d="M1260 1137q2 -28 2 -58t-8 -78q-44 -237 -219 -237q-40 0 -75 13l-151 -777h-164l13 168q-144 -195 -352 -195t-247.5 106.5t-39.5 178.5t18 168l133 694h185l-135 -694q-15 -80 -15 -144t46.5 -106.5t131.5 -42.5q124 0 213 90.5t123 263.5l123 633h185l-41 -211
q20 -6 50 -6t66 35.5t36 124.5q0 35 -11 74h133z" />
    <glyph glyph-name="Gcaron" unicode="&#x1e6;" 
d="M78 487q0 188 66 410t184 369q206 254 524 254q164 0 324 -82l-41 -207q-129 125 -290 125q-199 0 -341 -170t-179.5 -396.5t-37.5 -302.5q0 -168 79 -260t220 -92t217 72l76 393h-217l30 166h410l-133 -670q-173 -125 -408 -125q-234 0 -358.5 134t-124.5 382zM529 1861
h136l139 -178l209 178h151l-264 -266h-213z" />
    <glyph glyph-name="gcaron" unicode="&#x1e7;" 
d="M297 429q0 -284 210 -284q245 0 306 245.5t61 356.5t-55 177.5t-152 66.5q-165 0 -267.5 -174.5t-102.5 -387.5zM96 -203q146 -90 304 -90t237.5 80.5t118.5 265.5l24 117q-59 -90 -147.5 -134t-178.5 -44q-170 0 -261 106.5t-91 304.5t123.5 471t444.5 273
q79 0 154.5 -48.5t109.5 -133.5l47 151h164l-203 -1044q-52 -266 -185 -389t-379 -123q-166 0 -319 55zM471 1673h131l119 -243l225 243h156l-320 -376h-147z" />
    <glyph glyph-name="Oslashacute" unicode="&#x1fe;" 
d="M502 135q166 0 264 180t136 389t38 293q0 85 -2 119l-616 -887q42 -94 180 -94zM728 1356q-116 0 -225.5 -117t-162.5 -395.5t-53 -339.5t1.5 -80.5t2.5 -34.5l614 885q-61 82 -177 82zM80 453q0 297 143 682t526 385q159 0 267 -86l84 125l100 -64l-106 -158
q57 -118 57 -297q0 -299 -143.5 -684t-527.5 -385q-164 0 -273 92l-94 -133l-99 64l119 170q-53 114 -53 289zM887 1859h208l-307 -264h-160z" />
    <glyph glyph-name="oslashacute" unicode="&#x1ff;" 
d="M526 127q173 0 283.5 171t110.5 433q0 58 -9 94l-534 -639q59 -59 149 -59zM313 388q0 -50 6 -86l533 636q-57 53 -146 53q-174 0 -283.5 -170.5t-109.5 -432.5zM119 378q0 307 159 538t444 231q155 0 247 -72l112 137l93 -77l-123 -146q63 -100 63 -288t-128 -459
t-474 -271q-150 0 -254 74l-119 -141l-92 76l129 153q-57 94 -57 245zM907 1673h219l-395 -376h-156z" />
    <glyph glyph-name="uni0218" unicode="&#x218;" 
d="M335 -197h239l-254 -345h-146zM848 452q0 81 -46 123t-175 84l-101 33q-185 60 -258 132t-73 189q0 227 166.5 367t420.5 140q166 0 365 -78l-39 -205q-163 119 -337 119t-279 -81.5t-105 -208.5q0 -75 49 -116.5t178 -83.5l121 -39q172 -56 243 -137.5t71 -205.5
q0 -237 -166.5 -375t-447.5 -138q-210 0 -410 90l41 209q189 -135 383 -135t296.5 88t102.5 229z" />
    <glyph glyph-name="uni0219" unicode="&#x219;" 
d="M389 -197h239l-254 -345h-146zM1042 901q-147 92 -294 92t-223 -51.5t-76 -133.5q0 -83 96.5 -122t146.5 -47l72 -18q233 -58 233 -256q0 -170 -145 -282t-376 -112q-161 0 -361 70l37 190q187 -106 336 -106t234 58.5t85 141.5q0 114 -196 162l-95 25q-128 34 -189 96
t-61 158q0 180 131.5 280.5t332.5 100.5t347 -66z" />
    <glyph glyph-name="uni021A" unicode="&#x21a;" 
d="M627 -184q0 -101 -70.5 -156t-174.5 -55t-200 30l25 129q81 -38 147 -38t103 31t37 83t-58 160h-65l258 1323h-469l33 170h1140l-33 -170h-469l-256 -1323h-20q72 -126 72 -184z" />
    <glyph glyph-name="uni021B" unicode="&#x21b;" 
d="M768 -177q0 -101 -69.5 -156t-175.5 -55t-200 30l25 129q80 -38 146 -38t103.5 29.5t37.5 83.5t-56 156q-156 23 -188.5 91.5t-32.5 125.5t17 146l119 612h-299l28 143h299l62 318h184l-61 -318h417l-28 -143h-418l-119 -612q-3 -17 -4.5 -26t-2.5 -14l-1 -5l-4 -57
q0 -67 39 -93t141 -27h207l-29 -147h-203q66 -117 66 -173z" />
    <glyph glyph-name="uni02B9" unicode="&#x2b9;" 
d="M605 1638h190l-206 -498h-145z" />
    <glyph glyph-name="uni02BB" unicode="&#x2bb;" 
d="M504 1174l270 382h154l-172 -382l-41 -207h-252z" />
    <glyph glyph-name="uni02BC" unicode="&#x2bc;" 
d="M578 1349l40 207h252l-40 -207l-270 -382h-154z" />
    <glyph glyph-name="uni02BD" unicode="&#x2bd;" 
d="M621 1428q0 -87 90 -87l-23 -123q-200 0 -200 177q0 45 8 80l49 254h241l-49 -254h-111q-5 -22 -5 -47z" />
    <glyph glyph-name="uni02BE" unicode="&#x2be;" 
d="M823 1301q0 63 -34.5 97.5t-91.5 34.5l24 123q101 0 163.5 -62.5t62.5 -158.5q0 -84 -75 -206t-257 -122q4 25 23 123q71 0 128 54t57 117z" />
    <glyph glyph-name="uni02BF" unicode="&#x2bf;" 
d="M668.5 1434.5q75.5 121.5 256.5 121.5l-24 -123q-72 0 -128 -54.5t-56 -117.5q0 -62 34 -96.5t91 -34.5q-19 -98 -23 -123q-100 0 -163 63t-63 153t75.5 211.5z" />
    <glyph glyph-name="uni02C0" unicode="&#x2c0;" 
d="M551 1341q177 0 212.5 82.5t35.5 121.5t-32 85.5t-141 46.5t-217 -48l18 96q101 39 194 39q160 0 230.5 -57.5t70.5 -144.5q0 -140 -94 -212t-205 -91l-71 -365h-127l86 447h40z" />
    <glyph glyph-name="uni02C1" unicode="&#x2c1;" 
d="M380 1450q0 32 6 68t34.5 83t105 105t238.5 58q108 0 196 -39l-19 -96q-89 48 -167 48q-127 0 -199 -54.5t-72 -150.5q0 -36 21 -67q44 -64 163 -64h39l-87 -447h-128l71 365q-144 25 -173 92t-29 99z" />
    <glyph glyph-name="circumflex" unicode="&#x2c6;" 
d="M717 1638h147l164 -376h-133l-117 241l-225 -241h-156z" />
    <glyph glyph-name="caron" unicode="&#x2c7;" 
d="M471 1638h131l119 -243l225 243h156l-320 -376h-147z" />
    <glyph glyph-name="uni02C8" unicode="&#x2c8;" 
d="M602 1554h136l-107 -555h-136z" />
    <glyph glyph-name="uni02C9" unicode="&#x2c9;" 
d="M469 1526h598l-29 -148h-598z" />
    <glyph glyph-name="uni02CC" unicode="&#x2cc;" 
d="M602 252h136l-107 -555h-136z" />
    <glyph glyph-name="uni02CD" unicode="&#x2cd;" 
d="M133 -209h598l-29 -148h-598z" />
    <glyph glyph-name="uni02CE" unicode="&#x2ce;" 
d="M551 -208h198l197 -376h-143z" />
    <glyph glyph-name="uni02CF" unicode="&#x2cf;" 
d="M809 -208h219l-395 -376h-156z" />
    <glyph glyph-name="uni02D0" unicode="&#x2d0;" 
d="M578 330l114 -330h-357zM541 1059h357l-243 -330z" />
    <glyph glyph-name="uni02D1" unicode="&#x2d1;" 
d="M470 1059h357l-243 -330z" />
    <glyph glyph-name="breve" unicode="&#x2d8;" 
d="M750 1321q-138 0 -209 64q-72 64 -72 182v13t3 28h120v-17q0 -133 165 -133t222 150h119q-30 -139 -120 -213t-228 -74z" />
    <glyph glyph-name="dotaccent" unicode="&#x2d9;" 
d="M664 1348q-27 0 -27 24q0 6 1 9l29 144q4 27 32 27h145q27 0 27 -24q0 -6 -1 -9l-29 -144q-5 -27 -32 -27h-145z" />
    <glyph glyph-name="ring" unicode="&#x2da;" 
d="M778 1444q64 0 108 44t44 108t-44 107.5t-108 44t-108 -43.5t-43 -108q0 -64 43.5 -108t107.5 -44zM778 1321q-114 0 -194 80t-80 195q0 114 80 194t194 80q116 0 196 -80t79 -194q0 -115 -80.5 -195t-194.5 -80z" />
    <glyph glyph-name="ogonek" unicode="&#x2db;" 
d="M377 -198q0 -74 94 -74q67 0 129 30l-25 -133q-67 -20 -126 -20q-166 0 -192 59.5t-26 90.5q0 109 152 245h119q-125 -119 -125 -198z" />
    <glyph glyph-name="tilde" unicode="&#x2dc;" 
d="M890 1307q-84 0 -149 69l-47 49q-37 37 -73 37q-81 0 -95 -153h-125q15 135 73 209t142 73q84 0 154 -69l47 -47q39 -39 71 -39q81 0 97 155h125q-27 -211 -101.5 -247.5t-118.5 -36.5z" />
    <glyph glyph-name="hungarumlaut" unicode="&#x2dd;" 
d="M1028 1638h197l-324 -376h-135zM688 1638h189l-302 -376h-135z" />
    <glyph glyph-name="gravecomb" unicode="&#x300;" horiz-adv-x="0" 
d="M-780 1638h198l197 -376h-143z" />
    <glyph glyph-name="acutecomb" unicode="&#x301;" horiz-adv-x="0" 
d="M-326 1638h219l-395 -376h-156z" />
    <glyph glyph-name="uni0302" unicode="&#x302;" horiz-adv-x="0" 
d="M-516 1638h147l164 -376h-133l-117 241l-225 -241h-156z" />
    <glyph glyph-name="tildecomb" unicode="&#x303;" horiz-adv-x="0" 
d="M-613 1462q-77 0 -94 -153h-125q36 282 223 282q77 0 146 -69l47 -47q39 -39 70 -39q81 0 98 155h125q-37 -284 -224 -284q-78 0 -145 69l-47 49q-36 37 -74 37z" />
    <glyph glyph-name="uni0304" unicode="&#x304;" horiz-adv-x="0" 
d="M-764 1526h598l-29 -148h-598z" />
    <glyph glyph-name="uni0305" unicode="&#x305;" horiz-adv-x="0" 
d="M-1233 1547h1233v-80h-1233v80z" />
    <glyph glyph-name="uni0306" unicode="&#x306;" horiz-adv-x="0" 
d="M-486 1321q-134 0 -206 64t-72 182q0 29 3 41h120v-17q1 -133 165 -133t222 150h119q-66 -287 -351 -287z" />
    <glyph glyph-name="uni0307" unicode="&#x307;" horiz-adv-x="0" 
d="M-561 1552h205l-41 -204h-205z" />
    <glyph glyph-name="uni0308" unicode="&#x308;" horiz-adv-x="0" 
d="M-367 1552h203l-39 -202h-203zM-758 1552h203l-39 -202h-203z" />
    <glyph glyph-name="hookabovecomb" unicode="&#x309;" horiz-adv-x="0" 
d="M-541 1536q0 75 -113 75q-86 0 -154 -32l25 131q91 24 179 24q210 0 210 -138l-2 -30q-2 -31 -36.5 -94t-134.5 -118l-17 -88h-148l21 108q121 38 145.5 87t24.5 75z" />
    <glyph glyph-name="uni030A" unicode="&#x30a;" horiz-adv-x="0" 
d="M-455 1444q32 0 59.5 12t48 32t32.5 47.5t12 59.5t-12 59.5t-32.5 48t-48 32.5t-59.5 12t-59.5 -11.5t-48 -32t-32 -48t-11.5 -59.5t11.5 -60t32 -48.5t48 -32t59.5 -11.5zM-455 1321q-57 0 -107 21.5t-87 58.5t-58.5 87t-21.5 108t21.5 108t58.5 87t87 58t107 21
t107.5 -21t87.5 -58t58.5 -87t21.5 -108t-21.5 -108t-58.5 -87t-87.5 -58.5t-107.5 -21.5z" />
    <glyph glyph-name="uni030B" unicode="&#x30b;" horiz-adv-x="0" 
d="M-205 1638h197l-324 -376h-135zM-545 1638h189l-302 -376h-135z" />
    <glyph glyph-name="uni030C" unicode="&#x30c;" horiz-adv-x="0" 
d="M-762 1638h131l119 -243l225 243h156l-320 -376h-147z" />
    <glyph glyph-name="uni030D" unicode="&#x30d;" horiz-adv-x="0" 
d="M-644 1706h136l-86 -444h-136z" />
    <glyph glyph-name="uni030E" unicode="&#x30e;" horiz-adv-x="0" 
d="M-440 1706h136l-86 -444h-136zM-848 1706h136l-86 -444h-136z" />
    <glyph glyph-name="uni030F" unicode="&#x30f;" horiz-adv-x="0" 
d="M-507 1638h170l117 -376h-137zM-849 1638h178l132 -376h-135z" />
    <glyph glyph-name="uni0310" unicode="&#x310;" horiz-adv-x="0" 
d="M-438 1525q-134 0 -206 64t-72 182q0 29 3 41h120v-17q0 -79 65 -113l15 74h205l-15 -76q77 32 117 132h119q-66 -287 -351 -287z" />
    <glyph glyph-name="uni0311" unicode="&#x311;" horiz-adv-x="0" 
d="M-476 1471q-169 0 -222 -150h-119q78 287 370 287q260 0 260 -232q0 -27 -3 -55h-119q1 79 -41.5 114.5t-125.5 35.5z" />
    <glyph glyph-name="uni0312" unicode="&#x312;" horiz-adv-x="0" 
d="M-510 1312h146l-161 -345h-239z" />
    <glyph glyph-name="uni0313" unicode="&#x313;" horiz-adv-x="0" 
d="M-763 1341q111 -3 138 134h-111l49 254h241l-49 -254q-50 -257 -292 -257z" />
    <glyph glyph-name="uni0314" unicode="&#x314;" horiz-adv-x="0" 
d="M-612 1428q0 -87 90 -87l-23 -123q-200 0 -200 177q0 45 8 80l49 254h241l-49 -254h-111q-5 -22 -5 -47z" />
    <glyph glyph-name="uni0315" unicode="&#x315;" horiz-adv-x="0" 
d="M-513 1638h219l-208 -376h-156z" />
    <glyph glyph-name="uni0316" unicode="&#x316;" horiz-adv-x="0" 
d="M-682 -208h198l197 -376h-143z" />
    <glyph glyph-name="uni0317" unicode="&#x317;" horiz-adv-x="0" 
d="M-424 -208h219l-395 -376h-156z" />
    <glyph glyph-name="uni0318" unicode="&#x318;" horiz-adv-x="0" 
d="M-672 -590h-176l26 136h176l34 177h136l-95 -490h-136z" />
    <glyph glyph-name="uni0319" unicode="&#x319;" horiz-adv-x="0" 
d="M-667 -277h136l-34 -177h176l-27 -136h-176l-34 -177h-136z" />
    <glyph glyph-name="uni031A" unicode="&#x31a;" horiz-adv-x="0" 
d="M-486 1768h-354l26 136h490l-95 -490h-136z" />
    <glyph glyph-name="uni031B" unicode="&#x31b;" horiz-adv-x="0" 
d="M-403 1137q2 -28 2 -58t-8 -78q-44 -237 -219 -237q-101 0 -201 108l23 119q101 -88 167 -88q87 0 109 109q5 28 5 57t-11 68h133z" />
    <glyph glyph-name="uni031C" unicode="&#x31c;" horiz-adv-x="0" 
d="M-930 -311q0 45 24.5 92.5t84 101.5t158.5 54l-19 -98q-53 0 -100.5 -42t-47.5 -91t24.5 -79.5t75.5 -30.5l-19 -98q-132 0 -156.5 73t-24.5 118z" />
    <glyph glyph-name="uni031D" unicode="&#x31d;" horiz-adv-x="0" 
d="M-842 -454h177l34 177h136l-34 -177h177l-27 -136h-490z" />
    <glyph glyph-name="uni031E" unicode="&#x31e;" horiz-adv-x="0" 
d="M-638 -413h-177l26 136h490l-26 -136h-177l-35 -177h-136z" />
    <glyph glyph-name="uni031F" unicode="&#x31f;" horiz-adv-x="0" 
d="M-682 -590h-177l27 136h177l34 177h136l-34 -177h177l-27 -136h-177l-34 -177h-136z" />
    <glyph glyph-name="uni0320" unicode="&#x320;" horiz-adv-x="0" 
d="M-848 -277h490l-27 -136h-490z" />
    <glyph glyph-name="uni0321" unicode="&#x321;" horiz-adv-x="0" 
d="M-708 -270q94 0 148.5 63t78.5 187l29 148h185l-29 -148q-57 -296 -199 -351t-224 -55h-205l31 156h185z" />
    <glyph glyph-name="uni0322" unicode="&#x322;" horiz-adv-x="0" 
d="M-888 -426q-137 0 -207.5 71.5t-70.5 208.5q0 61 13 126l29 148h185l-29 -148q-10 -54 -10 -95q0 -155 141 -155h185l-31 -156h-205z" />
    <glyph glyph-name="dotbelowcomb" unicode="&#x323;" horiz-adv-x="0" 
d="M-905 -209h205l-39 -204h-205z" />
    <glyph glyph-name="uni0324" unicode="&#x324;" horiz-adv-x="0" 
d="M-706 -210h202l-40 -202h-202zM-1098 -210h203l-40 -202h-203z" />
    <glyph glyph-name="uni0325" unicode="&#x325;" horiz-adv-x="0" 
d="M-739 -362.5q48 41.5 48 93.5q0 51 -26.5 79.5t-62.5 28.5q-65 0 -112 -42t-47 -94q0 -51 25.5 -79t75.5 -28q51 0 99 41.5zM-991.5 -451q-47.5 51 -47.5 118q0 120 85 195t175 75t139 -50.5t49 -117.5q0 -68 -24 -115t-84.5 -101.5t-152.5 -54.5t-139.5 51z" />
    <glyph glyph-name="uni0326" unicode="&#x326;" horiz-adv-x="0" 
d="M-898 -197h239l-254 -345h-146z" />
    <glyph glyph-name="uni0327" unicode="&#x327;" horiz-adv-x="0" 
d="M-606 -184q0 -101 -70.5 -156t-174.5 -55t-200 30l25 129q80 -38 146 -38t103.5 31t37.5 83t-58 160h119q72 -126 72 -184z" />
    <glyph glyph-name="uni0328" unicode="&#x328;" horiz-adv-x="0" 
d="M-846 -200q0 -72 96 -72q63 0 127 30l-25 -133q-69 -20 -153 -20t-137.5 40t-53.5 110q0 109 152 245h119q-125 -119 -125 -200z" />
    <glyph glyph-name="uni0329" unicode="&#x329;" horiz-adv-x="0" 
d="M-641 -209h136l-87 -444h-136z" />
    <glyph glyph-name="uni032A" unicode="&#x32a;" horiz-adv-x="0" 
d="M-860 -209h551l-64 -330h-137l38 194h-277l-38 -194h-137z" />
    <glyph glyph-name="uni032B" unicode="&#x32b;" horiz-adv-x="0" 
d="M-469 -455q-116 0 -159 82q-76 -82 -192 -82q-186 0 -186 205l7 82h117q-2 -20 -2 -38q0 -112 90 -112q102 0 146 150h118q-2 -16 -2 -31q0 -60 26 -89.5t64 -29.5t80.5 37.5t65.5 112.5h118q-70 -287 -291 -287z" />
    <glyph glyph-name="uni032C" unicode="&#x32c;" horiz-adv-x="0" 
d="M-1101 -109h139l132 -245l229 245h139l-319 -376h-147z" />
    <glyph glyph-name="uni032D" unicode="&#x32d;" horiz-adv-x="0" 
d="M-855 -109h147l173 -376h-139l-134 245l-227 -245h-139z" />
    <glyph glyph-name="uni032E" unicode="&#x32e;" horiz-adv-x="0" 
d="M-1116 -241q0 29 3 41h120v-17q1 -133 165 -133t222 150h119q-66 -287 -351 -287q-134 0 -206 64t-72 182z" />
    <glyph glyph-name="uni032F" unicode="&#x32f;" horiz-adv-x="0" 
d="M-660 -472q0 137 -167 137t-222 -150h-119q78 287 370 287q260 0 260 -232q0 -27 -3 -55h-119v13z" />
    <glyph glyph-name="uni0330" unicode="&#x330;" horiz-adv-x="0" 
d="M-965 -332q-77 0 -94 -153h-125q36 282 223 282q77 0 146 -69l47 -47q39 -39 70 -39q81 0 98 155h125q-37 -284 -224 -284q-78 0 -145 69l-47 49q-36 37 -74 37z" />
    <glyph glyph-name="uni0331" unicode="&#x331;" horiz-adv-x="0" 
d="M-1100 -209h598l-29 -148h-598z" />
    <glyph glyph-name="uni0332" unicode="&#x332;" horiz-adv-x="0" 
d="M-1233 -403h1233v-80h-1233v80z" />
    <glyph glyph-name="uni0333" unicode="&#x333;" horiz-adv-x="0" 
d="M-1233 -403h1233v-80h-1233v80zM-1233 -163h1233v-80h-1233v80z" />
    <glyph glyph-name="uni0334" unicode="&#x334;" horiz-adv-x="0" 
d="M-817 780q104 0 167 -28t65.5 -29t24 -15t83 -32.5t121.5 -18.5q126 0 296 123l-34 -174q-165 -114 -314 -114q-96 0 -198 51q-5 2 -6.5 3t-3.5 2t-29 13q-58 26 -105.5 39.5t-114.5 13.5q-143 0 -308 -122l34 174q171 114 322 114z" />
    <glyph glyph-name="uni0335" unicode="&#x335;" horiz-adv-x="0" 
d="M-1091 616h920v-164h-920v164z" />
    <glyph glyph-name="uni0336" unicode="&#x336;" horiz-adv-x="0" 
d="M-1233 616h1233v-164h-1233v164z" />
    <glyph glyph-name="uni0337" unicode="&#x337;" horiz-adv-x="0" 
d="M-1297 -20l1273 1232l78 -77l-1274 -1231z" />
    <glyph glyph-name="uni0338" unicode="&#x338;" horiz-adv-x="0" 
d="M-1369 0l1395 1559l86 -74l-1391 -1555z" />
    <glyph glyph-name="uni0339" unicode="&#x339;" horiz-adv-x="0" 
d="M-801 -257q0 35 -25 65.5t-76 30.5l19 98q88 0 135 -52t47 -118q0 -115 -84.5 -192t-183.5 -77l19 98q53 0 87.5 30t48 56t13.5 61z" />
    <glyph glyph-name="uni033A" unicode="&#x33a;" horiz-adv-x="0" 
d="M-860 -54h137l-38 -194h277l38 194h137l-64 -330h-551z" />
    <glyph glyph-name="uni033B" unicode="&#x33b;" horiz-adv-x="0" 
d="M-505 -623l54 278h-277l-54 -278h277zM-839 -209h551l-106 -550h-551z" />
    <glyph glyph-name="uni033C" unicode="&#x33c;" horiz-adv-x="0" 
d="M-413 -168q186 0 186 -205l-7 -82h-117q2 20 2 38q0 112 -90 112q-103 0 -146 -150h-118q2 16 2 31q0 60 -26.5 89.5t-64.5 29.5t-80 -37.5t-65 -112.5h-118q70 287 291 287q116 0 159 -82q76 82 192 82z" />
    <glyph glyph-name="uni033D" unicode="&#x33d;" horiz-adv-x="0" 
d="M-862 1324l149 125l-100 125l114 97l101 -126l150 126l77 -97l-149 -125l100 -125l-114 -96l-101 125l-150 -125z" />
    <glyph glyph-name="uni033E" unicode="&#x33e;" horiz-adv-x="0" 
d="M-621 1388q0 21 -29 48l-47 43q-43 43 -43 88t54.5 110.5t261.5 68.5l-22 -110q-166 -2 -166 -60q0 -21 29 -48l47 -43q43 -43 43 -88t-54.5 -110.5t-261.5 -68.5l22 110q166 4 166 60z" />
    <glyph glyph-name="uni033F" unicode="&#x33f;" horiz-adv-x="0" 
d="M0 1307v-80h-1233v80h1233z" />
    <glyph glyph-name="uni0358" unicode="&#x358;" horiz-adv-x="0" 
d="M90 1552h205l-41 -204h-205z" />
    <glyph glyph-name="uni0361" unicode="&#x361;" horiz-adv-x="0" 
d="M-628 1847q72 0 121.5 -1t110.5 -4.5t129.5 -11t272.5 -50t204 -221.5q0 -22 -4 -39h-118q-101 142 -368 166t-307 24q-41 0 -91 -1t-296.5 -20.5t-407.5 -168.5h-118q47 240 566 300q234 27 306 27z" />
    <glyph glyph-name="tonos" unicode="&#x384;" 
d="M907 1638h219l-395 -376h-156z" />
    <glyph glyph-name="dieresistonos" unicode="&#x385;" 
d="M870 1320q-34 0 -27 33l28 142q4 27 32 27h143q34 0 27 -33l-28 -142q-5 -27 -32 -27h-143zM439 1320q-34 0 -27 33l28 142q4 27 32 27h143q34 0 27 -33l-28 -142q-5 -27 -32 -27h-143zM1008 1896h219l-395 -376h-156z" />
    <glyph glyph-name="Alphatonos" unicode="&#x386;" 
d="M801 551l-66 774l-364 -774h430zM639 1493h246l166 -1493h-201l-35 389h-520l-184 -389h-217zM457 1638h219l-395 -376h-156z" />
    <glyph glyph-name="Epsilontonos" unicode="&#x388;" 
d="M344 1493h885l-33 -170h-684l-86 -442h653l-32 -170h-654l-104 -541h702l-33 -170h-905zM207 1638h219l-395 -376h-156z" />
    <glyph glyph-name="Etatonos" unicode="&#x389;" 
d="M283 1493h202l-118 -612h553l118 612h203l-291 -1493h-202l139 711h-555l-137 -711h-203zM157 1638h219l-395 -376h-156z" />
    <glyph glyph-name="Iotatonos" unicode="&#x38a;" 
d="M90 170h313l224 1153h-314l33 170h830l-33 -170h-314l-223 -1153h314l-33 -170h-830zM207 1638h219l-395 -376h-156z" />
    <glyph glyph-name="Omicrontonos" unicode="&#x38c;" 
d="M491 135q144 0 241 124t154.5 375t57.5 372q0 120 -20 235t-190 115q-138 0 -235.5 -127t-154.5 -376t-57 -409t47 -234.5t157 -74.5zM751 1520q400 0 400 -483q0 -247 -87 -521q-118 -369 -281 -457t-303 -88q-398 0 -398 488q0 252 85 516q116 363 278.5 454t305.5 91z
M357 1638h219l-395 -376h-156z" />
    <glyph glyph-name="Upsilontonos" unicode="&#x38e;" 
d="M481 1140.5q-34 126.5 -93 156.5q-72 35 -130 35t-101 -9l33 170q35 11 98 11t129 -14q263 -48 258 -446q191 393 430 446q28 7 61 7q71 0 120 -38.5t49 -101.5t-30 -115q-49 -85 -124 -85q-53 0 -90.5 37.5t-31.5 102.5q-120 -72 -221.5 -268t-138.5 -379l-126 -650
h-203l126 650q19 93 19 228q0 136 -34 262.5zM-8 1638h219l-395 -376h-156z" />
    <glyph glyph-name="Omegatonos" unicode="&#x38f;" 
d="M76 585q0 91 26 221t87 255.5t193.5 262t376.5 136.5q200 0 309 -126.5t109 -331.5q0 -497 -373 -830h248l-34 -172h-463l34 172q205 113 298.5 366.5t93.5 419.5q0 336 -253 336q-236 0 -321.5 -188t-109.5 -306t-24 -223q0 -295 157 -405l-34 -172h-463l34 172h245
q-136 185 -136 413zM383 1638h219l-395 -376h-156z" />
    <glyph glyph-name="iotadieresistonos" unicode="&#x390;" 
d="M746 -5q-145 0 -213.5 61t-68.5 193q0 64 17 152l110 576h-210l28 143h398l-141 -730q-15 -78 -15 -118q0 -73 33 -97t114 -24h88l-30 -156h-110zM870 1320q-34 0 -27 33l28 142q4 27 32 27h143q34 0 27 -33l-28 -142q-5 -27 -32 -27h-143zM439 1320q-34 0 -27 33l28 142
q4 27 32 27h143q34 0 27 -33l-28 -142q-5 -27 -32 -27h-143zM1008 1896h219l-395 -376h-156z" />
    <glyph glyph-name="Alpha" unicode="&#x391;" 
d="M801 551l-66 774l-364 -774h430zM639 1493h246l166 -1493h-201l-35 389h-520l-184 -389h-217z" />
    <glyph glyph-name="Beta" unicode="&#x392;" 
d="M506 166q275 0 327 125.5t52 200.5q0 116 -65 168.5t-214 52.5h-241l-107 -547h248zM639 877q230 0 277 104.5t47 182.5q0 164 -236 163h-244l-88 -450h244zM1085 482q0 -222 -161 -352t-449 -130h-452l290 1493h443q411 0 411 -315q0 -152 -92 -255.5t-248 -123.5
q258 -51 258 -317z" />
    <glyph glyph-name="Gamma" unicode="&#x393;" 
d="M360 1493h924l-33 -170h-721l-257 -1323h-203z" />
    <glyph glyph-name="uni0394" unicode="&#x394;" 
d="M827 170l-99 1145l-545 -1145h644zM640 1493h245l167 -1493h-1159z" />
    <glyph glyph-name="Epsilon" unicode="&#x395;" 
d="M344 1493h885l-33 -170h-684l-86 -442h653l-32 -170h-654l-104 -541h702l-33 -170h-905z" />
    <glyph glyph-name="Zeta" unicode="&#x396;" 
d="M23 154l976 1169h-727l33 170h969l-29 -154l-979 -1169h774l-34 -170h-1012z" />
    <glyph glyph-name="Eta" unicode="&#x397;" 
d="M283 1493h202l-118 -612h553l118 612h203l-291 -1493h-202l139 711h-555l-137 -711h-203z" />
    <glyph glyph-name="Theta" unicode="&#x398;" 
d="M403 764h467l-33 -170h-467zM1012 856q0 158 -69 255t-209 97t-284 -109.5t-204 -419.5q-17 -90 -17 -167q0 -161 71.5 -258.5t207.5 -97.5t281 107t206 422q17 90 17 171zM26 470q0 318 135.5 524.5t288 302.5t306.5 96t254 -68.5t152.5 -188t52.5 -238.5
q0 -333 -139 -539t-290.5 -297t-299.5 -91t-250 68.5t-156 189t-54 241.5z" />
    <glyph glyph-name="Iota" unicode="&#x399;" 
d="M90 170h313l224 1153h-314l33 170h830l-33 -170h-314l-223 -1153h314l-33 -170h-830z" />
    <glyph glyph-name="Kappa" unicode="&#x39a;" 
d="M283 1493h202l-127 -647l742 647h254l-703 -619l428 -874h-219l-360 741l-193 -168l-112 -573h-203z" />
    <glyph glyph-name="Lambda" unicode="&#x39b;" 
d="M640 1493h245l167 -1493h-209l-115 1315l-626 -1315h-209z" />
    <glyph glyph-name="Mu" unicode="&#x39c;" 
d="M229 1493h269l110 -756l414 756h270l-291 -1493h-186l258 1327l-434 -795h-141l-115 795l-256 -1327h-186z" />
    <glyph glyph-name="Nu" unicode="&#x39d;" 
d="M285 1493h256l264 -1229l239 1229h195l-291 -1493h-256l-264 1229l-240 -1229h-194z" />
    <glyph glyph-name="Xi" unicode="&#x39e;" 
d="M26 170h959l-33 -170h-959zM367 881h553l-33 -170h-553zM283 1493h959l-33 -170h-959z" />
    <glyph glyph-name="Omicron" unicode="&#x39f;" 
d="M491 135q144 0 241 124t154.5 375t57.5 372q0 120 -20 235t-190 115q-138 0 -235.5 -127t-154.5 -376t-57 -409t47 -234.5t157 -74.5zM751 1520q400 0 400 -483q0 -247 -87 -521q-118 -369 -281 -457t-303 -88q-398 0 -398 488q0 252 85 516q116 363 278.5 454t305.5 91z
" />
    <glyph glyph-name="Pi" unicode="&#x3a0;" 
d="M283 1493h959l-290 -1493h-203l257 1323h-553l-257 -1323h-203z" />
    <glyph glyph-name="Rho" unicode="&#x3a1;" 
d="M637 766q164 0 263 95t99 249q0 112 -61 164.5t-193 52.5h-233l-109 -561h234zM782 1493q422 0 422 -371q0 -235 -161 -378.5t-439 -143.5h-233l-117 -600h-203l291 1493h440z" />
    <glyph glyph-name="Sigma" unicode="&#x3a3;" 
d="M9 170l566 577l-342 576l33 170h1013l-33 -170h-802l343 -576l-567 -577h802l-33 -170h-1013z" />
    <glyph glyph-name="Tau" unicode="&#x3a4;" 
d="M629 1323h-469l33 170h1140l-33 -170h-469l-256 -1323h-204z" />
    <glyph glyph-name="Upsilon" unicode="&#x3a5;" 
d="M481 1140.5q-34 126.5 -93 156.5q-72 35 -130 35t-101 -9l33 170q35 11 98 11t129 -14q263 -48 258 -446q191 393 430 446q28 7 61 7q71 0 120 -38.5t49 -101.5t-30 -115q-49 -85 -124 -85q-53 0 -90.5 37.5t-31.5 102.5q-120 -72 -221.5 -268t-138.5 -379l-126 -650
h-203l126 650q19 93 19 228q0 136 -34 262.5z" />
    <glyph glyph-name="Phi" unicode="&#x3a6;" 
d="M912 840q0 88 -33 130t-107 59l-110 -567q82 18 120 49q64 54 97 147.5t33 181.5zM318 653q0 -87 33 -130t108 -61l110 567q-82 -18 -120 -50q-64 -55 -97.5 -147t-33.5 -179zM103 608q0 187 103.5 377t396.5 220l23 118h-147l33 170h497l-33 -170h-147l-23 -118
q322 -35 322 -325q0 -184 -103 -374.5t-398 -219.5l-22 -116h147l-33 -170h-497l33 170h147l22 116q-321 35 -321 322z" />
    <glyph glyph-name="Chi" unicode="&#x3a7;" 
d="M530 797l-288 696h200l224 -532l440 532h231l-596 -719l324 -774h-201l-254 612l-506 -612h-231z" />
    <glyph glyph-name="Psi" unicode="&#x3a8;" 
d="M159 827q0 140 36 323l67 343h203l-67 -343q-36 -186 -36 -296t24 -184t92 -110l181 933h203l-181 -933q151 65 214 248.5t94 341.5l67 343h203l-67 -343q-75 -389 -236 -583q-128 -152 -309 -183l-42 -214h147l-33 -170h-497l33 170h147l42 214q-285 53 -285 443z" />
    <glyph glyph-name="uni03A9" unicode="&#x3a9;" 
d="M74 172h245q-121 132 -177 276t-56 335q0 309 143 493t386 184q242 0 386 -183t144 -478t-86.5 -428t-147.5 -199h248v-172h-463v172q183 116 218.5 314t35.5 309q0 357 -128 428t-208 71q-152 0 -241 -132q-90 -132 -90 -372q0 -333 98 -457t156 -161v-172h-463v172z
" />
    <glyph glyph-name="Iotadieresis" unicode="&#x3aa;" 
d="M90 170h313l224 1153h-314l33 170h830l-33 -170h-314l-223 -1153h314l-33 -170h-830zM897 1647q-34 0 -27 33l28 143q4 27 32 27h143q34 0 27 -33l-28 -143q-5 -27 -32 -27h-143zM506 1647q-34 0 -27 33l28 143q4 27 32 27h144q33 0 26 -33l-29 -143q-6 -27 -32 -27h-142
z" />
    <glyph glyph-name="Upsilondieresis" unicode="&#x3ab;" 
d="M481 1140.5q-34 126.5 -93 156.5q-72 35 -130 35t-101 -9l33 170q35 11 98 11t129 -14q263 -48 258 -446q191 393 430 446q28 7 61 7q71 0 120 -38.5t49 -101.5t-30 -115q-49 -85 -124 -85q-53 0 -90.5 37.5t-31.5 102.5q-120 -72 -221.5 -268t-138.5 -379l-126 -650
h-203l126 650q19 93 19 228q0 136 -34 262.5zM897 1647q-34 0 -27 33l28 143q4 27 32 27h143q34 0 27 -33l-28 -143q-5 -27 -32 -27h-143zM506 1647q-34 0 -27 33l28 143q4 27 32 27h144q33 0 26 -33l-29 -143q-6 -27 -32 -27h-142z" />
    <glyph glyph-name="alphatonos" unicode="&#x3ac;" 
d="M596 991q-42 0 -96.5 -30.5t-91.5 -74.5q-70 -84 -116.5 -225t-46.5 -252t30 -175q49 -107 153 -107q54 0 114.5 51t119.5 162l96 181l1 231q0 182 -60.5 210.5t-102.5 28.5zM49 367q-1 87 25 215t83.5 237t167 215t295.5 112h17q210 0 248 -121.5t36 -197.5l156 293h164
l-323 -607l-3 -219q0 -47 28.5 -92.5t61.5 -45.5h89l-30 -156h-111q-47 0 -91.5 23t-73.5 64t-30 127q-73 -116 -153 -177.5t-227 -61.5t-238 100.5t-91 291.5zM917 1673h219l-395 -376h-156z" />
    <glyph glyph-name="epsilontonos" unicode="&#x3ad;" 
d="M211 59q-84 71 -84 182q0 152 113 247l36 30q67 54 158 74q-119 26 -144.5 94t-25.5 96t8 72t49 99.5t141.5 117t294.5 61.5q128 0 340 -48l-35 -179q-191 65 -335 60l-31 -1q-75 -4 -143 -45l-44 -28q-43 -35 -43 -96q0 -34 46 -65q87 -60 185 -60h127l-32 -163h-126
q-112 0 -221.5 -61.5t-109.5 -167.5q0 -53 58 -99q4 -2 7 -5.5t21 -15.5t63.5 -23t84.5 -11t79 5l128 29q146 29 192 49l-36 -181q-202 -55 -409 -55t-312 88zM947 1673h219l-395 -376h-156z" />
    <glyph glyph-name="etatonos" unicode="&#x3ae;" 
d="M823 1147q270 0 270 -284q0 -75 -18 -169l-218 -1120h-185l218 1120q13 69 13 115q0 178 -174 178q-129 0 -216.5 -89.5t-121.5 -264.5l-123 -633h-184l218 1120h164l-13 -168q139 195 370 195zM946 1673h219l-395 -376h-156z" />
    <glyph glyph-name="iotatonos" unicode="&#x3af;" 
d="M716 -5q-145 0 -213.5 61t-68.5 193q0 64 17 152l110 576h-210l28 143h398l-141 -730q-15 -78 -15 -118q0 -73 33 -97t114 -24h88l-30 -156h-110zM887 1648h219l-395 -376h-156z" />
    <glyph glyph-name="upsilondieresistonos" unicode="&#x3b0;" 
d="M1161 803q0 -241 -166.5 -522t-531.5 -281q-115 0 -181 62.5t-66 194.5q0 65 16 149l110 571h-210l28 143h398l-141 -725q-15 -77 -15 -131q0 -108 123 -108q159 0 269.5 137.5t163.5 346.5q24 94 24 180q0 156 -87 300h186q80 -138 80 -317zM885 1320q-34 0 -27 33
l28 142q4 27 32 27h143q34 0 27 -33l-28 -142q-5 -27 -32 -27h-143zM449 1320q-34 0 -27 33l28 142q4 27 32 27h143q34 0 27 -33l-28 -142q-5 -27 -32 -27h-143zM1017 1888h219l-395 -376h-156z" />
    <glyph glyph-name="alpha" unicode="&#x3b1;" 
d="M596 991q-42 0 -96.5 -30.5t-91.5 -74.5q-70 -84 -116.5 -225t-46.5 -252t30 -175q49 -107 153 -107q54 0 114.5 51t119.5 162l96 181l1 231q0 182 -60.5 210.5t-102.5 28.5zM49 367q-1 87 25 215t83.5 237t167 215t295.5 112h17q210 0 248 -121.5t36 -197.5l156 293h164
l-323 -607l-3 -219q0 -47 28.5 -92.5t61.5 -45.5h89l-30 -156h-111q-47 0 -91.5 23t-73.5 64t-30 127q-73 -116 -153 -177.5t-227 -61.5t-238 100.5t-91 291.5z" />
    <glyph glyph-name="beta" unicode="&#x3b2;" 
d="M952 1197q0 87 -60.5 137t-127.5 50q-122 0 -209 -71.5t-113 -205.5l-149 -765q24 -70 112 -115.5t166 -45.5q144 0 243.5 76t99.5 240t-129.5 189t-184.5 25h-44q-43 0 -60 -1l33 170l27 -1q179 0 287 96q109 96 109 222zM258 1113q44 227 188 344t307 117
q164 0 273.5 -91.5t109.5 -237.5t-79 -269.5t-170 -165.5q221 -45 221 -257q0 -160 -117.5 -367t-481.5 -207q-127 0 -269 90l-96 -495h-185z" />
    <glyph glyph-name="gamma" unicode="&#x3b3;" 
d="M191 962h-49l31 158h70q193 0 225 -176l122 -685l493 861h191l-639 -1120l-83 -426h-190l83 426l-139 836q-21 126 -115 126z" />
    <glyph glyph-name="delta" unicode="&#x3b4;" 
d="M312 388q0 -261 219 -261q285 0 369 432q19 91 19 172q0 260 -219 260q-144 0 -247.5 -125.5t-122 -282.5t-18.5 -195zM115 364q1 88 25 214q59 303 161 386t131 103q-54 34 -70.5 79t-16.5 68t9 73q9 51 51 106.5t143 115.5t305 60q91 0 139 -12l144 -36l-34 -173
q-146 58 -292 54l-32 -1q-74 -1 -142 -45l-44 -28q-43 -32 -43 -85t54 -82q24 -12 126 -14q387 -10 387 -391q0 -88 -24 -214q-53 -269 -205 -420t-385 -151q-189 0 -288 98t-99 295z" />
    <glyph glyph-name="epsilon" unicode="&#x3b5;" 
d="M211 59q-84 71 -84 182q0 152 113 247l36 30q67 54 158 74q-119 26 -144.5 94t-25.5 96t8 72t49 99.5t141.5 117t294.5 61.5q128 0 340 -48l-35 -179q-191 65 -335 60l-31 -1q-75 -4 -143 -45l-44 -28q-43 -35 -43 -96q0 -34 46 -65q87 -60 185 -60h127l-32 -163h-126
q-112 0 -221.5 -61.5t-109.5 -167.5q0 -53 58 -99q4 -2 7 -5.5t21 -15.5t63.5 -23t84.5 -11t79 5l128 29q146 29 192 49l-36 -181q-202 -55 -409 -55t-312 88z" />
    <glyph glyph-name="zeta" unicode="&#x3b6;" 
d="M792 -148q0 119 -97 119q-252 0 -382 117t-130 308q0 243 198.5 514t549.5 461h-532l36 185h870l-36 -185q-849 -415 -887 -837q-3 -35 -3 -65q0 -342 346 -342q114 0 181 -59.5t67 -150.5q0 -90 -72.5 -218.5t-305.5 -128.5q9 45 29 151q61 -5 114.5 35.5t53.5 95.5z
" />
    <glyph glyph-name="eta" unicode="&#x3b7;" 
d="M823 1147q270 0 270 -284q0 -75 -18 -169l-218 -1120h-185l218 1120q13 69 13 115q0 178 -174 178q-129 0 -216.5 -89.5t-121.5 -264.5l-123 -633h-184l218 1120h164l-13 -168q139 195 370 195z" />
    <glyph glyph-name="theta" unicode="&#x3b8;" 
d="M327 440q0 -311 201 -311q136 0 234.5 140.5t148.5 374.5h-565q-19 -118 -19 -204zM966 1025q0 317 -202 317q-134 0 -231.5 -138t-150.5 -376h565q19 119 19 197zM793 1500q366 0 366 -460q0 -134 -35 -314q-71 -366 -233 -560.5t-394 -194.5q-180 0 -271.5 116
t-91.5 342q0 133 35 315q70 363 232 560q161 196 392 196z" />
    <glyph glyph-name="iota" unicode="&#x3b9;" 
d="M756 -5q-145 0 -213.5 61t-68.5 193q0 64 17 152l110 576h-210l28 143h398l-141 -730q-15 -78 -15 -118q0 -73 33 -97t114 -24h88l-30 -156h-110z" />
    <glyph glyph-name="kappa" unicode="&#x3ba;" 
d="M315 1120h190l-91 -465l574 465h224l-523 -422l374 -698h-225l-302 578l-162 -129l-87 -449h-190z" />
    <glyph glyph-name="lambda" unicode="&#x3bb;" 
d="M454 1398h-49l31 158l69 -2q273 -8 303 -173l248 -1381h-195l-153 828l-547 -828h-195l700 1074l-35 198q-22 126 -177 126z" />
    <glyph glyph-name="uni03BC" unicode="&#x3bc;" 
d="M301 319q1 -188 229 -188q120 0 201.5 82.5t114.5 253.5l127 653h186l-168 -862q-6 -36 -6 -55q0 -62 49 -62q18 0 72 23l-29 -148q-82 -45 -148 -45t-105.5 42.5t-39.5 115.5q-54 -82 -122.5 -120t-167.5 -38q-184 0 -248 166l-109 -563h-176l301 1546h187l-136 -696
q-12 -62 -12 -105z" />
    <glyph glyph-name="nu" unicode="&#x3bd;" 
d="M1126 791q0 -104 -41.5 -187t-144.5 -227.5t-395 -376.5h-196l-124 1120h198l106 -940q235 203 313.5 342t90.5 188t12 107q0 156 -89 303h186q84 -147 84 -329z" />
    <glyph glyph-name="xi" unicode="&#x3be;" 
d="M777 -148q0 119 -97 119q-280 0 -417 94.5t-137 241.5t122 289.5t302 199.5q-174 23 -203 103t-29 126q0 99 77.5 200t206.5 146h-208l36 185h789l-36 -185q-319 0 -457 -62.5t-180.5 -110.5t-42.5 -94q0 -92 127 -156t357 -68l-33 -170q-300 -21 -467 -125.5
t-167 -229.5q0 -96 101.5 -161t288.5 -67q114 0 181 -59.5t67 -150.5q0 -90 -72.5 -218.5t-305.5 -128.5q9 45 29 151q61 -5 114.5 35.5t53.5 95.5z" />
    <glyph glyph-name="omicron" unicode="&#x3bf;" 
d="M524 127q189 0 292.5 180t103.5 400q0 149 -52.5 216.5t-158.5 67.5q-189 0 -292.5 -180t-103.5 -400q0 -149 52.5 -216.5t158.5 -67.5zM117 392q-1 288 159 521q160 234 441 234q193 0 295 -106.5t102 -313.5t-125.5 -481.5t-474.5 -274.5q-196 0 -296.5 109t-100.5 312
z" />
    <glyph glyph-name="pi" unicode="&#x3c0;" 
d="M821 268v684h-428v-952h-180v952h-143v148h1073v-148h-141v-704q0 -73 25 -104t75 -31l16 1l33 3q18 1 21 2v-133q-62 -25 -160 -25q-99 0 -145 65t-46 242z" />
    <glyph glyph-name="rho" unicode="&#x3c1;" 
d="M355 383q0 -256 207 -256q187 0 278.5 201.5t91.5 392.5q0 190 -68.5 230t-134.5 40q-270 0 -355 -432q-19 -95 -19 -176zM755 1147q187 0 280 -103t93 -290q0 -91 -26 -215q-54 -263 -198 -415.5t-350 -152.5t-262 170l-110 -567h-185l188 966q89 461 277.5 534
t292.5 73z" />
    <glyph glyph-name="sigma1" unicode="&#x3c2;" 
d="M720 -121q0 29 -21 57.5t-68 33.5t-96 12.5t-134.5 33.5t-161 114.5t-75.5 252.5q0 85 25 202q25 116 84.5 225.5t188 223t382.5 113.5q167 0 304 -86l-38 -193q-113 123 -284 123q-272 0 -367.5 -202t-95.5 -376q0 -129 69.5 -204t141.5 -78t79 -4q134 -20 193 -69
t59 -137t-42 -160.5t-114.5 -131.5t-225.5 -59q20 106 29 151q61 -5 108 31t54 67q6 31 6 60z" />
    <glyph glyph-name="sigma" unicode="&#x3c3;" 
d="M514 127q144 0 249 123.5t118 244.5t13 145q0 147 -114.5 214t-138.5 81q-197 -15 -251 -149t-72 -228t-18 -168q0 -263 214 -263zM1083 622q0 -204 -145 -427.5t-447 -223.5q-190 0 -289.5 99t-99.5 294q0 88 21 195q55 270 202 415.5t386 145.5h515l-36 -184h-241
q134 -110 134 -314z" />
    <glyph glyph-name="tau" unicode="&#x3c4;" 
d="M726 0q-145 0 -213.5 61.5t-68.5 192.5q0 61 17 152l103 530h-361l35 184h914l-35 -184h-365l-106 -541q-15 -77 -15 -123t12 -68q27 -48 135 -48h88l-30 -156h-110z" />
    <glyph glyph-name="upsilon" unicode="&#x3c5;" 
d="M1161 803q0 -241 -166.5 -522t-531.5 -281q-115 0 -181 62.5t-66 194.5q0 65 16 149l110 571h-210l28 143h398l-141 -725q-15 -77 -15 -131q0 -108 123 -108q159 0 269.5 137.5t163.5 346.5q24 94 24 180q0 156 -87 300h186q80 -138 80 -317z" />
    <glyph glyph-name="phi" unicode="&#x3c6;" 
d="M971 544q20 100 20 184q-1 83 -27 140q-49 103 -105 103q-26 0 -50.5 -35.5t-38.5 -109.5l-133 -686q168 0 241 152t93 252zM69 374q0 88 22 210t117.5 311t372.5 233l-32 -163q-118 -44 -202 -208t-84 -349t71.5 -227t119.5 -42l133 687q29 151 106.5 226.5t202.5 75.5
t208 -102t83 -285q0 -85 -23 -203t-77.5 -226.5t-168 -222t-313.5 -113.5l-78 -402h-183l78 401q-167 0 -260 106.5t-93 292.5z" />
    <glyph glyph-name="chi" unicode="&#x3c7;" 
d="M258 962h-49l30 158h70q257 0 289 -176l69 -380l374 556h191l-524 -780l88 -482q22 -126 179 -126h49l-30 -158h-70q-258 0 -290 176l-69 378l-372 -554h-191l522 777l-88 485q-23 126 -178 126z" />
    <glyph glyph-name="psi" unicode="&#x3c8;" 
d="M413 -25q-127 0 -218 108t-91 263q0 73 11 126l126 648h185l-124 -641q-11 -64 -11 -103q0 -132 64 -179t90 -57l190 980h183l-190 -980q73 24 132 78q110 100 143 261l124 641h185l-126 -648q-40 -207 -190.5 -352t-299.5 -145l-78 -401h-183z" />
    <glyph glyph-name="omega" unicode="&#x3c9;" 
d="M1113 294q-80 -323 -359 -323q-138 0 -171.5 70.5t-36.5 108.5q-57 -121 -143 -150t-135 -29q-226 0 -226 297t101 520t176 332h190q-143 -220 -197 -410t-66 -301.5t-12 -159.5t28 -83t63 -35q94 0 138 130t105 438h170q-65 -332 -65 -437l1 -22q4 -55 28 -82t58 -27
t75 34.5t61 84.5q106 268 106 606q0 106 -41 264h190q42 -139 42 -321t-80 -505z" />
    <glyph glyph-name="iotadieresis" unicode="&#x3ca;" 
d="M746 -5q-145 0 -213.5 61t-68.5 193q0 64 17 152l110 576h-210l28 143h398l-141 -730q-15 -78 -15 -118q0 -73 33 -97t114 -24h88l-30 -156h-110zM850 1320q-34 0 -27 33l28 142q4 27 32 27h143q34 0 27 -33l-28 -142q-5 -27 -32 -27h-143zM459 1320q-34 0 -27 33l28 142
q4 27 32 27h143q34 0 27 -33l-28 -142q-5 -27 -32 -27h-143z" />
    <glyph glyph-name="upsilondieresis" unicode="&#x3cb;" 
d="M1161 803q0 -241 -166.5 -522t-531.5 -281q-115 0 -181 62.5t-66 194.5q0 65 16 149l110 571h-210l28 143h398l-141 -725q-15 -77 -15 -131q0 -108 123 -108q159 0 269.5 137.5t163.5 346.5q24 94 24 180q0 156 -87 300h186q80 -138 80 -317zM860 1320q-34 0 -27 33
l28 142q4 27 32 27h143q34 0 27 -33l-28 -142q-5 -27 -32 -27h-143zM469 1320q-34 0 -27 33l28 142q4 27 32 27h143q34 0 27 -33l-28 -142q-5 -27 -32 -27h-143z" />
    <glyph glyph-name="omicrontonos" unicode="&#x3cc;" 
d="M524 127q189 0 292.5 180t103.5 400q0 149 -52.5 216.5t-158.5 67.5q-189 0 -292.5 -180t-103.5 -400q0 -149 52.5 -216.5t158.5 -67.5zM117 392q-1 288 159 521q160 234 441 234q193 0 295 -106.5t102 -313.5t-125.5 -481.5t-474.5 -274.5q-196 0 -296.5 109t-100.5 312
zM937 1673h219l-395 -376h-156z" />
    <glyph glyph-name="upsilontonos" unicode="&#x3cd;" 
d="M1161 803q0 -241 -166.5 -522t-531.5 -281q-115 0 -181 62.5t-66 194.5q0 65 16 149l110 571h-210l28 143h398l-141 -725q-15 -77 -15 -131q0 -108 123 -108q159 0 269.5 137.5t163.5 346.5q24 94 24 180q0 156 -87 300h186q80 -138 80 -317zM907 1648h219l-395 -376
h-156z" />
    <glyph glyph-name="omegatonos" unicode="&#x3ce;" 
d="M1113 294q-80 -323 -359 -323q-138 0 -171.5 70.5t-36.5 108.5q-57 -121 -143 -150t-135 -29q-226 0 -226 297t101 520t176 332h190q-143 -220 -197 -410t-66 -301.5t-12 -159.5t28 -83t63 -35q94 0 138 130t105 438h170q-65 -332 -65 -437l1 -22q4 -55 28 -82t58 -27
t75 34.5t61 84.5q106 268 106 606q0 106 -41 264h190q42 -139 42 -321t-80 -505zM967 1673h219l-395 -376h-156z" />
    <glyph glyph-name="uni03F4" unicode="&#x3f4;" 
d="M289 438q0 -107 15 -162q40 -141 193 -141t247 137.5t154 438.5h-577q-32 -166 -32 -273zM945 1073q0 145 -49 214t-161 69q-212 0 -281.5 -182t-96.5 -293h571q17 119 17 192zM465 -29q-195 0 -289.5 110.5t-94.5 338.5q0 140 36 325q76 391 237 583t413 192
q385 0 385 -452q0 -140 -36 -323q-76 -390 -237 -582t-414 -192z" />
    <glyph glyph-name="uni0400" unicode="&#x400;" 
d="M344 1493h885l-33 -170h-684l-86 -442h653l-32 -170h-654l-104 -541h702l-33 -170h-905zM576 1869h182l147 -264h-139z" />
    <glyph glyph-name="uni0401" unicode="&#x401;" 
d="M344 1493h885l-33 -170h-684l-86 -442h653l-32 -170h-654l-104 -541h702l-33 -170h-905zM947 1648q-34 0 -27 33l28 142q4 27 32 27h143q28 0 28 -25q0 -5 -1 -8l-28 -142q-5 -27 -32 -27h-143zM556 1648q-34 0 -27 33l28 142q4 27 32 27h143q28 0 28 -25q0 -5 -1 -8
l-28 -142q-5 -27 -32 -27h-143z" />
    <glyph glyph-name="uni0402" unicode="&#x402;" 
d="M430 -470q-5 0 -23 1t-22 1q1 1 33 181l75 -17q12 -2 57 -2q114 0 182.5 75.5t108.5 276.5l81 416q13 65 13 138t-44.5 114t-139.5 41q-95 1 -168 -31t-107 -66t-66 -103t-49 -154l-78 -401h-203l258 1325h-246l33 170h894l-33 -170h-445l-102 -525q41 37 70 52
q30 15 31.5 16t6.5 3.5t15 7t68 33.5t230 29t230.5 -81t58.5 -176t-19 -196l-86 -442q-56 -285 -186.5 -400.5t-390.5 -115.5h-37z" />
    <glyph glyph-name="uni0403" unicode="&#x403;" 
d="M380 1493h924l-33 -170h-721l-257 -1323h-203zM974 1866h208l-307 -264h-160z" />
    <glyph glyph-name="uni0404" unicode="&#x404;" 
d="M318 512q0 -62 4.5 -102t23 -103.5t86.5 -117.5t175 -54q197 0 372 125l-41 -207q-168 -82 -349 -82q-336 0 -406.5 189t-70.5 318q0 128 32 290t101.5 306.5t217 295t431.5 150.5q177 0 314 -82l-41 -207q-128 125 -313 125t-295 -127t-187 -398h627l-33 -170h-632
q-16 -87 -16 -149z" />
    <glyph glyph-name="uni0405" unicode="&#x405;" 
d="M848 452q0 81 -46 123t-175 84l-101 33q-185 60 -258 132t-73 189q0 227 166.5 367t420.5 140q166 0 365 -78l-39 -205q-163 119 -337 119t-279 -81.5t-105 -208.5q0 -75 49 -116.5t178 -83.5l121 -39q172 -56 243 -137.5t71 -205.5q0 -237 -166.5 -375t-447.5 -138
q-210 0 -410 90l41 209q189 -135 383 -135t296.5 88t102.5 229z" />
    <glyph glyph-name="uni0406" unicode="&#x406;" 
d="M90 170h313l224 1153h-314l33 170h830l-33 -170h-314l-223 -1153h314l-33 -170h-830z" />
    <glyph glyph-name="uni0407" unicode="&#x407;" 
d="M90 170h313l224 1153h-314l33 170h830l-33 -170h-314l-223 -1153h314l-33 -170h-830zM914 1648q-34 0 -27 33l28 142q4 27 32 27h143q28 0 28 -25q0 -5 -1 -8l-28 -142q-5 -27 -32 -27h-143zM523 1648q-34 0 -27 33l28 142q4 27 32 27h143q28 0 28 -25q0 -5 -1 -8
l-28 -142q-5 -27 -32 -27h-143z" />
    <glyph glyph-name="uni0408" unicode="&#x408;" 
d="M386 135q140 0 207.5 75t108.5 277l164 836h-381l33 170h584l-197 -1006q-56 -284 -174 -400t-335 -116t-421 90l45 236q149 -162 366 -162z" />
    <glyph glyph-name="uni0409" unicode="&#x409;" 
d="M687 166q94 0 186 89.5t92 284.5q0 126 -61.5 156.5t-107.5 30.5h-21l-109 -561h21zM828 893q134 0 230.5 -89.5t96.5 -257.5t-67.5 -271.5t-139.5 -160.5q-145 -114 -293 -114h-207l257 1323h-172l-49 -250q-82 -422 -139 -632t-171 -322q-67 -65 -131 -92t-172 -27
l32 164q96 0 141 28.5t88.5 145t164.5 729.5l83 426h544l-117 -600h21z" />
    <glyph glyph-name="uni040A" unicode="&#x40a;" 
d="M741 166q94 0 186 89.5t92 282.5q0 127 -60.5 158t-108.5 31h-21l-109 -561h21zM882 893q168 0 249.5 -83.5t81.5 -218.5q0 -65 -20 -161t-72.5 -180t-153.5 -167t-258 -83h-207l138 711h-395l-138 -711h-186l290 1493h186l-119 -612h395l119 612h186l-117 -600h21z" />
    <glyph glyph-name="uni040B" unicode="&#x40b;" 
d="M846 941q46 0 117 -24.5t103 -88.5q37 -65 37 -157t-18 -183l-95 -488h-203l90 462q13 72 13 116q0 91 -44 134t-138 43q-94 1 -169 -31t-109 -66q-78 -77 -114 -257l-78 -401h-203l257 1325h-246l33 170h894l-33 -170h-445l-102 -525q38 36 77 55t103.5 52.5t272.5 33.5
z" />
    <glyph glyph-name="uni040C" unicode="&#x40c;" 
d="M366 1493h202l-127 -647l742 647h254l-703 -619l428 -874h-219l-360 741l-193 -168l-112 -573h-203zM1004 1852h208l-307 -264h-160z" />
    <glyph glyph-name="uni040D" unicode="&#x40d;" 
d="M285 1493h195l-239 -1229l743 1229h256l-290 -1493h-195l239 1229l-743 -1229h-256zM556 1852h182l147 -264h-139z" />
    <glyph glyph-name="uni040E" unicode="&#x40e;" 
d="M201 172q109 0 166.5 71t116.5 173l-215 1077h217l150 -830l469 830h213l-619 -1068q-170 -296 -278 -360.5t-214 -64.5h-148l33 172h109zM547 1818q0 17 2 37h119q2 -111 170 -111q167 0 219 111h119q-71 -242 -362 -242q-267 0 -267 205z" />
    <glyph glyph-name="uni040F" unicode="&#x40f;" 
d="M397 0h-394l290 1493h203l-257 -1323h553l257 1323h203l-290 -1493h-394l-62 -322h-171z" />
    <glyph glyph-name="uni0410" unicode="&#x410;" 
d="M806 551l-66 774l-364 -774h430zM644 1493h246l166 -1493h-201l-35 389h-520l-184 -389h-217z" />
    <glyph glyph-name="uni0411" unicode="&#x411;" 
d="M495 166q257 0 321.5 117.5t64.5 225.5q0 109 -68.5 156.5t-211.5 47.5h-239l-106 -547h239zM1087 554q0 -135 -89 -344.5t-535 -209.5h-442l290 1493h902l-32 -166h-699l-88 -450h235q375 -16 440 -206q18 -51 18 -117z" />
    <glyph glyph-name="uni0412" unicode="&#x412;" 
d="M506 166q275 0 327 125.5t52 200.5q0 116 -65 168.5t-214 52.5h-241l-107 -547h248zM639 877q230 0 277 104.5t47 182.5q0 164 -236 163h-244l-88 -450h244zM1085 482q0 -222 -161 -352t-449 -130h-452l290 1493h443q411 0 411 -315q0 -152 -92 -255.5t-248 -123.5
q258 -51 258 -317z" />
    <glyph glyph-name="uni0413" unicode="&#x413;" 
d="M380 1493h924l-33 -170h-721l-257 -1323h-203z" />
    <glyph glyph-name="uni0414" unicode="&#x414;" 
d="M263 188q0 -18 43 -18h465l224 1153h-446l-57 -297q-35 -188 -132 -526q-97 -339 -97 -312zM5 170q69 0 164.5 363.5t119.5 493.5l90 466h852l-257 -1323h121l-95 -492h-170l62 322h-827l-62 -322h-170l95 492h77z" />
    <glyph glyph-name="uni0415" unicode="&#x415;" 
d="M344 1493h885l-33 -170h-684l-86 -442h653l-32 -170h-654l-104 -541h702l-33 -170h-905z" />
    <glyph glyph-name="uni0416" unicode="&#x416;" 
d="M360 891l-170 602h207l168 -595l116 595h187l-116 -595l400 595h207l-404 -602l131 -891h-197l-96 650l-125 -186l-90 -464h-187l90 464l-53 186l-348 -650h-197z" />
    <glyph glyph-name="uni0417" unicode="&#x417;" 
d="M835 478q0 237 -281 237h-153l32 166h154q157 0 250.5 74.5t93.5 187.5t-61.5 160t-167.5 47q-184 0 -412 -80l37 186q240 64 366 64q223 0 331 -87t108 -241q0 -153 -90.5 -257t-249.5 -136q112 -21 177 -100t65 -205q0 -240 -169.5 -381.5t-452.5 -141.5
q-211 0 -400 74l38 201q184 -105 372 -105q189 0 301 93t112 244z" />
    <glyph glyph-name="uni0418" unicode="&#x418;" 
d="M285 1493h195l-239 -1229l743 1229h256l-290 -1493h-195l239 1229l-743 -1229h-256z" />
    <glyph glyph-name="uni0419" unicode="&#x419;" 
d="M285 1493h195l-239 -1229l743 1229h256l-290 -1493h-195l239 1229l-743 -1229h-256zM528 1813q0 17 2 37h119q2 -111 170 -111q167 0 219 111h119q-71 -242 -362 -242q-267 0 -267 205z" />
    <glyph glyph-name="uni041A" unicode="&#x41a;" 
d="M283 1493h202l-127 -647l742 647h254l-703 -619l428 -874h-219l-360 741l-193 -168l-112 -573h-203z" />
    <glyph glyph-name="uni041B" unicode="&#x41b;" 
d="M-74 164q97 0 133 21.5t55 47.5t55.5 112.5t162.5 721.5l83 426h814l-290 -1493h-203l257 1323h-408l-49 -250q-33 -165 -61.5 -312t-81.5 -339.5t-167 -301.5q-70 -65 -139 -92.5t-193 -27.5z" />
    <glyph glyph-name="uni041C" unicode="&#x41c;" 
d="M237 1493h269l110 -756l414 756h270l-291 -1493h-186l258 1327l-434 -795h-141l-115 795l-256 -1327h-186z" />
    <glyph glyph-name="uni041D" unicode="&#x41d;" 
d="M283 1493h202l-118 -612h553l118 612h203l-291 -1493h-202l139 711h-555l-137 -711h-203z" />
    <glyph glyph-name="uni041E" unicode="&#x41e;" 
d="M501 135q144 0 241 124t154.5 375t57.5 372q0 120 -20 235t-190 115q-138 0 -235.5 -127t-154.5 -376t-57 -409t47 -234.5t157 -74.5zM761 1520q400 0 400 -483q0 -247 -87 -521q-118 -369 -281 -457t-303 -88q-398 0 -398 488q0 252 85 516q116 363 278.5 454t305.5 91z
" />
    <glyph glyph-name="uni041F" unicode="&#x41f;" 
d="M283 1493h959l-290 -1493h-203l257 1323h-553l-257 -1323h-203z" />
    <glyph glyph-name="uni0420" unicode="&#x420;" 
d="M637 766q164 0 263 95t99 249q0 112 -61 164.5t-193 52.5h-233l-109 -561h234zM782 1493q422 0 422 -371q0 -235 -161 -378.5t-439 -143.5h-233l-117 -600h-203l291 1493h440z" />
    <glyph glyph-name="uni0421" unicode="&#x421;" 
d="M884 1356q-259 0 -384.5 -236t-149.5 -385t-24 -232q0 -187 79 -277t238 -91q160 0 340 125l-39 -207q-172 -82 -347 -82q-228 0 -355 131t-127 390q0 205 70 421q129 406 421 545q130 62 292 62t314 -82l-41 -207q-129 125 -287 125z" />
    <glyph glyph-name="uni0422" unicode="&#x422;" 
d="M659 1323h-469l33 170h1140l-33 -170h-469l-256 -1323h-204z" />
    <glyph glyph-name="uni0423" unicode="&#x423;" 
d="M201 172q109 0 166.5 71t116.5 173l-215 1077h217l150 -830l469 830h213l-619 -1068q-170 -296 -278 -360.5t-214 -64.5h-148l33 172h109z" />
    <glyph glyph-name="uni0424" unicode="&#x424;" 
d="M996 987q0 76 -15 135.5t-166 84.5l-174 -891q208 27 257.5 178t73.5 284t24 209zM293 376.5q36 -42.5 145 -60.5l174 891q-159 -26 -223.5 -128t-95 -279t-32 -204t-3.5 -52t-1 -75q0 -50 36 -92.5zM1200 954q0 -72 -24 -198q-53 -280 -186 -438t-381 -166l-29 -152
h-203l29 152q-135 8 -186 33.5t-74 51t-37 55.5q-54 118 -54 276q1 78 23 203q50 274 187 434t378 166l24 122h203l-24 -122q235 -8 292 -110.5t59.5 -168.5t2.5 -138z" />
    <glyph glyph-name="uni0425" unicode="&#x425;" 
d="M530 797l-288 696h200l224 -532l440 532h231l-596 -719l324 -774h-201l-254 612l-506 -612h-231z" />
    <glyph glyph-name="uni0426" unicode="&#x426;" 
d="M889 0h-923l290 1493h203l-257 -1323h553l257 1323h203l-257 -1323h134l-95 -492h-170z" />
    <glyph glyph-name="uni0427" unicode="&#x427;" 
d="M273 612.5q-106 35.5 -106 217.5q0 79 15 150l100 513h203l-95 -487q-12 -64 -12 -121t27 -81q27 -25 70 -33t103 -8q115 0 178 18.5t155 79.5l123 632h203l-290 -1493h-203l128 658q-154 -70 -236.5 -75.5t-169.5 -5.5t-193 35.5z" />
    <glyph glyph-name="uni0428" unicode="&#x428;" 
d="M267 1493h186l-257 -1323h224l257 1323h186l-257 -1323h224l257 1323h186l-290 -1493h-1006z" />
    <glyph glyph-name="uni0429" unicode="&#x429;" 
d="M943 0h-970l290 1493h186l-257 -1323h224l257 1323h186l-257 -1323h224l257 1323h186l-257 -1323h134l-95 -492h-170z" />
    <glyph glyph-name="uni042A" unicode="&#x42a;" 
d="M529 166q142 0 234 73t118 207q7 35 7 70q0 101 -64.5 156t-185.5 55h-138l-109 -561h138zM670 893q218 0 326 -84.5t108 -245.5q0 -53 -17 -141t-116.5 -255t-473.5 -167h-340l257 1323h-261l33 170h463l-117 -600h138z" />
    <glyph glyph-name="uni042B" unicode="&#x42b;" 
d="M246 166q169 0 236.5 124t67.5 230q0 207 -195 207h-91l-109 -561h91zM1077 1493h203l-290 -1493h-203zM387 893q268 0 322 -127.5t54 -181.5q0 -312 -175.5 -448t-373.5 -136h-293l290 1493h202l-117 -600h91z" />
    <glyph glyph-name="uni042C" unicode="&#x42c;" 
d="M520 166q142 0 234 73t118 207q7 35 7 70q0 101 -64.5 156t-185.5 55h-234l-109 -561h234zM661 893q218 0 326 -84.5t108 -245.5q0 -53 -17 -141t-116.5 -255t-473.5 -167h-436l290 1493h202l-117 -600h234z" />
    <glyph glyph-name="uni042D" unicode="&#x42d;" 
d="M899 992q0 65 -3.5 105.5t-34 149.5t-247.5 109q-186 0 -364 -125l41 207q168 82 348 82q335 0 406.5 -190.5t71.5 -319.5q1 -130 -31 -290t-101 -304t-215.5 -294.5t-433.5 -150.5q-178 0 -315 82l41 207q125 -125 312 -125t312 143.5t177 382.5h-632l33 170h627
q8 96 8 161z" />
    <glyph glyph-name="uni042E" unicode="&#x42e;" 
d="M564 346q0 -211 131 -211q111 0 183 141q93 182 139.5 466t46.5 402q0 212 -132 212q-108 0 -181 -141q-97 -189 -142 -472.5t-45 -396.5zM1253 1106q0 -70 -8.5 -155.5t-33.5 -222t-82.5 -301t-123.5 -260.5q-136 -196 -344 -196q-289 0 -289 401q0 128 28 294h-111
l-130 -666h-203l291 1493h203l-128 -657h111q155 684 530 684q252 0 271 -172t19 -242z" />
    <glyph glyph-name="uni042F" unicode="&#x42f;" 
d="M750 1327q-145 0 -240.5 -73.5t-105 -162t-9.5 -106.5q0 -188 244 -188h271l103 530h-263zM179 959q-1 41 15 125t116 246.5t472 162.5h466l-290 -1493h-203l123 631h-290l-473 -631h-214l498 666q-100 39 -160 114t-60 179z" />
    <glyph glyph-name="uni0430" unicode="&#x430;" 
d="M447 125q152 0 262 106t147 291l8 41h-172q-163 0 -210 -12t-68 -21q-68 -29 -109 -87t-41 -139t51 -130t132 -49zM72 283q0 190 155.5 307t417.5 117h246l12 61q4 18 4 39q0 184 -242 184q-175 0 -397 -102l35 180q218 78 397 78t283 -81.5t104 -226.5q0 -74 -24 -200
l-125 -639h-164l12 166q-151 -195 -382 -195q-152 0 -242 84t-90 228z" />
    <glyph glyph-name="uni0431" unicode="&#x431;" 
d="M925 740q0 251 -218 251q-137 0 -245.5 -120t-126 -286.5t-17.5 -206.5t8 -85t31.5 -81.5t66 -60.5t146 -24t214 123t126 289t15.5 201zM380 1024q143 123 357 123q384 0 384 -393q1 -89 -23 -213q-51 -267 -204.5 -418.5t-377.5 -151.5q-397 0 -397 398q0 83 13 144
t17 82t5 26l25 167q45 295 134 440q183 300 439 321t286 23q69 5 106 19l43 -142q-39 -14 -90 -18l-244 -24q-96 -10 -194 -58q-98 -49 -166 -119.5t-93 -145.5z" />
    <glyph glyph-name="uni0432" unicode="&#x432;" 
d="M572 150q121 0 179.5 77t58.5 162q0 109 -65.5 117.5t-97.5 8.5h-243l-71 -365h239zM864 848q0 122 -144 122h-227l-60 -305h228q86 0 144.5 50t58.5 133zM735 1120q158 0 240.5 -64t82.5 -155q0 -18 -5 -48q-20 -112 -83 -176t-160 -77q169 -34 182 -101t13 -100
q0 -194 -133.5 -296.5t-338.5 -102.5h-413l218 1120h397z" />
    <glyph glyph-name="uni0433" unicode="&#x433;" 
d="M394 1120h752l-29 -150h-568l-189 -970h-184z" />
    <glyph glyph-name="uni0434" unicode="&#x434;" 
d="M341 160q0 -10 32 -10h388l159 820h-380l-52 -270q-2 -10 -9.5 -42t-31.5 -134.5t-47 -181t-29.5 -101t-11.5 -36.5t-11 -24q-6 -11 -7 -21zM111 150q71 0 130 261t65 293l81 416h748l-189 -970h121l-85 -436h-150l56 286h-723l-56 -286h-150l85 436h67z" />
    <glyph glyph-name="uni0435" unicode="&#x435;" 
d="M948 751q0 106 -65 173t-185 67t-220.5 -90t-145.5 -242h606q10 45 10 92zM285 406q0 -133 76 -206t242 -73t394 113l-36 -183q-212 -86 -422 -86t-325.5 111t-115.5 338t122 418.5t254.5 251t234.5 59.5q193 0 305 -114t112 -304q0 -72 -22 -215h-807q-12 -64 -12 -110z
" />
    <glyph glyph-name="uni0436" unicode="&#x436;" 
d="M348 716l-160 404h199l171 -432l84 432h168l-84 -432l339 432h199l-318 -404l120 -716h-179l-88 528l-139 -177l-68 -351h-168l68 351l-69 177l-294 -528h-179z" />
    <glyph glyph-name="uni0437" unicode="&#x437;" 
d="M1023 379q0 -104 -106 -252.5t-491 -148.5q-178 0 -360 56l34 173q140 -69 342 -69q286 0 342 87.5t56 138.5q0 76 -72 122t-212 46h-158l28 144h165q199 0 256 65.5t57 117.5t-66.5 88.5t-167.5 36.5q-178 0 -388 -52l32 167q220 48 345 48q220 0 327.5 -64t107.5 -184
t-89.5 -193.5t-212.5 -98.5q231 -43 231 -228z" />
    <glyph glyph-name="uni0438" unicode="&#x438;" 
d="M304 1120h184l-157 -809l644 809h184l-218 -1120h-184l157 809l-644 -809h-184z" />
    <glyph glyph-name="uni0439" unicode="&#x439;" 
d="M304 1120h184l-157 -809l644 809h184l-218 -1120h-184l157 809l-644 -809h-184zM469 1507q0 29 3 41h120v-17q0 -133 164 -133q165 0 223 150h119q-66 -287 -351 -287q-134 0 -206 64t-72 182z" />
    <glyph glyph-name="uni043A" unicode="&#x43a;" 
d="M325 1120h190l-91 -465l574 465h224l-523 -422l374 -698h-225l-302 578l-162 -129l-87 -449h-190z" />
    <glyph glyph-name="uni043B" unicode="&#x43b;" 
d="M-4 150q92 0 161 76.5t150 495.5l78 398h785l-218 -1120h-184l189 970h-417l-48 -245q-45 -229 -109 -429t-181 -248t-215 -48h-55l29 150h35z" />
    <glyph glyph-name="uni043C" unicode="&#x43c;" 
d="M169 1120h184l241 -691l509 691h184l-218 -1120h-184l144 741l-376 -481h-184l-190 481l-144 -741h-184z" />
    <glyph glyph-name="uni043D" unicode="&#x43d;" 
d="M304 1120h184l-89 -455h487l89 455h184l-218 -1120h-184l100 515h-487l-100 -515h-184z" />
    <glyph glyph-name="uni043E" unicode="&#x43e;" 
d="M524 127q189 0 292.5 180t103.5 400q0 149 -52.5 216.5t-158.5 67.5q-189 0 -292.5 -180t-103.5 -400q0 -149 52.5 -216.5t158.5 -67.5zM117 392q-1 288 159 521q160 234 441 234q193 0 295 -106.5t102 -313.5t-125.5 -481.5t-474.5 -274.5q-196 0 -296.5 109t-100.5 312
z" />
    <glyph glyph-name="uni043F" unicode="&#x43f;" 
d="M304 1120h855l-218 -1120h-184l189 970h-487l-189 -970h-184z" />
    <glyph glyph-name="uni0440" unicode="&#x440;" 
d="M354 397q0 -270 214 -270q245 0 305.5 250t60.5 369q0 245 -205 245q-210 0 -292.5 -218.5t-82.5 -375.5zM791 1147q160 0 248.5 -104.5t88.5 -305.5t-87 -406.5t-212 -282.5t-251 -77q-197 0 -285 170l-111 -567h-184l301 1546h164l-8 -143q128 170 336 170z" />
    <glyph glyph-name="uni0441" unicode="&#x441;" 
d="M340 434q0 -231 100.5 -269t185.5 -38q179 0 343 125l-39 -201q-150 -80 -333 -80q-335 0 -393 167.5t-58 257.5q0 172 79.5 383.5t323.5 318.5q109 49 221 49q200 0 357 -86l-37 -182q-126 112 -290 112q-110 0 -174 -33q-107 -56 -165 -141t-89 -192q-32 -107 -32 -191
z" />
    <glyph glyph-name="uni0442" unicode="&#x442;" 
d="M607 970h-311l29 150h806l-29 -150h-311l-189 -970h-184z" />
    <glyph glyph-name="uni0443" unicode="&#x443;" 
d="M128 -272q119 0 175 76.5t83 129.5l43 84l-217 1102h183l172 -862l483 862h205l-439 -760q-25 -43 -49.5 -86t-30.5 -52l-126 -223q-122 -213 -175 -284q-106 -141 -296 -141h-148l29 154h108z" />
    <glyph glyph-name="uni0444" unicode="&#x444;" 
d="M955 748q0 71 -13 138t-157 96l-166 -855q133 28 181.5 88.5t72.5 126.5t53 201q29 134 29 205zM266 366q0 -69 13.5 -139.5t155.5 -99.5l166 855q-136 -28 -183.5 -87.5t-71.5 -123.5t-52 -200t-28 -205zM73 309q0 49 4 101.5t34 243.5t171 338q123 132 351 155l80 409
h184l-80 -409q197 -20 265 -111t68 -232q0 -234 -66 -414.5t-135 -254.5q-135 -143 -360 -164l-78 -397h-184l78 397q-280 29 -306 159t-26 179z" />
    <glyph glyph-name="uni0445" unicode="&#x445;" 
d="M515 596l-293 524h196l217 -395l369 395h225l-512 -547l318 -573h-197l-244 444l-417 -444h-226z" />
    <glyph glyph-name="uni0446" unicode="&#x446;" 
d="M887 0h-844l218 1120h184l-189 -970h486l189 970h184l-189 -970h140l-85 -436h-150z" />
    <glyph glyph-name="uni0447" unicode="&#x447;" 
d="M492 402q-309 0 -309 245q0 49 12 108l71 367h184l-71 -367q-6 -30 -6 -56q0 -78 52 -107.5t137 -29.5t146.5 11t132.5 48l97 501h184l-218 -1122h-184l91 466q-171 -64 -319 -64z" />
    <glyph glyph-name="uni0448" unicode="&#x448;" 
d="M234 1120h168l-189 -970h240l189 970h168l-189 -970h240l189 970h168l-218 -1120h-984z" />
    <glyph glyph-name="uni0449" unicode="&#x449;" 
d="M977 0h-978l218 1120h168l-189 -970h240l189 970h168l-189 -970h240l189 970h168l-189 -970h144l-85 -436h-150z" />
    <glyph glyph-name="uni044A" unicode="&#x44a;" 
d="M631 153q277 0 287 106.5t10 114.5q0 140 -227 140h-248l-70 -361h248zM739 667q312 0 350 -108.5t38 -152.5q0 -94 -36 -177.5t-151 -156.5q-116 -72 -331 -72h-440l189 970h-248l29 150h432l-88 -453h256z" />
    <glyph glyph-name="uni044B" unicode="&#x44b;" 
d="M290 153q277 0 287 106.5t10 114.5q0 140 -227 140h-83l-70 -361h83zM1054 1120h184l-218 -1120h-184zM398 667q296 0 342 -102t46 -139q0 -237 -152 -331.5t-366 -94.5h-273l218 1120h182l-88 -453h91z" />
    <glyph glyph-name="uni044C" unicode="&#x44c;" 
d="M876 375q0 139 -226 139h-248l-71 -361h248q257 0 292 179q5 27 5 43zM687 667q186 0 287 -65t101 -196q0 -39 -7 -74q-31 -164 -160.5 -248t-349.5 -84h-440l217 1120h184l-88 -453h256z" />
    <glyph glyph-name="uni044D" unicode="&#x44d;" 
d="M438 -29q-108 0 -181 21.5t-140 64.5l38 191q103 -121 283 -121q257 0 337 149.5t103 239.5h-542l28 144h537q1 10 1 12v48q0 32 -13 85t-66 119.5t-220 66.5t-328 -123l38 193q172 86 317 86q253 0 360.5 -121.5t107.5 -304.5q0 -68 -22 -185q-22 -116 -81.5 -225.5
t-145.5 -185t-194.5 -115t-216.5 -39.5z" />
    <glyph glyph-name="uni044E" unicode="&#x44e;" 
d="M606 390q0 -263 126 -263q86 0 160 119t116 329q21 103 21 160q0 111 -30 183t-102 72t-150 -116.5t-120 -320.5q-21 -106 -21 -163zM413 352q0 68 8 132h-142l-94 -484h-184l218 1120h184l-94 -486h142q64 250 192.5 381.5t281.5 131.5t225.5 -104.5t72.5 -273.5
q0 -313 -115.5 -505t-222 -242.5t-183.5 -50.5t-131 32.5t-89.5 86.5t-52 124t-16.5 138z" />
    <glyph glyph-name="uni044F" unicode="&#x44f;" 
d="M658 970q-66 0 -138.5 -56.5t-72.5 -175.5q0 -58 41.5 -95.5t97.5 -37.5h228l71 365h-227zM258 708q0 38 14 107t95 187t334 118h397l-218 -1120h-184l89 455h-193l-347 -455h-181l365 479q-171 82 -171 229z" />
    <glyph glyph-name="uni0450" unicode="&#x450;" 
d="M948 751q0 106 -65 173t-185 67t-220.5 -90t-145.5 -242h606q10 45 10 92zM285 406q0 -133 76 -206t242 -73t394 113l-36 -183q-212 -86 -422 -86t-325.5 111t-115.5 338t122 418.5t254.5 251t234.5 59.5q193 0 305 -114t112 -304q0 -72 -22 -215h-807q-12 -64 -12 -110z
M453 1675h198l197 -376h-143z" />
    <glyph glyph-name="uni0451" unicode="&#x451;" 
d="M948 751q0 106 -65 173t-185 67t-220.5 -90t-145.5 -242h606q10 45 10 92zM285 406q0 -133 76 -206t242 -73t394 113l-36 -183q-212 -86 -422 -86t-325.5 111t-115.5 338t122 418.5t254.5 251t234.5 59.5q193 0 305 -114t112 -304q0 -72 -22 -215h-807q-12 -64 -12 -110z
M885 1349q-34 0 -27 33l28 142q4 27 32 27h143q28 0 28 -25q0 -5 -1 -8l-28 -142q-5 -27 -32 -27h-143zM494 1349q-34 0 -27 33l28 142q4 27 32 27h143q28 0 28 -25q0 -5 -1 -8l-28 -142q-5 -27 -32 -27h-143z" />
    <glyph glyph-name="uni0452" unicode="&#x452;" 
d="M1098 488q0 -216 -75 -391.5t-200 -328.5t-375 -194l32 165q132 21 258 191t144 326t18 182q0 91 -44.5 134t-138.5 43q-141 0 -227.5 -92.5t-119.5 -261.5l-51 -261h-184l190 977h-190l28 143h190l85 436h184l-85 -436h448l-28 -143h-448l-77 -397q135 195 376 195
q290 0 290 -287z" />
    <glyph glyph-name="uni0453" unicode="&#x453;" 
d="M380 1120h752l-29 -150h-568l-189 -970h-184zM982 1646h219l-395 -376h-156z" />
    <glyph glyph-name="uni0454" unicode="&#x454;" 
d="M335 413q0 -131 72 -208.5t239 -77.5t315 121l-38 -191q-166 -86 -337 -86q-321 0 -384 162.5t-63 252.5q-1 90 21 202t82.5 221.5t191 223.5t383.5 114q168 0 302 -86l-38 -193q-112 123 -285 123q-312 0 -421 -332l537 1l-28 -144h-542q-7 -43 -7 -103z" />
    <glyph glyph-name="uni0455" unicode="&#x455;" 
d="M1042 901q-147 92 -294 92t-223 -51.5t-76 -133.5q0 -83 96.5 -122t146.5 -47l72 -18q233 -58 233 -256q0 -170 -145 -282t-376 -112q-161 0 -361 70l37 190q187 -106 336 -106t234 58.5t85 141.5q0 114 -196 162l-95 25q-128 34 -189 96t-61 158q0 180 131.5 280.5
t332.5 100.5t347 -66z" />
    <glyph glyph-name="uni0456" unicode="&#x456;" 
d="M596 293q0 -145 180 -145h211l-31 -156h-207q-342 0 -342 256q0 72 19 156l133 572h-246l29 144h430l-162 -720q-14 -56 -14 -107zM627 1323q-34 0 -27 33l34 173q4 27 32 27h124q34 0 27 -33l-34 -173q-5 -27 -32 -27h-124z" />
    <glyph glyph-name="uni0457" unicode="&#x457;" 
d="M596 293q0 -145 180 -145h211l-31 -156h-207q-342 0 -342 256q0 72 19 156l133 572h-246l29 144h430l-162 -720q-14 -56 -14 -107zM751 1350q-34 0 -27 33l28 142q4 27 32 27h143q34 0 27 -33l-28 -142q-5 -27 -32 -27h-143zM360 1350q-34 0 -27 33l28 142q4 27 32 27
h143q34 0 27 -33l-28 -142q-5 -27 -32 -27h-143z" />
    <glyph glyph-name="uni0458" unicode="&#x458;" 
d="M288 -270q97 0 151 60.5t79 189.5l192 997h-317l28 143h502l-221 -1140q-62 -315 -198 -360.5t-226 -45.5h-254l31 156h233zM823 1556h184l-45 -233h-184z" />
    <glyph glyph-name="uni0459" unicode="&#x459;" 
d="M743 153q208 0 228 104t20 133q0 58 -44 91t-134 33h-13l-70 -361h13zM-36 150q92 0 161 76.5t150 495.5l78 398h565l-88 -453h21q162 0 251 -73.5t89 -201.5q1 -198 -177 -312q-124 -79 -293 -80h-189l189 970h-229l-48 -245q-43 -220 -109 -426.5t-182 -252.5t-214 -46
h-39l29 150h35z" />
    <glyph glyph-name="uni045A" unicode="&#x45a;" 
d="M742 153q210 0 243 181q5 32 5 48q0 132 -178 132h-13l-70 -361h13zM850 667q247 0 293 -107.5t46 -151.5q0 -215 -173 -326q-127 -82 -296 -82h-189l100 515h-364l-100 -515h-168l218 1120h168l-89 -455h364l89 455h168l-88 -453h21z" />
    <glyph glyph-name="uni045B" unicode="&#x45b;" 
d="M780 775q139 0 205.5 -71t66.5 -216q0 -69 -19 -166l-62 -322h-185l62 322q13 65 13 112q0 181 -175 181q-131 0 -217 -91.5t-119 -262.5l-51 -261h-184l190 977h-190l27 143h190l85 436h184l-85 -436h448l-27 -143h-448l-77 -397q136 195 368 195z" />
    <glyph glyph-name="uni045C" unicode="&#x45c;" 
d="M328 1120h190l-91 -465l574 465h224l-523 -422l374 -698h-225l-302 578l-162 -129l-87 -449h-190zM948 1646h219l-395 -376h-156z" />
    <glyph glyph-name="uni045D" unicode="&#x45d;" 
d="M304 1120h184l-157 -809l644 809h184l-218 -1120h-184l157 809l-644 -809h-184zM487 1646h198l197 -376h-143z" />
    <glyph glyph-name="uni045E" unicode="&#x45e;" 
d="M128 -272q119 0 175 76.5t83 129.5l43 84l-217 1102h183l172 -862l483 862h205l-439 -760q-25 -43 -49.5 -86t-30.5 -52l-126 -223q-122 -213 -175 -284q-106 -141 -296 -141h-148l29 154h108zM499 1507q0 29 3 41h120v-17q0 -133 164 -133t223 150h119
q-66 -287 -351 -287q-134 0 -206 64t-72 182z" />
    <glyph glyph-name="uni045F" unicode="&#x45f;" 
d="M446 0h-352l218 1120h184l-189 -970h487l189 970h184l-218 -1120h-352l-56 -286h-151z" />
    <glyph glyph-name="uni0462" unicode="&#x462;" 
d="M520 166q213 0 286 123t73 226t-65 157.5t-185 54.5h-138l-109 -561h138zM661 893q218 0 326 -84.5t108 -245.5q0 -53 -17 -141t-116.5 -255t-473.5 -167h-340l215 1105h-261l32 164h261l43 224h202l-43 -224h369l-32 -164h-369l-42 -212h138z" />
    <glyph glyph-name="uni0463" unicode="&#x463;" 
d="M923 371q0 143 -227 143h-248l-70 -358h248q274 0 285.5 103t11.5 112zM734 667q186 0 287 -65t101 -196q0 -39 -7 -74q-32 -166 -164 -249t-347 -83h-440l189 973h-248l29 147h248l84 436h184l-84 -436h425l-29 -147h-425l-59 -306h256z" />
    <glyph glyph-name="uni0472" unicode="&#x472;" 
d="M288 394q0 -260 210 -259q216 0 286.5 191.5t99.5 317.5h-574q-22 -132 -22 -250zM945 1099q0 257 -210 257q-148 0 -238 -127.5t-152 -400.5h575q25 152 25 271zM465 -29q-384 0 -384 450q0 139 36 324q75 385 234 580t416 195q196 0 290.5 -113t94.5 -339
q0 -140 -36 -323q-76 -390 -237 -582t-414 -192z" />
    <glyph glyph-name="uni0473" unicode="&#x473;" 
d="M313 387q0 -260 219 -260q244 0 341 320h-557q-3 -32 -3 -60zM920 731q0 260 -220 260q-266 0 -357 -380h567q10 64 10 120zM729 1147q388 0 388 -394q0 -88 -21 -194q-56 -286 -207.5 -437t-386.5 -151q-192 0 -289 100.5t-97 292.5q0 88 24 213q53 269 206 420
q152 150 383 150z" />
    <glyph glyph-name="uni0490" unicode="&#x490;" 
d="M390 1493h754l63 306h167l-93 -476h-721l-257 -1323h-203z" />
    <glyph glyph-name="uni0491" unicode="&#x491;" 
d="M395 1120h568l61 314h185l-98 -498h-568l-182 -936h-184z" />
    <glyph glyph-name="uni0492" unicode="&#x492;" 
d="M254 830h-130l33 170h130l96 493h924l-33 -170h-721l-63 -323h547l-33 -170h-547l-161 -830h-203z" />
    <glyph glyph-name="uni0493" unicode="&#x493;" 
d="M293 500h-130l33 170h130l88 450h752l-36 -184h-568l-52 -266h416l-33 -170h-416l-97 -500h-184z" />
    <glyph glyph-name="uni0494" unicode="&#x494;" 
d="M464 -240q134 0 204.5 75t107.5 269l56 290q12 63 12 114q0 203 -198 203h-270l-138 -711h-203l290 1493h924l-33 -170h-721l-86 -442h311q188 0 276 -119q59 -80 59 -205q0 -68 -16 -147l-60 -306q-53 -271 -180.5 -392.5t-353.5 -121.5h-76l33 170h62z" />
    <glyph glyph-name="uni0495" unicode="&#x495;" 
d="M550 -270q112 0 156 51t73 199l52 264q17 89 17 130q0 73 -40 93t-151 20h-260l-95 -487h-184l218 1120h752l-36 -184h-568l-59 -305h250q205 0 283.5 -44.5t78.5 -163.5q0 -66 -21 -173l-53 -270q-61 -317 -198 -361.5t-225 -44.5h-193l31 156h172z" />
    <glyph glyph-name="uni0496" unicode="&#x496;" 
d="M903 0h-27l-96 650l-125 -186l-90 -464h-187l90 464l-53 186l-348 -650h-197l477 891l-170 602h207l169 -595l115 595h187l-115 -595l399 595h207l-404 -602l106 -721h58l-96 -492h-170z" />
    <glyph glyph-name="uni0497" unicode="&#x497;" 
d="M939 0h-52l-88 528l-139 -177l-68 -351h-168l68 351l-69 177l-294 -528h-179l398 716l-160 404h199l171 -432l84 432h168l-84 -432l339 432h199l-318 -404l95 -566h77l-85 -436h-150z" />
    <glyph glyph-name="uni0498" unicode="&#x498;" 
d="M805 478q0 237 -281 237h-153l32 166h154q157 0 250.5 74.5t93.5 187.5t-61.5 160t-167.5 47q-184 0 -412 -80l37 186q240 64 366 64q223 0 331 -87t108 -241q0 -153 -90.5 -257t-249.5 -136q112 -21 177 -100t65 -199q0 -222 -137.5 -358.5t-371.5 -164.5
q59 -105 59 -162q0 -100 -70.5 -155t-174.5 -55t-200 30l25 129q80 -38 146 -38t103.5 30.5t37.5 80.5t-43 134q-207 0 -396 74l38 201q184 -105 372 -105q189 0 301 93t112 244z" />
    <glyph glyph-name="uni0499" unicode="&#x499;" 
d="M1023 379q0 -99 -93.5 -238.5t-430.5 -160.5q61 -111 61 -166q0 -99 -70.5 -154t-174.5 -55t-200 30l25 129q80 -38 146 -38t103.5 30.5t37.5 81.5t-47 141q-149 6 -314 55l34 173q140 -69 342 -69q286 0 342 87.5t56 138.5q0 76 -72 122t-212 46h-158l28 144h165
q199 0 256 65.5t57 117.5t-66.5 88.5t-167.5 36.5q-178 0 -388 -52l32 167q220 48 345 48q220 0 327.5 -64t107.5 -184t-89.5 -193.5t-212.5 -98.5q231 -43 231 -228z" />
    <glyph glyph-name="uni049A" unicode="&#x49a;" 
d="M868 0h-41l-342 748l-186 -164l-113 -584h-203l290 1493h203l-129 -664l760 664h237l-699 -610l343 -713h116l-93 -482h-203z" />
    <glyph glyph-name="uni049B" unicode="&#x49b;" 
d="M885 0h-42l-302 578l-162 -129l-87 -449h-190l218 1120h190l-91 -465l574 465h224l-523 -422l276 -514h134l-90 -460h-183z" />
    <glyph glyph-name="uni04A2" unicode="&#x4a2;" 
d="M940 0h-202l139 711h-555l-137 -711h-203l291 1493h202l-118 -612h553l118 612h203l-258 -1323h203l-94 -482h-203z" />
    <glyph glyph-name="uni04A3" unicode="&#x4a3;" 
d="M931 0h-184l98 505h-487l-98 -505h-184l218 1120h184l-87 -445h487l87 445h184l-182 -936h183l-90 -460h-182z" />
    <glyph glyph-name="uni04A4" unicode="&#x4a4;" 
d="M314 1493h186l-119 -612h364l119 612h546l-33 -170h-360l-257 -1323h-186l138 711h-364l-138 -711h-186z" />
    <glyph glyph-name="uni04A5" unicode="&#x4a5;" 
d="M265 1120h168l-89 -455h410l89 455h496l-29 -150h-328l-189 -970h-168l100 515h-410l-100 -515h-168z" />
    <glyph glyph-name="uni04AA" unicode="&#x4aa;" 
d="M436 -274q66 0 103 31t37 81t-44 134q-208 13 -321.5 144.5t-113.5 382.5q0 317 184 669t593 352q162 0 320 -82l-41 -207q-126 125 -287 125q-259 0 -382.5 -234t-149.5 -379t-26 -235q0 -373 300 -373q177 0 357 125l-39 -207q-134 -66 -275 -79q58 -105 58 -160
q0 -99 -70.5 -154t-174.5 -55t-200 30l25 129q81 -38 147 -38z" />
    <glyph glyph-name="uni04AB" unicode="&#x4ab;" 
d="M332 422q0 -153 68.5 -224t208.5 -71q185 0 352 125l-39 -201q-123 -65 -266 -77q57 -106 57 -161q0 -98 -70.5 -153t-174.5 -55t-200 30l25 129q81 -38 147 -38t103 31t37 81t-44 135q-195 13 -296.5 124t-101.5 328t149 469.5t519 252.5q154 0 313 -86l-37 -182
q-127 112 -292 112q-266 0 -362 -208t-96 -361z" />
    <glyph glyph-name="uni04AC" unicode="&#x4ac;" 
d="M575 0h-204l258 1323h-469l33 170h1140l-33 -170h-469l-223 -1153h203l-94 -482h-203z" />
    <glyph glyph-name="uni04AD" unicode="&#x4ad;" 
d="M591 0h-184l183 942h-311l35 178h806l-35 -178h-311l-147 -758h183l-90 -460h-182z" />
    <glyph glyph-name="uni04AE" unicode="&#x4ae;" 
d="M508 670l-313 823h202l236 -651l497 651h218l-635 -823l-129 -670h-207z" />
    <glyph glyph-name="uni04AF" unicode="&#x4af;" 
d="M401 18l-214 1102h195l159 -876l499 876h195l-642 -1102l-86 -444h-192z" />
    <glyph glyph-name="uni04B0" unicode="&#x4b0;" 
d="M464 420h-264l33 170h264l15 80l-317 823h215l236 -659l491 659h217l-639 -823l-15 -80h266l-33 -170h-266l-82 -420h-203z" />
    <glyph glyph-name="uni04B1" unicode="&#x4b1;" 
d="M361 -185h-200l29 150h200l10 53l-213 1102h195l158 -876l500 876h195l-643 -1102l-10 -53h200l-29 -150h-200l-47 -241h-192z" />
    <glyph glyph-name="uni04B2" unicode="&#x4b2;" 
d="M867 0h-14l-241 643l-520 -643h-218l654 791l-296 702h217l219 -563l443 563h217l-583 -702l255 -621h103l-93 -482h-203z" />
    <glyph glyph-name="uni04B3" unicode="&#x4b3;" 
d="M866 0h-30l-241 449l-414 -449h-213l554 584l-297 536h204l218 -405l374 405h207l-505 -536l223 -400h139l-90 -460h-183z" />
    <glyph glyph-name="uni04BA" unicode="&#x4ba;" 
d="M1093 658q0 -64 -18 -158l-97 -500h-203l92 474q13 64 13 136t-43.5 114.5t-139.5 42.5t-171 -32t-99 -59q-88 -91 -121 -263l-80 -413h-203l290 1495h203l-132 -683q42 38 98 66l52 26q84 42 223 47l48 2q158 0 232 -84q56 -65 56 -211z" />
    <glyph glyph-name="uni04BB" unicode="&#x4bb;" 
d="M809 1147q133 0 210 -73t77 -200q0 -71 -21 -180l-135 -694h-184l135 695q2 5 10 45t8 81q0 79 -45.5 122.5t-121.5 43.5q-138 0 -228.5 -93.5t-122.5 -260.5l-123 -633h-184l303 1556h184l-116 -604q152 195 354 195z" />
    <glyph glyph-name="uni04C0" unicode="&#x4c0;" 
d="M90 170h313l224 1153h-314l33 170h830l-33 -170h-314l-223 -1153h314l-33 -170h-830z" />
    <glyph glyph-name="uni04C1" unicode="&#x4c1;" 
d="M347 891l-170 602h207l168 -595l116 595h187l-116 -595l400 595h207l-404 -602l131 -891h-197l-96 650l-125 -186l-90 -464h-187l90 464l-53 186l-348 -650h-197zM515 1824q0 17 2 37h119q2 -111 170 -111q167 0 219 111h119q-71 -242 -362 -242q-267 0 -267 205z" />
    <glyph glyph-name="uni04C2" unicode="&#x4c2;" 
d="M348 716l-160 404h199l171 -432l84 432h168l-84 -432l339 432h199l-318 -404l120 -716h-179l-88 528l-139 -177l-68 -351h-168l68 351l-69 177l-294 -528h-179zM459 1517q0 29 3 41h120v-17q0 -133 164 -133q165 0 223 150h119q-66 -287 -351 -287q-134 0 -206 64
t-72 182z" />
    <glyph glyph-name="uni04C3" unicode="&#x4c3;" 
d="M437 -240q137 0 205.5 76t106.5 268l57 290q12 61 12 112q0 205 -199 205h-151l-143 -127l-114 -584h-203l290 1493h203l-129 -664l760 664h237l-700 -612h24q240 0 287 -123.5t47 -197.5t-15 -150l-60 -306q-53 -271 -180.5 -392.5t-353.5 -121.5h-76l33 170h62z" />
    <glyph glyph-name="uni04C4" unicode="&#x4c4;" 
d="M535 -270q112 0 156 51t73 199l52 264q17 89 17 130q0 73 -40 93t-151 20h-221l-47 -38l-87 -449h-190l218 1120h190l-91 -465l574 465h224l-610 -489h58q205 0 283.5 -44.5t78.5 -163.5q0 -66 -21 -173l-53 -270q-61 -317 -198 -361.5t-225 -44.5h-193l31 156h172z" />
    <glyph glyph-name="uni04C7" unicode="&#x4c7;" 
d="M456 -240q138 0 207 76.5t105 267.5l118 607h-553l-138 -711h-203l290 1493h203l-119 -612h553l119 612h203l-270 -1389q-54 -274 -180.5 -394t-353.5 -120h-76l33 170h62z" />
    <glyph glyph-name="uni04C8" unicode="&#x4c8;" 
d="M524 -270q109 0 155 51t74 199l102 525h-487l-98 -505h-184l218 1120h184l-87 -445h487l87 445h184l-222 -1140q-42 -214 -142 -310t-281 -96h-193l31 156h172z" />
    <glyph glyph-name="uni04CB" unicode="&#x4cb;" 
d="M255 0h-203l290 1493h924l-33 -170h-721l-224 -1153h203l-94 -482h-203z" />
    <glyph glyph-name="uni04CC" unicode="&#x4cc;" 
d="M352 0h-184l218 1120h752l-36 -184h-568l-146 -752h183l-90 -460h-183z" />
    <glyph glyph-name="uni04CF" unicode="&#x4cf;" 
d="M656 1567h184l-305 -1567h-184z" />
    <glyph glyph-name="uni04D0" unicode="&#x4d0;" 
d="M807 551l-66 774l-364 -774h430zM645 1493h246l166 -1493h-201l-35 389h-520l-184 -389h-217zM533 1818q0 17 2 37h119q2 -111 170 -111q167 0 219 111h119q-71 -242 -362 -242q-267 0 -267 205z" />
    <glyph glyph-name="uni04D1" unicode="&#x4d1;" 
d="M447 125q152 0 262 106t147 291l8 41h-172q-163 0 -210 -12t-68 -21q-68 -29 -109 -87t-41 -139t51 -130t132 -49zM72 283q0 190 155.5 307t417.5 117h246l12 61q4 18 4 39q0 184 -242 184q-175 0 -397 -102l35 180q218 78 397 78t283 -81.5t104 -226.5q0 -74 -24 -200
l-125 -639h-164l12 166q-151 -195 -382 -195q-152 0 -242 84t-90 228zM469 1543q0 29 3 41h120v-17q0 -133 164 -133q165 0 223 150h119q-66 -287 -351 -287q-134 0 -206 64t-72 182z" />
    <glyph glyph-name="uni04D2" unicode="&#x4d2;" 
d="M807 551l-66 774l-364 -774h430zM645 1493h246l166 -1493h-201l-35 389h-520l-184 -389h-217zM897 1647q-34 0 -27 33l28 143q4 27 32 27h143q34 0 27 -33l-28 -143q-5 -27 -32 -27h-143zM506 1647q-34 0 -27 33l28 143q4 27 32 27h144q27 0 27 -24q0 -6 -1 -9l-29 -143
q-6 -27 -32 -27h-142z" />
    <glyph glyph-name="uni04D3" unicode="&#x4d3;" 
d="M447 125q152 0 262 106t147 291l8 41h-172q-163 0 -210 -12t-68 -21q-68 -29 -109 -87t-41 -139t51 -130t132 -49zM72 283q0 190 155.5 307t417.5 117h246l12 61q4 18 4 39q0 184 -242 184q-175 0 -397 -102l35 180q218 78 397 78t283 -81.5t104 -226.5q0 -74 -24 -200
l-125 -639h-164l12 166q-151 -195 -382 -195q-152 0 -242 84t-90 228zM864 1350q-34 0 -27 33l28 142q4 27 32 27h143q28 0 28 -25q0 -5 -1 -8l-28 -142q-5 -27 -32 -27h-143zM473 1350q-34 0 -27 33l28 142q4 27 32 27h143q28 0 28 -25q0 -5 -1 -8l-28 -142q-5 -27 -32 -27
h-143z" />
    <glyph glyph-name="uni04D4" unicode="&#x4d4;" 
d="M600 551l150 772h-103l-356 -772h309zM555 1493h752l-33 -170h-338l-86 -442h307l-33 -170h-307l-106 -541h356l-33 -170h-542l75 383h-352l-176 -383h-184z" />
    <glyph glyph-name="uni04D5" unicode="&#x4d5;" 
d="M402.5 192.5q49.5 69.5 84.5 249.5l15 72h-49q-124 0 -199 -21.5t-103 -101t-28 -119.5t10.5 -65.5t38.5 -54.5t104 -29q77 0 126.5 69.5zM1051 848q0 68 -33.5 107.5t-93.5 39.5q-165 0 -213 -256l-17 -82h330l16 74q11 49 11 117zM784 -29q-219 0 -270 160
q-94 -160 -281 -160q-128 0 -204 72.5t-76 184.5q0 212 120.5 320.5t344.5 108.5h117l18 88q8 41 8 103t-41.5 104.5t-105.5 42.5q-120 0 -273 -84l35 168q159 68 273 68q168 0 231 -129q104 129 270 129q121 0 192.5 -77t71.5 -208q0 -76 -34 -258l-17 -90h-495
q-35 -163 -35 -235t48.5 -116t126.5 -44q159 0 273 108l-34 -172q-120 -84 -263 -84z" />
    <glyph glyph-name="uni04D6" unicode="&#x4d6;" 
d="M324 1493h885l-33 -170h-684l-86 -442h653l-32 -170h-654l-104 -541h702l-33 -170h-905zM525 1817q0 17 2 37h119q2 -111 170 -111q167 0 219 111h119q-71 -242 -362 -242q-267 0 -267 205z" />
    <glyph glyph-name="uni04D7" unicode="&#x4d7;" 
d="M948 751q0 106 -65 173t-185 67t-220.5 -90t-145.5 -242h606q10 45 10 92zM285 406q0 -133 76 -206t242 -73t394 113l-36 -183q-212 -86 -422 -86t-325.5 111t-115.5 338t122 418.5t254.5 251t234.5 59.5q193 0 305 -114t112 -304q0 -72 -22 -215h-807q-12 -64 -12 -110z
M483 1545q0 29 3 41h120v-17q0 -133 164 -133q165 0 223 150h119q-66 -287 -351 -287q-134 0 -206 64t-72 182z" />
    <glyph glyph-name="uni04D8" unicode="&#x4d8;" 
d="M288 394q0 -260 210 -259q216 0 286.5 191.5t99.5 317.5h-574q-22 -132 -22 -250zM945 1101q0 118 -49.5 186.5t-165.5 68.5q-174 0 -350 -125l41 207q166 82 353 82q378 0 378 -451q0 -141 -36 -324q-76 -388 -236 -581t-415 -193q-195 0 -289.5 110.5t-94.5 338.5
q0 140 36 325l16 83h787q25 155 25 273z" />
    <glyph glyph-name="uni04D9" unicode="&#x4d9;" 
d="M504 127q208 0 286.5 127t102.5 205l-607 -1q-9 -51 -9 -96q0 -115 57.5 -175t169.5 -60zM940 714q0 137 -78.5 207t-236.5 70t-398 -113l36 183q228 86 428 86t318.5 -113.5t118.5 -316.5q0 -69 -22 -180t-80 -219.5t-186.5 -227.5t-364.5 -119q-182 0 -280 100t-98 284
q0 73 16 157l17 90h797q13 39 13 112z" />
    <glyph glyph-name="uni04DA" unicode="&#x4da;" 
d="M288 394q0 -260 210 -259q216 0 286.5 191.5t99.5 317.5h-574q-22 -132 -22 -250zM945 1101q0 118 -49.5 186.5t-165.5 68.5q-174 0 -350 -125l41 207q166 82 353 82q378 0 378 -451q0 -141 -36 -324q-76 -388 -236 -581t-415 -193q-195 0 -289.5 110.5t-94.5 338.5
q0 140 36 325l16 83h787q25 155 25 273zM883 1647q-34 0 -27 33l28 143q4 27 32 27h143q34 0 27 -33l-28 -143q-5 -27 -32 -27h-143zM492 1647q-34 0 -27 33l28 143q4 27 32 27h144q27 0 27 -24q0 -6 -1 -9l-29 -143q-6 -27 -32 -27h-142z" />
    <glyph glyph-name="uni04DB" unicode="&#x4db;" 
d="M504 127q208 0 286.5 127t102.5 205l-607 -1q-9 -51 -9 -96q0 -115 57.5 -175t169.5 -60zM940 714q0 137 -78.5 207t-236.5 70t-398 -113l36 183q228 86 428 86t318.5 -113.5t118.5 -316.5q0 -69 -22 -180t-80 -219.5t-186.5 -227.5t-364.5 -119q-182 0 -280 100t-98 284
q0 73 16 157l17 90h797q13 39 13 112zM860 1350q-34 0 -27 33l28 142q4 27 32 27h143q28 0 28 -25q0 -5 -1 -8l-28 -142q-5 -27 -32 -27h-143zM469 1350q-34 0 -27 33l28 142q4 27 32 27h143q28 0 28 -25q0 -5 -1 -8l-28 -142q-5 -27 -32 -27h-143z" />
    <glyph glyph-name="uni04DC" unicode="&#x4dc;" 
d="M347 891l-170 602h207l168 -595l116 595h187l-116 -595l400 595h207l-404 -602l131 -891h-197l-96 650l-125 -186l-90 -464h-187l90 464l-53 186l-348 -650h-197zM917 1647q-34 0 -27 33l28 143q4 27 32 27h143q34 0 27 -33l-28 -143q-5 -27 -32 -27h-143zM526 1647
q-34 0 -27 33l28 143q4 27 32 27h144q27 0 27 -24q0 -6 -1 -9l-29 -143q-6 -27 -32 -27h-142z" />
    <glyph glyph-name="uni04DD" unicode="&#x4dd;" 
d="M348 716l-160 404h199l171 -432l84 432h168l-84 -432l339 432h199l-318 -404l120 -716h-179l-88 528l-139 -177l-68 -351h-168l68 351l-69 177l-294 -528h-179zM883 1310q-34 0 -27 33l28 142q4 27 32 27h143q28 0 28 -25q0 -5 -1 -8l-28 -142q-5 -27 -32 -27h-143z
M492 1310q-34 0 -27 33l28 142q4 27 32 27h143q28 0 28 -25q0 -5 -1 -8l-28 -142q-5 -27 -32 -27h-143z" />
    <glyph glyph-name="uni04DE" unicode="&#x4de;" 
d="M805 478q0 237 -281 237h-153l32 166h154q157 0 250.5 74.5t93.5 187.5t-61.5 160t-167.5 47q-184 0 -412 -80l37 186q240 64 366 64q223 0 331 -87t108 -241q0 -153 -90.5 -257t-249.5 -136q112 -21 177 -100t65 -205q0 -240 -169.5 -381.5t-452.5 -141.5
q-211 0 -400 74l38 201q184 -105 372 -105q189 0 301 93t112 244zM876 1647q-34 0 -27 33l28 143q4 27 32 27h143q34 0 27 -33l-28 -143q-5 -27 -32 -27h-143zM485 1647q-34 0 -27 33l28 143q4 27 32 27h144q27 0 27 -24q0 -6 -1 -9l-29 -143q-6 -27 -32 -27h-142z" />
    <glyph glyph-name="uni04DF" unicode="&#x4df;" 
d="M1023 379q0 -104 -106 -252.5t-491 -148.5q-178 0 -360 56l34 173q140 -69 342 -69q286 0 342 87.5t56 138.5q0 76 -72 122t-212 46h-158l28 144h165q199 0 256 65.5t57 117.5t-66.5 88.5t-167.5 36.5q-178 0 -388 -52l32 167q220 48 345 48q220 0 327.5 -64t107.5 -184
t-89.5 -193.5t-212.5 -98.5q231 -43 231 -228zM848 1350q-34 0 -27 33l28 142q4 27 32 27h143q28 0 28 -25q0 -5 -1 -8l-28 -142q-5 -27 -32 -27h-143zM457 1350q-34 0 -27 33l28 142q4 27 32 27h143q28 0 28 -25q0 -5 -1 -8l-28 -142q-5 -27 -32 -27h-143z" />
    <glyph glyph-name="uni04E0" unicode="&#x4e0;" 
d="M164 369q0 -109 83.5 -168t254.5 -59q287 0 370 125t83 230t-76.5 162t-225.5 57h-174l33 166l455 441h-737l33 170h969l-32 -168l-462 -441q182 0 300 -110.5t118 -279.5t-151.5 -345.5t-530.5 -176.5q-250 0 -382.5 91.5t-132.5 267.5q0 42 11 104h201q-7 -40 -7 -66z
" />
    <glyph glyph-name="uni04E1" unicode="&#x4e1;" 
d="M347 -266q405 0 460 293q6 31 6 61q0 92 -49 138q-87 83 -253 82h-174l33 166l527 499h-667l28 147h874l-32 -168l-504 -476q189 0 303.5 -113t114.5 -280q0 -166 -151.5 -342.5t-520.5 -176.5q-193 0 -393 74l38 195q151 -99 360 -99z" />
    <glyph glyph-name="uni04E2" unicode="&#x4e2;" 
d="M285 1493h195l-239 -1229l743 1229h256l-290 -1493h-195l239 1229l-743 -1229h-256zM532 1850h598l-29 -148h-598z" />
    <glyph glyph-name="uni04E3" unicode="&#x4e3;" 
d="M304 1120h184l-157 -809l644 809h184l-218 -1120h-184l157 809l-644 -809h-184zM469 1446h598l-29 -148h-598z" />
    <glyph glyph-name="uni04E4" unicode="&#x4e4;" 
d="M285 1493h195l-239 -1229l743 1229h256l-290 -1493h-195l239 1229l-743 -1229h-256zM904 1647q-34 0 -27 33l28 143q4 27 32 27h143q34 0 27 -33l-28 -143q-5 -27 -32 -27h-143zM513 1647q-34 0 -27 33l28 143q4 27 32 27h144q27 0 27 -24q0 -6 -1 -9l-29 -143
q-6 -27 -32 -27h-142z" />
    <glyph glyph-name="uni04E5" unicode="&#x4e5;" 
d="M304 1120h184l-157 -809l644 809h184l-218 -1120h-184l157 809l-644 -809h-184zM860 1310q-34 0 -27 33l28 142q4 27 32 27h143q28 0 28 -25q0 -5 -1 -8l-28 -142q-5 -27 -32 -27h-143zM469 1310q-34 0 -27 33l28 142q4 27 32 27h143q28 0 28 -25q0 -5 -1 -8l-28 -142
q-5 -27 -32 -27h-143z" />
    <glyph glyph-name="uni04E6" unicode="&#x4e6;" 
d="M491 135q144 0 241 124t154.5 375t57.5 372q0 120 -20 235t-190 115q-138 0 -235.5 -127t-154.5 -376t-57 -409t47 -234.5t157 -74.5zM751 1520q400 0 400 -483q0 -247 -87 -521q-118 -369 -281 -457t-303 -88q-398 0 -398 488q0 252 85 516q116 363 278.5 454t305.5 91z
M883 1647q-34 0 -27 33l28 143q4 27 32 27h143q34 0 27 -33l-28 -143q-5 -27 -32 -27h-143zM492 1647q-34 0 -27 33l28 143q4 27 32 27h144q27 0 27 -24q0 -6 -1 -9l-29 -143q-6 -27 -32 -27h-142z" />
    <glyph glyph-name="uni04E7" unicode="&#x4e7;" 
d="M524 127q189 0 292.5 180t103.5 400q0 149 -52.5 216.5t-158.5 67.5q-189 0 -292.5 -180t-103.5 -400q0 -149 52.5 -216.5t158.5 -67.5zM117 392q-1 288 159 521q160 234 441 234q193 0 295 -106.5t102 -313.5t-125.5 -481.5t-474.5 -274.5q-196 0 -296.5 109t-100.5 312
zM860 1350q-34 0 -27 33l28 142q4 27 32 27h143q28 0 28 -25q0 -5 -1 -8l-28 -142q-5 -27 -32 -27h-143zM469 1350q-34 0 -27 33l28 142q4 27 32 27h143q28 0 28 -25q0 -5 -1 -8l-28 -142q-5 -27 -32 -27h-143z" />
    <glyph glyph-name="uni04E8" unicode="&#x4e8;" 
d="M289 438q0 -107 15 -162q39 -141 193 -141t247 137.5t154 438.5h-577q-32 -166 -32 -273zM945 1073q0 145 -49 214t-161 69q-212 0 -281.5 -182t-96.5 -293h571q17 119 17 192zM465 -29q-384 0 -384 450q0 139 36 324q75 385 234 580t416 195q196 0 290.5 -113t94.5 -339
q0 -140 -36 -323q-76 -390 -237 -582t-414 -192z" />
    <glyph glyph-name="uni04E9" unicode="&#x4e9;" 
d="M313 387q0 -260 219 -260q244 0 341 320h-557q-3 -32 -3 -60zM920 731q0 260 -220 260q-266 0 -357 -380h567q10 64 10 120zM729 1147q388 0 388 -394q0 -88 -21 -194q-56 -286 -207.5 -437t-386.5 -151q-192 0 -289 100.5t-97 292.5q0 88 24 213q53 269 206 420
q152 150 383 150z" />
    <glyph glyph-name="uni04EA" unicode="&#x4ea;" 
d="M289 438q0 -107 15 -162q39 -141 193 -141t247 137.5t154 438.5h-577q-32 -166 -32 -273zM945 1073q0 145 -49 214t-161 69q-212 0 -281.5 -182t-96.5 -293h571q17 119 17 192zM465 -29q-384 0 -384 450q0 139 36 324q75 385 234 580t416 195q196 0 290.5 -113t94.5 -339
q0 -140 -36 -323q-76 -390 -237 -582t-414 -192zM883 1647q-34 0 -27 33l28 143q4 27 32 27h143q34 0 27 -33l-28 -143q-5 -27 -32 -27h-143zM492 1647q-34 0 -27 33l28 143q4 27 32 27h144q27 0 27 -24q0 -6 -1 -9l-29 -143q-6 -27 -32 -27h-142z" />
    <glyph glyph-name="uni04EB" unicode="&#x4eb;" 
d="M313 387q0 -260 219 -260q244 0 341 320h-557q-3 -32 -3 -60zM920 731q0 260 -220 260q-266 0 -357 -380h567q10 64 10 120zM729 1147q388 0 388 -394q0 -88 -21 -194q-56 -286 -207.5 -437t-386.5 -151q-192 0 -289 100.5t-97 292.5q0 88 24 213q53 269 206 420
q152 150 383 150zM860 1350q-34 0 -27 33l28 142q4 27 32 27h143q28 0 28 -25q0 -5 -1 -8l-28 -142q-5 -27 -32 -27h-143zM469 1350q-34 0 -27 33l28 142q4 27 32 27h143q28 0 28 -25q0 -5 -1 -8l-28 -142q-5 -27 -32 -27h-143z" />
    <glyph glyph-name="uni04EC" unicode="&#x4ec;" 
d="M882 992q0 65 -3.5 105.5t-34 149.5t-247.5 109q-186 0 -364 -125l41 207q168 82 348 82q335 0 406.5 -190.5t71.5 -319.5q0 -130 -32 -290t-100.5 -304t-215 -294.5t-433.5 -150.5q-178 0 -315 82l41 207q125 -125 312 -125t312 143.5t177 382.5h-632l33 170h627
q8 96 8 161zM833 1647q-34 0 -27 33l28 143q4 27 32 27h143q34 0 27 -33l-28 -143q-5 -27 -32 -27h-143zM442 1647q-34 0 -27 33l28 143q4 27 32 27h144q27 0 27 -24q0 -6 -1 -9l-29 -143q-6 -27 -32 -27h-142z" />
    <glyph glyph-name="uni04ED" unicode="&#x4ed;" 
d="M432 -29q-108 0 -180.5 21.5t-139.5 64.5l38 191q103 -121 283 -121q257 0 337 149.5t103 239.5h-542l28 144h537q1 10 1 12v48q0 32 -13 85t-66 119.5t-220 66.5t-328 -123l38 193q172 86 318 86q253 0 360 -121.5t107 -304.5q0 -68 -22 -185q-22 -116 -81.5 -225.5
t-145.5 -185t-195 -115t-217 -39.5zM860 1350q-34 0 -27 33l28 142q4 27 32 27h143q28 0 28 -25q0 -5 -1 -8l-28 -142q-5 -27 -32 -27h-143zM469 1350q-34 0 -27 33l28 142q4 27 32 27h143q28 0 28 -25q0 -5 -1 -8l-28 -142q-5 -27 -32 -27h-143z" />
    <glyph glyph-name="uni04EE" unicode="&#x4ee;" 
d="M196 172q109 0 166.5 71t116.5 173l-215 1077h217l150 -830l469 830h213l-619 -1068q-170 -296 -278 -360.5t-214 -64.5h-148l33 172h109zM546 1850h598l-29 -148h-598z" />
    <glyph glyph-name="uni04EF" unicode="&#x4ef;" 
d="M118 -272q119 0 175 76.5t83 129.5l43 84l-217 1102h183l172 -862l483 862h205l-439 -760q-25 -43 -49.5 -86t-30.5 -52l-126 -223q-122 -213 -175 -284q-106 -141 -296 -141h-148l29 154h108zM489 1438h598l-29 -148h-598z" />
    <glyph glyph-name="uni04F0" unicode="&#x4f0;" 
d="M196 172q109 0 166.5 71t116.5 173l-215 1077h217l150 -830l469 830h213l-619 -1068q-170 -296 -278 -360.5t-214 -64.5h-148l33 172h109zM908 1647q-34 0 -27 33l28 143q4 27 32 27h143q34 0 27 -33l-28 -143q-5 -27 -32 -27h-143zM517 1647q-34 0 -27 33l28 143
q4 27 32 27h144q27 0 27 -24q0 -6 -1 -9l-29 -143q-6 -27 -32 -27h-142z" />
    <glyph glyph-name="uni04F1" unicode="&#x4f1;" 
d="M118 -272q119 0 175 76.5t83 129.5l43 84l-217 1102h183l172 -862l483 862h205l-439 -760q-25 -43 -49.5 -86t-30.5 -52l-126 -223q-122 -213 -175 -284q-106 -141 -296 -141h-148l29 154h108zM880 1320q-34 0 -27 33l28 142q4 27 32 27h143q28 0 28 -25q0 -5 -1 -8
l-28 -142q-5 -27 -32 -27h-143zM489 1320q-34 0 -27 33l28 142q4 27 32 27h143q28 0 28 -25q0 -5 -1 -8l-28 -142q-5 -27 -32 -27h-143z" />
    <glyph glyph-name="uni04F2" unicode="&#x4f2;" 
d="M196 172q109 0 166.5 71t116.5 173l-215 1077h217l150 -830l469 830h213l-619 -1068q-170 -296 -278 -360.5t-214 -64.5h-148l33 172h109zM1100 1852h186l-280 -264h-154zM781 1852h186l-280 -264h-154z" />
    <glyph glyph-name="uni04F3" unicode="&#x4f3;" 
d="M113 -272q119 0 175 76.5t83 129.5l43 84l-217 1102h183l172 -862l483 862h205l-439 -760q-25 -43 -49.5 -86t-29.5 -52l-128 -223q-121 -213 -174 -284q-106 -141 -296 -141h-148l29 154h108zM1043 1648h197l-324 -376h-135zM703 1648h189l-302 -376h-135z" />
    <glyph glyph-name="uni04F4" unicode="&#x4f4;" 
d="M267 612.5q-106 35.5 -106 217.5q0 79 15 150l100 513h203l-95 -487q-12 -64 -12 -121t27 -81q27 -25 70 -33t103 -8q115 0 178 18.5t155 79.5l123 632h203l-290 -1493h-203l128 658q-154 -70 -236.5 -75.5t-169.5 -5.5t-193 35.5zM877 1647q-34 0 -27 33l28 143
q4 27 32 27h143q34 0 27 -33l-28 -143q-5 -27 -32 -27h-143zM486 1647q-34 0 -27 33l28 143q4 27 32 27h144q27 0 27 -24q0 -6 -1 -9l-29 -143q-6 -27 -32 -27h-142z" />
    <glyph glyph-name="uni04F5" unicode="&#x4f5;" 
d="M510 402q-309 0 -309 245q0 49 12 108l71 367h184l-71 -367q-6 -30 -6 -56q0 -78 52 -107.5t137 -29.5t146.5 11t132.5 48l97 501h184l-218 -1122h-184l91 466q-171 -64 -319 -64zM860 1322q-34 0 -27 33l28 142q4 27 32 27h143q28 0 28 -25q0 -5 -1 -8l-28 -142
q-5 -27 -32 -27h-143zM469 1322q-34 0 -27 33l28 142q4 27 32 27h143q28 0 28 -25q0 -5 -1 -8l-28 -142q-5 -27 -32 -27h-143z" />
    <glyph glyph-name="uni04F6" unicode="&#x4f6;" 
d="M169 871q0 64 18 159l90 465h203l-85 -439q-13 -64 -13 -136t43.5 -114.5t137.5 -42.5t169 32t112 68q78 78 112 254l73 378h203l-290 -1495h-203l-61 -312h-203l94 482h203l106 548q-49 -41 -98 -66l-53 -26q-85 -41 -222 -47l-48 -2q-160 0 -232 84q-56 64 -56 210z
" />
    <glyph glyph-name="uni04F7" unicode="&#x4f7;" 
d="M399 740q0 -178 174 -178q130 0 217 90t121 264l40 206h184l-218 -1122h-184l-54 -276h-183l90 460h183l74 382q-39 -52 -104 -87l-51 -27q-95 -50 -209 -50q-270 0 -270 284q0 74 18 169l52 267h185l-52 -267q-13 -69 -13 -115z" />
    <glyph glyph-name="uni04F8" unicode="&#x4f8;" 
d="M246 166q169 0 236.5 124t67.5 230q0 207 -195 207h-91l-109 -561h91zM1077 1493h203l-290 -1493h-203zM387 893q268 0 322 -127.5t54 -181.5q0 -312 -175.5 -448t-373.5 -136h-293l290 1493h202l-117 -600h91zM884 1647q-34 0 -27 33l28 143q4 27 32 27h143q34 0 27 -33
l-28 -143q-5 -27 -32 -27h-143zM493 1647q-34 0 -27 33l28 143q4 27 32 27h144q27 0 27 -24q0 -6 -1 -9l-29 -143q-6 -27 -32 -27h-142z" />
    <glyph glyph-name="uni04F9" unicode="&#x4f9;" 
d="M290 153q277 0 287 106.5t10 114.5q0 140 -227 140h-83l-70 -361h83zM1054 1120h184l-218 -1120h-184zM398 667q296 0 342 -102t46 -139q0 -237 -152 -331.5t-366 -94.5h-273l218 1120h182l-88 -453h91zM860 1320q-34 0 -27 33l28 142q4 27 32 27h143q28 0 28 -25
q0 -5 -1 -8l-28 -142q-5 -27 -32 -27h-143zM469 1320q-34 0 -27 33l28 142q4 27 32 27h143q28 0 28 -25q0 -5 -1 -8l-28 -142q-5 -27 -32 -27h-143z" />
    <glyph glyph-name="uni0510" unicode="&#x510;" 
d="M439 1065q0 -184 254 -184h154l-32 -166h-154q-231 0 -312 -125t-81 -228q0 -104 75 -162.5t197 -58.5q225 0 442 105l-39 -201q-228 -74 -431 -74q-327 0 -388.5 130.5t-61.5 195.5q0 224 115.5 343t272.5 159q-212 58 -212 248q0 128 86 257.5t227 172.5t266 43
t355 -64l-36 -186q-189 80 -346 80q-156 0 -253.5 -71.5t-97.5 -213.5z" />
    <glyph glyph-name="uni0511" unicode="&#x511;" 
d="M211 59q-84 71 -84 182q0 152 113 247l36 30q67 54 158 74q-119 26 -144.5 94t-25.5 96t8 72t49 99.5t141.5 117t294.5 61.5q128 0 340 -48l-35 -179q-191 65 -335 60l-31 -1q-75 -4 -143 -45l-44 -28q-43 -35 -43 -96q0 -34 46 -65q87 -60 185 -60h127l-32 -163h-126
q-112 0 -221.5 -61.5t-109.5 -167.5q0 -53 58 -99q4 -2 7 -5.5t21 -15.5t63.5 -23t84.5 -11t79 5l128 29q146 29 192 49l-36 -181q-202 -55 -409 -55t-312 88z" />
    <glyph glyph-name="uni051A" unicode="&#x51a;" 
d="M491 135q144 0 241 124t154.5 375t57.5 372q0 120 -20 235t-190 115q-138 0 -235.5 -127t-154.5 -376t-57 -409t47 -234.5t157 -74.5zM751 1520q400 0 400 -480q0 -185 -54 -401t-123 -342q-70 -127 -138 -190t-146 -97l154 -188l-154 -92l-186 243h-10
q-211 0 -311.5 117.5t-100.5 369.5t85 515q118 369 281 457t303 88z" />
    <glyph glyph-name="uni051B" unicode="&#x51b;" 
d="M874 728q0 263 -208 263q-170 0 -265 -174q-74 -139 -90 -261t-16 -172q0 -257 199 -257q256 0 318 248.5t62 352.5zM661 1147q203 0 275 -170l47 143h164l-299 -1546h-184l110 567q-123 -170 -330 -170q-164 0 -255 104.5t-91 304.5t122.5 483.5t440.5 283.5z" />
    <glyph glyph-name="uni051C" unicode="&#x51c;" 
d="M153 1493h191l-90 -1210l329 800h211l15 -802l377 1212h198l-510 -1493h-194l-31 870l-371 -870h-188z" />
    <glyph glyph-name="uni051D" unicode="&#x51d;" 
d="M92 1120h176l15 -905l268 578h162l49 -578l362 905h191l-486 -1120h-165l-60 623l-297 -623h-166z" />
    <glyph glyph-name="uni0531" unicode="&#x531;" 
d="M472 -29q-140 0 -279.5 51t-139.5 292q0 65 15 143l201 1036h202l-213 -1098q-8 -40 -8 -76q0 -184 224 -184q75 0 132 20q-106 113 -143 211l155 92q34 -97 127 -190q30 48 47 127l213 1098h202l-201 -1036q-35 -179 -126 -295q51 -34 113 -64l-100 -158q-80 40 -157 99
q-124 -68 -264 -68z" />
    <glyph glyph-name="uni0532" unicode="&#x532;" 
d="M937 1175q0 181 -245 181t-297 -258l-93 -477h774l-33 -170h-774l-87 -451h-201l200 1036q93 484 441 484t444 -118q68 -85 68 -224q0 -66 -15 -142l-31 -161h-202l43 223q8 40 8 77z" />
    <glyph glyph-name="uni0533" unicode="&#x533;" 
d="M890 1161q0 195 -191.5 195t-267.5 -105q-119 -161 -119 -435q0 -52 15 -95q35 -100 197 -100h269l85 437q12 65 12 103zM699 1520q387 0 387 -357q0 -80 -19 -175l-72 -367h125l-33 -170h-125l-87 -451h-202l87 451h-269q-296 0 -338 143.5t-42 220.5q1 77 23 197
q47 252 191 380t374 128z" />
    <glyph glyph-name="uni0534" unicode="&#x534;" 
d="M863 1176q0 180 -245.5 180t-296.5 -258l-43 -223h-202l31 161q93 484 441 484t444 -118q68 -87 68 -225q0 -65 -15 -141l-81 -415h187l-33 -170h-187l-87 -451h-202l213 1098q8 40 8 78z" />
    <glyph glyph-name="uni0535" unicode="&#x535;" 
d="M256 319q0 -184 222 -184t266.5 107t53.5 153l43 223h202l-31 -161q-70 -364 -261 -425t-359 -61t-265 119q-68 83 -68 224q0 65 15 143l201 1036h202l-72 -373h774l-33 -170h-774l-108 -555q-8 -40 -8 -76z" />
    <glyph glyph-name="uni0536" unicode="&#x536;" 
d="M757 1520q427 0 427 -441q0 -272 -124 -471t-237.5 -304t-199.5 -134h359l-33 -170h-956l63 331h203l-31 -161h51q104 0 249 97t258 255q189 264 189 600q0 74 -28 130q-52 104 -218 104t-260 -104t-148 -377h-203q70 350 238 498q167 147 401 147z" />
    <glyph glyph-name="uni0537" unicode="&#x537;" 
d="M265 1493h203l-73 -373h790l-33 -170h-790l-152 -780h651l-33 -170h-853z" />
    <glyph glyph-name="uni0538" unicode="&#x538;" 
d="M937 1175q0 183 -224 183q-266 0 -318 -260l-180 -928h774l-33 -170h-975l200 1036q70 364 261 425t359 61t265 -119q68 -87 68 -225q0 -64 -15 -142l-31 -161h-202l43 223q8 40 8 77z" />
    <glyph glyph-name="uni0539" unicode="&#x539;" 
d="M505 254q-1 -84 43 -108q20 -12 56 -11q116 0 148 107t45 173l56 285h-138q-88 0 -136 -95.5t-61 -208t-13 -142.5zM310 250q0 203 82 371t183.5 211t173.5 43h138l4 24q28 168 28 236q1 68 -23 119q-46 102 -227 102q-180 0 -266 -101q-85 -101 -133 -346l-176 -909
h-195l180 934q55 286 218 436t405 150t343 -149q68 -100 68 -261q0 -88 -19 -183l-10 -52h131l-34 -175h-131l-56 -285q-39 -205 -155 -324q-117 -120 -267 -120q-205 0 -233.5 116.5t-28.5 162.5z" />
    <glyph glyph-name="uni053A" unicode="&#x53a;" 
d="M594 950q-158 0 -245 -127q-86 -127 -103 -271.5t-17 -197.5q1 -54 15 -104q33 -116 189 -115q157 0 241 95q62 71 88 203l101 517h-269zM164.5 857.5q135.5 262.5 462.5 262.5h269l72 373h202l-72 -373h125l-33 -170h-125l-87 -446q-29 -147 -129 -340t-444 -193
q-230 0 -317 144q-59 100 -59 290t135.5 452.5z" />
    <glyph glyph-name="uni053B" unicode="&#x53b;" 
d="M699 1141q218 0 315 -119q68 -87 68 -227q0 -65 -15 -140l-32 -161h-202l44 223q8 38 8 77q0 183 -245 183t-297 -260l-140 -717h-202l291 1493h202l-84 -432q130 80 289 80z" />
    <glyph glyph-name="uni053C" unicode="&#x53c;" 
d="M299 1493h203l-258 -1323h721l-33 -170h-924z" />
    <glyph glyph-name="uni053D" unicode="&#x53d;" 
d="M402 80q-26 51 -26 130t26 215l101 520h-183l-184 -945h-185l289 1493h186l-72 -373h369l-140 -719q-19 -95 -19 -137t11 -73q21 -56 113.5 -56t130.5 53t70 213l140 719h186l-135 -695q-48 -251 -135 -352q-86 -102 -287 -102q-202 0 -256 109z" />
    <glyph glyph-name="uni053E" unicode="&#x53e;" 
d="M917 484.5q44 152.5 44 271.5t-65.5 222t-431.5 103h-12q-128 -198 -167 -428t-39 -286q0 -110 48 -162q64 -70 218 -70q224 0 292.5 98.5t112.5 251zM1167 762q0 -152 -113 -471.5t-580 -319.5q-197 0 -311 93t-114 324t72 411.5t136 281.5h-138l80 412h183l-48 -245h52
q259 272 593 272q145 0 217 -27t114 -45l-42 -215q-165 124 -347 124t-322 -110q568 -14 568 -485z" />
    <glyph glyph-name="uni053F" unicode="&#x53f;" 
d="M531 352q-217 0 -314 119q-68 83 -68 225q0 64 15 142l128 655h202l-140 -717q-8 -40 -8 -75q0 -185 224 -185q266 0 318 260l67 344h202l-218 -1120h-202l84 431q-131 -79 -290 -79z" />
    <glyph glyph-name="uni0540" unicode="&#x540;" 
d="M44 468q0 195 365.5 409t544.5 301l-119 315h238l143 -375q-336 -147 -632.5 -332t-296.5 -261q0 -44 97 -86l647 -289l-40 -204l-740 320q-48 21 -127.5 66.5t-79.5 135.5z" />
    <glyph glyph-name="uni0541" unicode="&#x541;" 
d="M205 232q0 -99 115 -99q148 0 306 146q-120 129 -250 129q-68 0 -119.5 -43t-51.5 -133zM66 46q-55 55 -55 156t45.5 175.5t95.5 112.5q103 80 250 80q192 0 354 -143q146 205 198 460q24 115 24 210t-28 153q-51 106 -217.5 106t-262.5 -108q-97 -108 -142 -353l-4 -22
h-203l4 22q58 317 244 484q158 141 391 141q428 0 428 -433q0 -324 -128 -525t-185 -267q81 -111 130 -241l-176 -102q-49 106 -105 196q-217 -177 -440 -177q-147 0 -218 75z" />
    <glyph glyph-name="uni0542" unicode="&#x542;" 
d="M863 1176q0 180 -245.5 180t-296.5 -258l-43 -223h-202l31 161q93 484 441 484t444 -118q68 -87 68 -225q0 -65 -15 -141l-168 -866h187l-33 -170h-389l213 1098q8 40 8 78z" />
    <glyph glyph-name="uni0543" unicode="&#x543;" 
d="M208 266q0 -91 169 -91h418l-242 633q-345 -409 -345 -542zM215 0q-237 0 -237 180q0 18 11 82q34 196 497 721l-194 510h228l128 -338q175 175 333.5 270t311.5 95l-34 -175q-210 0 -547 -357l313 -824l-32 -164h-778z" />
    <glyph glyph-name="uni0544" unicode="&#x544;" 
d="M183 319q0 -184 222 -184t266.5 107t53.5 153l213 1098h389l-33 -170h-187l-168 -866q-70 -364 -261.5 -425t-299.5 -61q-227 0 -323 119q-69 84 -69 226q0 64 15 141l201 1036h202l-213 -1098q-8 -40 -8 -76z" />
    <glyph glyph-name="uni0545" unicode="&#x545;" 
d="M980 1192q0 164 -206 164q-118 0 -189.5 -56t-95.5 -180h-210q36 180 179 290t345 110q203 0 310 -107q78 -78 78 -204q0 -48 -8 -83q-23 -118 -94 -204t-171 -117q125 -33 173 -136q28 -59 28 -118q1 -59 -13 -131t-62 -158t-122 -150q-161 -141 -415 -141t-362 143
q-68 89 -68 223q0 46 11 110h210q-8 -46 -8 -85q0 -148 84 -187.5t164 -39.5q153 0 243 82q91 82 117 215q6 34 6 64q0 143 -91.5 176t-164.5 33h-592l33 170h592q123 0 197 72q102 100 102 245z" />
    <glyph glyph-name="uni0546" unicode="&#x546;" 
d="M369 319q0 -184 222 -184t266.5 107t53.5 153l43 223h202l-31 -161q-70 -364 -261 -425t-359 -61t-265 119q-68 83 -68 224q0 65 15 143l168 866h-187l33 170h389l-213 -1098q-8 -40 -8 -76z" />
    <glyph glyph-name="uni0547" unicode="&#x547;" 
d="M49 428q0 229 116.5 458t234 289.5t190.5 64.5l-82 40q-88 43 -195 43h-45l33 170h123q116 0 239 -56l465 -213l-41 -212l-224 103q-64 32 -150 32q-231 0 -366 -323q-88 -210 -88 -425q0 -94 36 -179t205.5 -84.5t265.5 108.5t141 352l4 22h203l-4 -22
q-29 -163 -147.5 -394t-486.5 -231q-426 0 -427 457z" />
    <glyph glyph-name="uni0548" unicode="&#x548;" 
d="M956 1175q0 183 -224 183q-266 0 -318 -260l-213 -1098h-201l200 1036q70 364 261 425t359 61t265 -119q68 -87 68 -225q0 -66 -15 -142l-201 -1036h-202l213 1098q8 40 8 77z" />
    <glyph glyph-name="uni0549" unicode="&#x549;" 
d="M759 1520q430 0 430 -448q0 -180 -91 -410.5t-264 -343.5q-100 -67 -187 -67l213 -99l-41 -210l-710 325l42 212l218 -101q70 -34 153 -34q195 0 326 233t131 547q0 232 -250 232q-164 0 -259 -109t-140 -352l-4 -22h-203l4 22q58 319 245 485q158 140 387 140z" />
    <glyph glyph-name="uni054A" unicode="&#x54a;" 
d="M1030 1097q0 63 -15 115t-60 91t-130 48l-170 -876h-190l170 876q-235 -31 -285 -193t-65 -241l-8 -42h-190l11 57q80 420 299 504t371 84q378 0 415.5 -166t37.5 -244t-20 -178l-181 -932h-190l178 917q22 118 22 180z" />
    <glyph glyph-name="uni054B" unicode="&#x54b;" 
d="M956 912q18 85 18 174t-21 146q-46 124 -224 124q-236 0 -312.5 -166.5t-76.5 -227.5t16 -83q16 -23 51 -29t75 -8q79 -3 133 -21t90 -77q37 -58 37 -124q0 -101 -32 -197q183 200 246 489zM267 170q118 0 255 89q70 153 70 259t-56.5 126t-98.5 22q-90 3 -179.5 19.5
t-110.5 79.5t-21 117t12 108q45 205 195.5 367.5t423.5 162.5q426 0 426 -433q0 -339 -194 -590t-367 -327h359l-33 -170h-956l63 332h203l-31 -162h40z" />
    <glyph glyph-name="uni054C" unicode="&#x54c;" 
d="M863 1176q0 180 -245.5 180t-296.5 -258l-213 -1098h-201l200 1036q93 484 441 484t444 -118q68 -87 68 -225q0 -65 -15 -141l-81 -415h187l-33 -170h-187l-87 -451h-202l213 1098q8 40 8 78z" />
    <glyph glyph-name="uni054D" unicode="&#x54d;" 
d="M275 319q0 -184 222 -184t266.5 107t53.5 153l213 1098h202l-201 -1036q-70 -364 -261 -425t-359 -61t-265 119q-68 83 -68 224q0 65 15 143l201 1036h202l-213 -1098q-8 -40 -8 -76z" />
    <glyph glyph-name="uni054E" unicode="&#x54e;" 
d="M35 697q0 64 15 141l55 282h202l-67 -344q-8 -40 -8 -75q0 -185 224 -185q267 0 318 260l140 717h202l-258 -1323h228l-33 -170h-430l84 431q-130 -79 -290 -79q-215 0 -313 119q-69 84 -69 226z" />
    <glyph glyph-name="uni054F" unicode="&#x54f;" 
d="M936 1184q0 171 -207 171q-186 0 -240.5 -100.5t-54.5 -156.5q0 -96 80 -146q51 -33 116 -55q64 -23 134 -47t132 -58q178 -95 177 -278q0 -138 -78 -271q-102 -173 -295 -238q-101 -34 -222 -34q-239 0 -358 132q-84 93 -84 238q0 50 10 106h210q-8 -40 -8 -74
q0 -97 44 -147q81 -92 218 -91q210 0 284 122t74 222t-91 149t-109 54l-126 43q-197 66 -255 143t-58 152q0 235 155 367.5t377 132.5t321 -119q66 -80 66 -197q0 -49 -8 -84h-210q6 33 6 64z" />
    <glyph glyph-name="uni0550" unicode="&#x550;" 
d="M956 1175q0 183 -224 183q-266 0 -318 -260l-213 -1098h-201l200 1036q70 364 261 425t359 61t265 -119q68 -87 68 -225q0 -64 -15 -142l-31 -161h-202l43 223q8 40 8 77z" />
    <glyph glyph-name="uni0551" unicode="&#x551;" 
d="M922 989.5q58 114.5 58 183.5t-24 108q-46 75 -179 75q-134 0 -202 -66q-95 -93 -95 -238q0 -29 15.5 -103t192.5 -74q176 0 234 114.5zM508 -29q-255 0 -362 143q-69 93 -69 225q0 50 11 108h210q-9 -45 -9 -105q1 -60 31 -108q63 -98 218 -99q156 0 246.5 88.5
t115.5 223.5q6 31 6 59q0 78 -40 120q-74 79 -216 79h-594l33 170h273q-53 31 -71 89t-18 86q0 123 56 214t161.5 173.5t317 82.5t311.5 -110q72 -78 72 -200q0 -172 -102 -291q-71 -83 -171 -114q162 -43 181 -140.5t19 -125.5q0 -143 -86 -298t-238 -212.5t-286 -57.5z
" />
    <glyph glyph-name="uni0552" unicode="&#x552;" 
d="M280 1493h203l-73 -373h760l-34 -175h-760l-184 -945h-202z" />
    <glyph glyph-name="uni0553" unicode="&#x553;" 
d="M991 964q1 100 -9 131q-31 103 -183 108l-172 -887q87 6 133.5 29t84.5 81q88 132 117 285t29 253zM240 546q0 -79 18 -128q34 -96 176 -102l172 887q-148 -6 -220 -102q-72 -95 -120 -345q-26 -130 -26 -210zM46 525q0 119 25 251q50 265 178 425q128 159 390 170
l24 122h193l-24 -122q255 -10 328 -169q34 -76 34 -184t-28 -250q-59 -301 -186 -451.5t-384 -159.5l-31 -157h-193l31 158q-259 10 -326 172q-31 75 -31 195z" />
    <glyph glyph-name="uni0554" unicode="&#x554;" 
d="M730 798q140 0 214 77q106 113 106 272q0 152 -94 189q-51 20 -133 20q-203 0 -260 -120t-61 -166.5t-4 -74.5t18 -112.5t214 -84.5zM860 1520q321 0 357.5 -140t36.5 -183q0 -271 -185 -434q-147 -129 -363 -129q-90 0 -138 20q-98 40 -127 91l-64 -326h724l-34 -175
h-724l-47 -244h-202l47 244h-190l34 175h190l129 661q38 201 179 321q140 119 377 119z" />
    <glyph glyph-name="uni0555" unicode="&#x555;" 
d="M491 135q144 0 241 124t154.5 375t57.5 372q0 120 -20 235t-190 115q-138 0 -235.5 -127t-154.5 -376t-57 -409t47 -234.5t157 -74.5zM751 1520q400 0 400 -483q0 -247 -87 -521q-118 -369 -281 -457t-303 -88q-398 0 -398 488q0 252 85 516q116 363 278.5 454t305.5 91z
" />
    <glyph glyph-name="uni0556" unicode="&#x556;" 
d="M955 748q0 68 -15 113q-29 88 -187 88l-159 -816q156 0 229 104q59 85 107 320q24 123 25 191zM433 1178q0 -26 30 -42t130 -16l41 209q-100 -1 -131 -15q-52 -25 -61 -67q-9 -43 -9 -69zM5 275q0 89 7.5 135.5t23.5 145.5h194l-15 -92q-15 -93 -15 -141t14 -91
q32 -99 187 -99l159 819q-169 0 -250 48.5t-81 151.5t40.5 172t97.5 104q105 65 309 65h182l-72 -373q251 -10 323 -140q42 -80 42 -239t-78.5 -397t-234.5 -310q-51 -24 -116.5 -43.5t-185.5 -19.5q-185 0 -307.5 19.5t-173 107.5t-50.5 177z" />
    <glyph glyph-name="uni0559" unicode="&#x559;" 
d="M668.5 1434.5q75.5 121.5 256.5 121.5l-24 -123q-72 0 -128 -54.5t-56 -117.5q0 -62 34 -96.5t91 -34.5q-19 -98 -23 -123q-100 0 -163 63t-63 153t75.5 211.5z" />
    <glyph glyph-name="uni055A" unicode="&#x55a;" 
d="M568 1341l29 152h211l-29 -152l-226 -319h-129z" />
    <glyph glyph-name="uni055B" unicode="&#x55b;" 
d="M810 1645h219l-395 -376h-156z" />
    <glyph glyph-name="uni055C" unicode="&#x55c;" 
d="M170 1265q24 119 117 210t226 122q52 12 116 26q249 55 280 206h152q-21 -115 -112 -206t-210 -122q-47 -13 -128 -29q-164 -32 -235 -98q-41 -39 -54 -109h-152z" />
    <glyph glyph-name="uni055D" unicode="&#x55d;" 
d="M551 1638h198l197 -376h-143z" />
    <glyph glyph-name="uni055E" unicode="&#x55e;" 
d="M744 1256q-153 0 -189.5 72t-39.5 126h165q-1 -32 23 -46.5t53 -14.5q101 0 121 102q4 17 4 53t-40 76q-40 39 -109 39t-117 -13l-2 -1q-267 -62 -330 -384h-158q63 332 264.5 440t351.5 108t232 -70q81 -70 81 -166q0 -161 -97 -241t-213 -80z" />
    <glyph glyph-name="uni055F" unicode="&#x55f;" 
d="M216 1556h140l-33 -169h716l-24 -122h-856z" />
    <glyph glyph-name="uni0561" unicode="&#x561;" 
d="M477 114q-95 -141 -235 -141q-72 0 -131 31.5t-59 182.5q0 91 36 284l126 649h168l-125 -641q-36 -193 -36 -247t18.5 -79.5t66.5 -25.5q85 0 127 61t86 291l125 641h168l-125 -641q-34 -178 -34 -228t6 -71q15 -53 99 -53t119.5 87t70.5 265l125 641h167l-218 -1120
h-147l-1 96q-93 -123 -231 -123q-139 0 -166 141z" />
    <glyph glyph-name="uni0562" unicode="&#x562;" 
d="M931 809q1 178 -163 178q-280 0 -349 -354l-95 -490h682l-28 -143h-682l-82 -426h-184l300 1546h184l-33 -168q138 195 370 195q139 0 205 -70.5t66 -211.5q0 -70 -19 -171l-47 -244h-185l47 244q13 69 13 115z" />
    <glyph glyph-name="uni0563" unicode="&#x563;" 
d="M864 734q0 253 -205 253q-189 0 -280.5 -203.5t-91.5 -405.5q0 -255 204 -255q268 0 353 432q20 103 20 179zM143 124q-52 96 -52 213t23 236q49 253 196 411q147 159 352 159t263 -170l49 147h165l-190 -977h168l-28 -143h-168l-83 -426h-185l110 565
q-127 -172 -331 -172q-203 0 -289 157z" />
    <glyph glyph-name="uni0564" unicode="&#x564;" 
d="M862 809q0 178 -164 178q-280 0 -348 -354l-123 -633h-184l218 1120h164l-13 -168q138 195 370 195q140 0 205.5 -71t65.5 -211q0 -70 -19 -171l-107 -551h148l-28 -143h-148l-82 -426h-185l217 1120q13 69 13 115z" />
    <glyph glyph-name="uni0565" unicode="&#x565;" 
d="M79 251q0 78 19 173l220 1132h184l-85 -436h721l-28 -143h-721l-107 -553q-13 -69 -13 -115q0 -178 175 -178q134 0 218.5 91.5t117.5 262.5l46 235h185l-140 -720h-185l33 168q-140 -197 -372 -197q-137 0 -202.5 69.5t-65.5 210.5z" />
    <glyph glyph-name="uni0566" unicode="&#x566;" 
d="M864 734q0 253 -205 253q-189 0 -280.5 -203.5t-91.5 -405.5q0 -255 204 -255q268 0 353 432q20 103 20 179zM143 124q-52 96 -52 213t23 236q49 253 196 411q147 159 352 159t263 -170l49 147h165l-273 -1401h168l-28 -145h-353l110 565q-127 -172 -331 -172
q-203 0 -289 157z" />
    <glyph glyph-name="uni0567" unicode="&#x567;" 
d="M358 1556h184l-85 -436h634l-28 -143h-634l-161 -829h549l-29 -148h-733z" />
    <glyph glyph-name="uni0568" unicode="&#x568;" 
d="M851 1147q271 0 271 -282q0 -70 -19 -171l-135 -694h-185l135 694q13 69 13 115q0 91 -42.5 134.5t-131.5 43.5q-133 0 -219 -91.5t-119 -262.5l-178 -916h682l-27 -143h-866l300 1546h164l-13 -168q138 195 370 195z" />
    <glyph glyph-name="uni0569" unicode="&#x569;" 
d="M704 416q-89 0 -132.5 -69.5t-43.5 -119.5q0 -120 114 -120q171 0 258 309h-196zM946 699q0 296 -271 296q-227 0 -291 -135t-84 -241l-203 -1045h-183l299 1546h164l-13 -170q127 163 229.5 180t150.5 17q287 0 329.5 -173t42.5 -255t-13 -160h101l-28 -143h-104
q-65 -240 -188 -342.5t-266 -102.5t-213 76q-51 55 -51 155t49 173t99 111q99 74 230 73h201q13 71 13 140z" />
    <glyph glyph-name="uni056A" unicode="&#x56a;" 
d="M208 383q0 -256 201 -256t269 163.5t88 268.5l81 418h-275q-119 0 -212 -112t-122.5 -259t-29.5 -223zM374 -29q-361 0 -361 397q0 205 89 411.5t230.5 273.5t265.5 67h277l85 436h185l-85 -436h168l-28 -143h-168l-92 -472q-47 -242 -192 -388t-374 -146z" />
    <glyph glyph-name="uni056B" unicode="&#x56b;" 
d="M817 1147q271 0 271 -282q0 -70 -19 -171l-135 -694h-185l135 694q13 69 13 115q0 91 -42.5 134.5t-131.5 43.5q-128 0 -215.5 -87.5t-122.5 -266.5l-206 -1059h-183l384 1982h184l-117 -604q138 195 370 195z" />
    <glyph glyph-name="uni056C" unicode="&#x56c;" 
d="M477 1120h184l-273 -1403h395l-28 -143h-579z" />
    <glyph glyph-name="uni056D" unicode="&#x56d;" 
d="M585 1147q173 1 173 -195q0 -88 -26 -221l-49 -252q-35 -178 -35 -239t19 -87t67 -26q86 0 127 66q40 66 83 286l124 641h167l-217 -1120h-167l18 96q-94 -123 -225 -123q-173 -1 -173 195q0 88 26 221l49 252q35 178 35 239t-19 87t-67 26q-86 0 -127 -66
q-40 -66 -83 -286l-207 -1067h-166l384 1982h167l-103 -532q94 123 225 123z" />
    <glyph glyph-name="uni056E" unicode="&#x56e;" 
d="M877 732q0 139 -74 218h-153q-149 0 -251 -128q-103 -128 -117.5 -264t-14.5 -193q-1 -57 23 -115q49 -122 199 -123q150 0 248 121t119 278.5t21 205.5zM1037 950q38 -83 38 -187t-26 -228q-84 -399 -274.5 -481.5t-316.5 -82.5q-236 0 -330 161q-56 95 -56 233
q0 80 22 193q45 231 179.5 376t314.5 177l-236 179l263 289l129 -98l-136 -151l281 -210h271l-33 -170h-90z" />
    <glyph glyph-name="uni056F" unicode="&#x56f;" 
d="M141 252q0 81 19 172l220 1132h184l-220 -1132q-13 -69 -13 -114q0 -91 42.5 -135t133.5 -44q129 0 215.5 89t120.5 265l123 635h185l-300 -1546h-185l115 594q-140 -197 -371 -197q-269 0 -269 281z" />
    <glyph glyph-name="uni0570" unicode="&#x570;" 
d="M803 1147q133 0 210 -73t77 -200q0 -71 -21 -180l-135 -694h-184l135 695q2 5 10 45t8 81q0 79 -45.5 122.5t-121.5 43.5q-138 0 -228.5 -93.5t-122.5 -260.5l-123 -633h-184l303 1556h184l-116 -604q152 195 354 195z" />
    <glyph glyph-name="uni0571" unicode="&#x571;" 
d="M289 348q0 -217 188 -217q139 0 227 97t116 242l16 86q12 70 12 125q0 214 -171 313q-221 -173 -304.5 -345t-83.5 -301zM1030 681q0 -67 -18 -168l-100 -513h-184l34 172q-87 -140 -198.5 -171t-185.5 -31q-161 0 -238 125q-50 83 -50 203q0 244 186 501
q137 188 342 322q-102 13 -152 84q-32 46 -32 85t10 86t54 101l67 79h199l-74 -85q-54 -62 -54 -111q0 -50 19 -74q36 -44 90 -44t83 16l117 66l-35 -177q-11 -6 -14 -7.5t-14 -8t-33 -18.5t-44 -25q225 -133 225 -407z" />
    <glyph glyph-name="uni0572" unicode="&#x572;" 
d="M862 809q0 178 -164 178q-280 0 -348 -354l-123 -633h-184l218 1120h164l-13 -168q138 195 370 195q271 0 271 -282q0 -70 -19 -171l-190 -977h149l-27 -143h-334l217 1120q13 69 13 115z" />
    <glyph glyph-name="uni0573" unicode="&#x573;" 
d="M868 700q0 253 -343 275q-111 -177 -166 -364.5t-55 -257.5q0 -69 20.5 -145.5t188.5 -76.5q122 0 208 100q85 100 111 239l27 139q9 45 9 91zM154 92q-45 73 -45 201q0 127 76 333t160 351h-145l28 143h210q231 314 407.5 375t254.5 61t100 -11l-29 -151q-40 19 -97 19
q-109 1 -227 -79t-225 -218q239 -20 350 -156q81 -99 81 -248q0 -56 -12 -116l-116 -596h-164l13 168q-144 -197 -370 -197q-176 0 -250 121z" />
    <glyph glyph-name="uni0574" unicode="&#x574;" 
d="M19 251q0 79 19 173l135 696h184l-135 -696q-13 -69 -13 -115q0 -178 175 -178q134 0 218.5 91.5t117.5 262.5l209 1071h353l-28 -143h-168l-275 -1413h-165l13 168q-140 -197 -372 -197q-138 0 -203 70t-65 210z" />
    <glyph glyph-name="uni0575" unicode="&#x575;" 
d="M431 -270q180 0 228 250l222 1140h184l-222 -1140q-38 -196 -147.5 -301t-275.5 -105h-254l31 156h234z" />
    </font>
</defs>
</svg>
